<?xml version="1.0" encoding="UTF-8"?>
<!DOCTYPE svg PUBLIC "-//W3C//DTD SVG 1.1//EN" "http://www.w3.org/Graphics/SVG/1.1/DTD/svg11.dtd">
<svg xmlns="http://www.w3.org/2000/svg" version="1.1" width="300px" height="265px" style="shape-rendering:geometricPrecision; text-rendering:geometricPrecision; image-rendering:optimizeQuality; fill-rule:evenodd; clip-rule:evenodd" xmlns:xlink="http://www.w3.org/1999/xlink">
<g><path style="opacity:1" fill="#79c702" d="M 212.5,2.5 C 219.069,2.16965 225.402,3.00298 231.5,5C 236.575,8.23246 241.242,12.0658 245.5,16.5C 248.943,20.8288 250.61,25.8288 250.5,31.5C 250.333,61.1685 250.5,90.8352 251,120.5C 251.2,122.32 252.034,123.653 253.5,124.5C 265.812,145.114 277.646,166.114 289,187.5C 289.497,189.81 289.663,192.143 289.5,194.5C 287.468,195.048 286.468,196.381 286.5,198.5C 285.5,198.5 284.5,198.5 283.5,198.5C 283.64,200.124 282.973,201.29 281.5,202C 270.544,203.319 259.544,203.819 248.5,203.5C 243.69,202.964 239.023,201.797 234.5,200C 232.5,199.333 230.5,199.333 228.5,200C 222.886,206.456 216.552,211.956 209.5,216.5C 205.545,216.274 202.545,216.941 200.5,218.5C 200.5,219.5 200.5,220.5 200.5,221.5C 198.061,222.053 195.727,222.053 193.5,221.5C 192.494,221.938 192.494,222.604 193.5,223.5C 189.048,223.791 185.381,225.624 182.5,229C 178.584,230.102 174.584,230.769 170.5,231C 169.944,231.383 169.611,231.883 169.5,232.5C 165.5,233.167 161.5,233.833 157.5,234.5C 154.193,233.949 150.86,233.616 147.5,233.5C 142.093,233.299 136.76,232.632 131.5,231.5C 130.5,231.5 129.5,231.5 128.5,231.5C 125.2,229.358 121.533,228.025 117.5,227.5C 114.678,226.209 112.011,224.543 109.5,222.5C 108.614,221.675 108.281,220.675 108.5,219.5C 106.167,219.5 103.833,219.5 101.5,219.5C 92.0094,214.681 84.0094,208.014 77.5,199.5C 76.7261,198.853 75.7261,198.52 74.5,198.5C 66.9472,199.273 59.6139,200.773 52.5,203C 42.3909,203.959 32.3909,203.459 22.5,201.5C 21.5533,199.713 20.3866,198.047 19,196.5C 18.5027,192.476 18.6693,188.476 19.5,184.5C 28.6631,166.836 38.3298,149.503 48.5,132.5C 50.4168,130.704 52.2501,128.704 54,126.5C 54.2163,124.616 54.883,122.949 56,121.5C 56.3333,89.5 56.6667,57.5 57,25.5C 58.8657,22.3132 60.699,19.1466 62.5,16C 64.3072,14.7637 66.3072,14.4303 68.5,15C 68.1667,14.6667 67.8333,14.3333 67.5,14C 69.4324,12.6482 70.7657,10.8149 71.5,8.5C 74.5621,6.61605 77.8954,5.44938 81.5,5C 81.1667,4.66667 80.8333,4.33333 80.5,4C 87.4929,3.89237 94.4929,4.05904 101.5,4.5C 107.271,7.31897 113.271,10.1523 119.5,13C 122.117,13.8215 124.784,14.3215 127.5,14.5C 130.221,14.9628 132.888,15.6295 135.5,16.5C 137.667,18.5113 140.334,19.6779 143.5,20C 151.167,20.6667 158.833,20.6667 166.5,20C 174.319,16.9491 182.319,14.2824 190.5,12C 191.252,11.3292 191.586,10.4959 191.5,9.5C 198.226,6.30151 205.226,3.96818 212.5,2.5 Z"/></g>
<g><path style="opacity:1" fill="#93c73f" d="M 212.5,2.5 C 226.79,-0.624486 237.79,4.04218 245.5,16.5C 241.242,12.0658 236.575,8.23246 231.5,5C 225.402,3.00298 219.069,2.16965 212.5,2.5 Z"/></g>
<g><path style="opacity:1" fill="#97c945" d="M 101.5,4.5 C 110.445,7.31369 119.112,10.647 127.5,14.5C 124.784,14.3215 122.117,13.8215 119.5,13C 113.271,10.1523 107.271,7.31897 101.5,4.5 Z"/></g>
<g><path style="opacity:1" fill="#8ec538" d="M 191.5,9.5 C 191.586,10.4959 191.252,11.3292 190.5,12C 182.319,14.2824 174.319,16.9491 166.5,20C 158.833,20.6667 151.167,20.6667 143.5,20C 140.334,19.6779 137.667,18.5113 135.5,16.5C 143.955,19.2377 152.622,20.071 161.5,19C 171.794,16.6824 181.794,13.5157 191.5,9.5 Z"/></g>
<g><path style="opacity:1" fill="#8edd06" d="M 168.5,114.5 C 169.179,112.186 170.512,111.853 172.5,113.5C 173.096,112.284 173.263,110.951 173,109.5C 174.395,110.815 175.395,110.481 176,108.5C 178.755,110.01 179.921,112.343 179.5,115.5C 183.139,115.422 185.806,116.922 187.5,120C 196.186,120.832 204.853,120.665 213.5,119.5C 217.353,115.148 221.353,110.982 225.5,107C 226.448,106.517 227.448,106.351 228.5,106.5C 228.832,93.8158 228.499,81.1492 227.5,68.5C 226.817,68.1373 226.15,67.8039 225.5,67.5C 224.849,64.197 223.182,61.5303 220.5,59.5C 208.878,47.6724 196.211,46.5057 182.5,56C 181.748,56.6708 181.414,57.5041 181.5,58.5C 178.522,60.4654 176.522,63.1321 175.5,66.5C 174.849,67.0906 174.182,67.7573 173.5,68.5C 172.043,81.2346 172.376,93.9012 174.5,106.5C 173.041,106.567 171.708,106.234 170.5,105.5C 169.581,102.911 167.914,100.911 165.5,99.5C 164.263,97.9032 162.596,96.7365 160.5,96C 154.804,95.1701 149.137,95.3368 143.5,96.5C 141.739,97.9166 140.406,99.5833 139.5,101.5C 138.222,101.782 137.222,102.449 136.5,103.5C 133.856,105.516 133.023,108.183 134,111.5C 135.356,112.38 136.856,112.714 138.5,112.5C 138.5,113.5 138.5,114.5 138.5,115.5C 133.9,119.762 129.233,124.095 124.5,128.5C 107.141,136.495 90.9741,134.828 76,123.5C 73.7287,120.211 71.3954,116.878 69,113.5C 63.2704,94.7772 63.1037,75.9439 68.5,57C 70.3801,54.7417 71.8801,52.2417 73,49.5C 80.01,45.2233 83.01,38.8899 82,30.5C 86.0058,23.7828 89.8392,23.9495 93.5,31C 95.0249,32.0086 96.6916,32.5086 98.5,32.5C 99.4581,15.3019 104.625,13.9686 114,28.5C 122.318,35.7635 130.151,43.5968 137.5,52C 149.719,57.3166 161.385,56.3166 172.5,49C 181.161,38.6735 190.161,28.6735 199.5,19C 202.318,18.1605 204.484,18.9938 206,21.5C 206.882,24.7895 207.548,28.1228 208,31.5C 208.388,32.428 209.055,33.0946 210,33.5C 212.839,31.328 215.339,28.828 217.5,26C 219.479,25.3164 221.146,25.8164 222.5,27.5C 223.361,31.5826 224.527,35.5826 226,39.5C 232.024,47.5452 237.024,56.2119 241,65.5C 241.667,77.5 241.667,89.5 241,101.5C 231.429,130.027 212.262,139.527 183.5,130C 177.464,125.696 172.464,120.53 168.5,114.5 Z"/></g>
<g><path style="opacity:1" fill="#8dc539" d="M 101.5,4.5 C 94.4929,4.05904 87.4929,3.89237 80.5,4C 80.8333,4.33333 81.1667,4.66667 81.5,5C 77.8954,5.44938 74.5621,6.61605 71.5,8.5C 70.7657,10.8149 69.4324,12.6482 67.5,14C 67.8333,14.3333 68.1667,14.6667 68.5,15C 66.3072,14.4303 64.3072,14.7637 62.5,16C 60.699,19.1466 58.8657,22.3132 57,25.5C 56.6667,57.5 56.3333,89.5 56,121.5C 54.883,122.949 54.2163,124.616 54,126.5C 52.2501,128.704 50.4168,130.704 48.5,132.5C 50.1048,128.395 51.9381,124.395 54,120.5C 54.3333,90.1667 54.6667,59.8333 55,29.5C 58.3203,11.4259 69.1536,2.09259 87.5,1.5C 91.5553,1.57526 95.5553,2.07526 99.5,3C 100.416,3.27842 101.082,3.77842 101.5,4.5 Z"/></g>
<g><path style="opacity:1" fill="#f9faf7" d="M 127.5,62.5 C 130.703,75.9707 131.37,89.6374 129.5,103.5C 129.5,104.167 129.5,104.833 129.5,105.5C 126.51,108.792 123.51,112.126 120.5,115.5C 117.619,116.683 114.619,117.683 111.5,118.5C 106.13,118.608 100.797,118.275 95.5,117.5C 88.8372,115.504 84.5038,111.171 82.5,104.5C 80.2173,91.5763 79.8839,78.5763 81.5,65.5C 81.5,65.1667 81.5,64.8333 81.5,64.5C 83.175,62.998 85.0083,61.6647 87,60.5C 87.4828,59.552 87.6495,58.552 87.5,57.5C 88.9355,55.917 90.6022,54.417 92.5,53C 103.059,48.9347 113.059,49.9347 122.5,56C 125.021,57.5579 126.688,59.7245 127.5,62.5 Z"/></g>
<g><path style="opacity:1" fill="#f9faf6" d="M 220.5,59.5 C 221.603,64.4516 223.437,69.1182 226,73.5C 226.5,82.1603 226.666,90.8269 226.5,99.5C 224.052,105.397 220.385,110.397 215.5,114.5C 212.285,115.107 209.285,116.274 206.5,118C 199.478,119.194 192.811,118.361 186.5,115.5C 178.957,111.098 174.957,104.432 174.5,95.5C 174.334,89.4908 174.501,83.4908 175,77.5C 177.405,76.7256 179.905,76.2256 182.5,76C 185.384,74.9626 186.05,73.1293 184.5,70.5C 182.149,72.2289 179.482,72.8956 176.5,72.5C 176.5,70.5 176.5,68.5 176.5,66.5C 177.5,66.5 178.5,66.5 179.5,66.5C 179.287,63.5491 179.954,60.8825 181.5,58.5C 181.414,57.5041 181.748,56.6708 182.5,56C 196.211,46.5057 208.878,47.6724 220.5,59.5 Z"/></g>
<g><path style="opacity:1" fill="#e4fabe" d="M 87.5,57.5 C 87.6495,58.552 87.4828,59.552 87,60.5C 85.0083,61.6647 83.175,62.998 81.5,64.5C 81.5,64.1667 81.5,63.8333 81.5,63.5C 83.1667,61.1667 85.1667,59.1667 87.5,57.5 Z"/></g>
<g><path style="opacity:1" fill="#50504f" d="M 105.5,65.5 C 112.582,64.1249 118.082,66.4582 122,72.5C 122.91,81.2438 122.576,89.9105 121,98.5C 116.312,104.4 110.479,105.9 103.5,103C 100.894,101.062 99.0608,98.5616 98,95.5C 97.3333,90.8333 97.3333,86.1667 98,81.5C 102.358,81.4661 105.358,79.4661 107,75.5C 107.434,72.0317 106.934,68.6984 105.5,65.5 Z"/></g>
<g><path style="opacity:1" fill="#4f4f4f" d="M 191.5,65.5 C 199.128,64.0649 204.628,66.7315 208,73.5C 208.667,80.8333 208.667,88.1667 208,95.5C 204.994,103.064 199.494,105.897 191.5,104C 187.942,102.108 185.442,99.2749 184,95.5C 183.333,90.8333 183.333,86.1667 184,81.5C 191.883,79.4043 194.049,74.7376 190.5,67.5C 190.863,66.8165 191.196,66.1499 191.5,65.5 Z"/></g>
<g><path style="opacity:0.562" fill="#9cd050" d="M 250.5,31.5 C 251.332,60.6638 251.832,89.9971 252,119.5C 252.608,121.154 253.108,122.821 253.5,124.5C 252.034,123.653 251.2,122.32 251,120.5C 250.5,90.8352 250.333,61.1685 250.5,31.5 Z"/></g>
<g><path style="opacity:1" fill="#e9fbc8" d="M 220.5,59.5 C 223.182,61.5303 224.849,64.197 225.5,67.5C 227.712,78.2125 228.046,88.8791 226.5,99.5C 226.666,90.8269 226.5,82.1603 226,73.5C 223.437,69.1182 221.603,64.4516 220.5,59.5 Z"/></g>
<g><path style="opacity:1" fill="#f6fde4" d="M 181.5,58.5 C 179.954,60.8825 179.287,63.5491 179.5,66.5C 178.5,66.5 177.5,66.5 176.5,66.5C 176.5,68.5 176.5,70.5 176.5,72.5C 179.482,72.8956 182.149,72.2289 184.5,70.5C 186.05,73.1293 185.384,74.9626 182.5,76C 179.905,76.2256 177.405,76.7256 175,77.5C 174.501,83.4908 174.334,89.4908 174.5,95.5C 172.97,85.8645 173.304,76.1978 175.5,66.5C 176.522,63.1321 178.522,60.4654 181.5,58.5 Z"/></g>
<g><path style="opacity:1" fill="#f2fecf" d="M 127.5,62.5 C 129.669,64.3403 131.002,66.6737 131.5,69.5C 132.377,78.1333 132.711,86.8 132.5,95.5C 132.655,98.716 131.655,101.383 129.5,103.5C 131.37,89.6374 130.703,75.9707 127.5,62.5 Z"/></g>
<g><path style="opacity:1" fill="#a5d350" d="M 131.5,69.5 C 132.222,69.9175 132.722,70.5842 133,71.5C 133.823,79.6775 133.656,87.6775 132.5,95.5C 132.711,86.8 132.377,78.1333 131.5,69.5 Z"/></g>
<g><path style="opacity:1" fill="#9bd830" d="M 81.5,63.5 C 81.5,63.8333 81.5,64.1667 81.5,64.5C 81.5,64.8333 81.5,65.1667 81.5,65.5C 79.9318,67.8109 79.0984,70.4776 79,73.5C 78.5003,80.8258 78.3337,88.1591 78.5,95.5C 75.8488,86.961 75.8488,78.2943 78.5,69.5C 76.4954,65.8096 77.4954,63.8096 81.5,63.5 Z"/></g>
<g><path style="opacity:1" fill="#dbce05" d="M 165.5,99.5 C 159.724,97.0562 153.724,96.2228 147.5,97C 145.545,97.9533 143.878,99.2866 142.5,101C 141.552,101.483 140.552,101.649 139.5,101.5C 140.406,99.5833 141.739,97.9166 143.5,96.5C 149.137,95.3368 154.804,95.1701 160.5,96C 162.596,96.7365 164.263,97.9032 165.5,99.5 Z"/></g>
<g><path style="opacity:1" fill="#fac201" d="M 165.5,99.5 C 166.031,101.544 167.198,103.211 169,104.5C 169.495,106.473 169.662,108.473 169.5,110.5C 168.178,110.67 167.011,110.337 166,109.5C 166.207,111.751 166.373,114.085 166.5,116.5C 166.672,117.492 166.338,118.158 165.5,118.5C 165.5,116.5 165.5,114.5 165.5,112.5C 157.16,113.797 148.826,113.797 140.5,112.5C 138.648,111.911 136.815,111.244 135,110.5C 134.865,108.078 135.365,105.745 136.5,103.5C 137.222,102.449 138.222,101.782 139.5,101.5C 140.552,101.649 141.552,101.483 142.5,101C 143.878,99.2866 145.545,97.9533 147.5,97C 153.724,96.2228 159.724,97.0562 165.5,99.5 Z"/></g>
<g><path style="opacity:1" fill="#eefdcd" d="M 81.5,65.5 C 79.8839,78.5763 80.2173,91.5763 82.5,104.5C 80.581,101.736 79.2476,98.7363 78.5,95.5C 78.3337,88.1591 78.5003,80.8258 79,73.5C 79.0984,70.4776 79.9318,67.8109 81.5,65.5 Z"/></g>
<g><path style="opacity:1" fill="#b4c503" d="M 136.5,103.5 C 135.365,105.745 134.865,108.078 135,110.5C 136.815,111.244 138.648,111.911 140.5,112.5C 140.833,115.167 141.167,117.833 141.5,120.5C 140.065,119.087 139.065,117.42 138.5,115.5C 138.5,114.5 138.5,113.5 138.5,112.5C 136.856,112.714 135.356,112.38 134,111.5C 133.023,108.183 133.856,105.516 136.5,103.5 Z"/></g>
<g><path style="opacity:1" fill="#a1dc39" d="M 78.5,95.5 C 79.2476,98.7363 80.581,101.736 82.5,104.5C 84.5038,111.171 88.8372,115.504 95.5,117.5C 95.5,117.833 95.5,118.167 95.5,118.5C 92.2656,117.74 89.0989,116.74 86,115.5C 83.2677,111.759 80.9343,107.759 79,103.5C 78.5026,100.854 78.3359,98.1873 78.5,95.5 Z"/></g>
<g><path style="opacity:1" fill="#9ed931" d="M 175.5,66.5 C 173.304,76.1978 172.97,85.8645 174.5,95.5C 174.957,104.432 178.957,111.098 186.5,115.5C 189.998,118.944 194.332,120.277 199.5,119.5C 205.533,119.74 210.866,118.073 215.5,114.5C 220.385,110.397 224.052,105.397 226.5,99.5C 228.046,88.8791 227.712,78.2125 225.5,67.5C 226.15,67.8039 226.817,68.1373 227.5,68.5C 228.499,81.1492 228.832,93.8158 228.5,106.5C 227.448,106.351 226.448,106.517 225.5,107C 221.353,110.982 217.353,115.148 213.5,119.5C 204.853,120.665 196.186,120.832 187.5,120C 185.806,116.922 183.139,115.422 179.5,115.5C 179.921,112.343 178.755,110.01 176,108.5C 175.395,110.481 174.395,110.815 173,109.5C 173.263,110.951 173.096,112.284 172.5,113.5C 170.512,111.853 169.179,112.186 168.5,114.5C 168.488,118.166 167.154,121.166 164.5,123.5C 164.833,122.167 165.167,120.833 165.5,119.5C 165.5,119.167 165.5,118.833 165.5,118.5C 166.338,118.158 166.672,117.492 166.5,116.5C 167.451,115.081 167.784,113.415 167.5,111.5C 168.833,111.5 170.167,111.5 171.5,111.5C 171.483,109.435 171.15,107.435 170.5,105.5C 171.708,106.234 173.041,106.567 174.5,106.5C 172.376,93.9012 172.043,81.2346 173.5,68.5C 174.182,67.7573 174.849,67.0906 175.5,66.5 Z"/></g>
<g><path style="opacity:1" fill="#dcc704" d="M 165.5,99.5 C 167.914,100.911 169.581,102.911 170.5,105.5C 171.15,107.435 171.483,109.435 171.5,111.5C 170.167,111.5 168.833,111.5 167.5,111.5C 167.784,113.415 167.451,115.081 166.5,116.5C 166.373,114.085 166.207,111.751 166,109.5C 167.011,110.337 168.178,110.67 169.5,110.5C 169.662,108.473 169.495,106.473 169,104.5C 167.198,103.211 166.031,101.544 165.5,99.5 Z"/></g>
<g><path style="opacity:1" fill="#c5eb7e" d="M 129.5,105.5 C 127.876,110.089 124.876,113.423 120.5,115.5C 123.51,112.126 126.51,108.792 129.5,105.5 Z"/></g>
<g><path style="opacity:1" fill="#effdcc" d="M 95.5,118.5 C 95.5,118.167 95.5,117.833 95.5,117.5C 100.797,118.275 106.13,118.608 111.5,118.5C 106.297,119.757 100.964,119.757 95.5,118.5 Z"/></g>
<g><path style="opacity:1" fill="#eefcc6" d="M 215.5,114.5 C 210.866,118.073 205.533,119.74 199.5,119.5C 194.332,120.277 189.998,118.944 186.5,115.5C 192.811,118.361 199.478,119.194 206.5,118C 209.285,116.274 212.285,115.107 215.5,114.5 Z"/></g>
<g><path style="opacity:1" fill="#f09404" d="M 140.5,112.5 C 148.826,113.797 157.16,113.797 165.5,112.5C 165.5,114.5 165.5,116.5 165.5,118.5C 165.5,118.833 165.5,119.167 165.5,119.5C 163.807,122.19 161.473,124.19 158.5,125.5C 154.833,126.833 151.167,126.833 147.5,125.5C 145.183,124.18 143.183,122.514 141.5,120.5C 141.167,117.833 140.833,115.167 140.5,112.5 Z"/></g>
<g><path style="opacity:1" fill="#98ba02" d="M 165.5,119.5 C 165.167,120.833 164.833,122.167 164.5,123.5C 157.637,129.485 150.304,129.985 142.5,125C 141.62,123.644 141.286,122.144 141.5,120.5C 143.183,122.514 145.183,124.18 147.5,125.5C 151.135,128.065 154.801,128.065 158.5,125.5C 161.473,124.19 163.807,122.19 165.5,119.5 Z"/></g>
<g><path style="opacity:1" fill="#c1aa07" d="M 147.5,125.5 C 151.167,126.833 154.833,126.833 158.5,125.5C 154.801,128.065 151.135,128.065 147.5,125.5 Z"/></g>
<g><path style="opacity:1" fill="#8cdd03" d="M 119.5,165.5 C 127.833,165.5 136.167,165.5 144.5,165.5C 144.78,168.272 144.113,170.772 142.5,173C 139.929,173.901 137.596,175.234 135.5,177C 134.167,177.167 132.833,177.333 131.5,177.5C 128.439,176.952 125.439,176.119 122.5,175C 119.352,172.394 118.352,169.227 119.5,165.5 Z"/></g>
<g><path style="opacity:1" fill="#8cdc04" d="M 161.5,164.5 C 170.173,164.334 178.84,164.5 187.5,165C 188.76,166.814 188.76,168.647 187.5,170.5C 179.639,179.044 171.139,179.711 162,172.5C 160.187,169.922 160.02,167.255 161.5,164.5 Z"/></g>
<g><path style="opacity:1" fill="#8cdc04" d="M 139.5,186.5 C 148.173,186.334 156.84,186.5 165.5,187C 166.308,187.308 166.975,187.808 167.5,188.5C 165.824,191.173 164.158,193.839 162.5,196.5C 155.622,199.477 148.956,199.144 142.5,195.5C 140.126,192.972 139.126,189.972 139.5,186.5 Z"/></g>
<g><path style="opacity:1" fill="#96c748" d="M 19.5,184.5 C 18.6693,188.476 18.5027,192.476 19,196.5C 20.3866,198.047 21.5533,199.713 22.5,201.5C 17.2035,199.234 15.3702,195.234 17,189.5C 17.3736,187.509 18.207,185.842 19.5,184.5 Z"/></g>
<g><path style="opacity:0.98" fill="#8bc233" d="M 77.5,199.5 C 70.7866,200.678 64.1199,202.178 57.5,204C 47.8333,204.667 38.1667,204.667 28.5,204C 26.1484,203.76 24.1484,202.927 22.5,201.5C 32.3909,203.459 42.3909,203.959 52.5,203C 59.6139,200.773 66.9472,199.273 74.5,198.5C 75.7261,198.52 76.7261,198.853 77.5,199.5 Z"/></g>
<g><path style="opacity:0.998" fill="#90c73c" d="M 289.5,194.5 C 287.977,199.957 284.31,203.124 278.5,204C 268.32,206.028 258.32,205.861 248.5,203.5C 259.544,203.819 270.544,203.319 281.5,202C 282.973,201.29 283.64,200.124 283.5,198.5C 284.5,198.5 285.5,198.5 286.5,198.5C 286.468,196.381 287.468,195.048 289.5,194.5 Z"/></g>
<g><path style="opacity:1" fill="#92be1f" d="M 101.5,219.5 C 103.833,219.5 106.167,219.5 108.5,219.5C 108.281,220.675 108.614,221.675 109.5,222.5C 112.011,224.543 114.678,226.209 117.5,227.5C 115.435,227.483 113.435,227.15 111.5,226.5C 110.738,224.738 109.404,223.738 107.5,223.5C 105.118,222.649 103.118,221.316 101.5,219.5 Z"/></g>
<g><path style="opacity:1" fill="#8ec013" d="M 209.5,216.5 C 206.378,219.568 202.711,221.902 198.5,223.5C 197.448,223.351 196.448,223.517 195.5,224C 193.681,224.74 192.348,225.907 191.5,227.5C 188.129,228.323 184.796,229.489 181.5,231C 177.509,231.642 173.509,232.142 169.5,232.5C 169.611,231.883 169.944,231.383 170.5,231C 174.584,230.769 178.584,230.102 182.5,229C 185.381,225.624 189.048,223.791 193.5,223.5C 192.494,222.604 192.494,221.938 193.5,221.5C 195.727,222.053 198.061,222.053 200.5,221.5C 200.5,220.5 200.5,219.5 200.5,218.5C 202.545,216.941 205.545,216.274 209.5,216.5 Z"/></g>
<g><path style="opacity:1" fill="#dca01f" d="M 198.5,223.5 C 199.925,224.922 200.925,226.589 201.5,228.5C 198.272,227.586 194.939,227.253 191.5,227.5C 192.348,225.907 193.681,224.74 195.5,224C 196.448,223.517 197.448,223.351 198.5,223.5 Z"/></g>
<g><path style="opacity:1" fill="#abb304" d="M 117.5,227.5 C 121.533,228.025 125.2,229.358 128.5,231.5C 124.467,230.975 120.8,229.642 117.5,227.5 Z"/></g>
<g><path style="opacity:1" fill="#f19411" d="M 191.5,227.5 C 194.939,227.253 198.272,227.586 201.5,228.5C 202.833,232.167 202.833,235.833 201.5,239.5C 199.785,244.036 196.452,246.536 191.5,247C 184.5,247.667 177.5,247.667 170.5,247C 167.896,246.61 165.562,245.776 163.5,244.5C 161.639,242.255 160.639,239.588 160.5,236.5C 168.177,235.131 175.844,233.631 183.5,232C 186.354,230.603 189.02,229.103 191.5,227.5 Z"/></g>
<g><path style="opacity:1" fill="#f19205" d="M 111.5,226.5 C 113.435,227.15 115.435,227.483 117.5,227.5C 120.8,229.642 124.467,230.975 128.5,231.5C 129.5,231.5 130.5,231.5 131.5,231.5C 131.611,232.117 131.944,232.617 132.5,233C 136.351,233.414 140.017,234.248 143.5,235.5C 144.369,237.717 144.702,240.05 144.5,242.5C 143.127,242.343 141.793,242.51 140.5,243C 141.416,243.278 142.082,243.778 142.5,244.5C 132.206,245.427 121.872,245.76 111.5,245.5C 110.508,245.672 109.842,245.338 109.5,244.5C 107.984,242.801 106.984,240.801 106.5,238.5C 106.818,237.353 107.484,236.519 108.5,236C 107.511,234.18 106.511,232.347 105.5,230.5C 106.136,227.206 108.136,225.873 111.5,226.5 Z"/></g>
<g><path style="opacity:1" fill="#e69c2c" d="M 107.5,223.5 C 109.404,223.738 110.738,224.738 111.5,226.5C 108.136,225.873 106.136,227.206 105.5,230.5C 106.511,232.347 107.511,234.18 108.5,236C 107.484,236.519 106.818,237.353 106.5,238.5C 106.984,240.801 107.984,242.801 109.5,244.5C 105.502,242.526 103.502,239.192 103.5,234.5C 103.658,230.354 104.992,226.688 107.5,223.5 Z"/></g>
<g><path style="opacity:1" fill="#b2b008" d="M 131.5,231.5 C 136.76,232.632 142.093,233.299 147.5,233.5C 147.833,234.167 148.167,234.833 148.5,235.5C 146.833,235.5 145.167,235.5 143.5,235.5C 140.017,234.248 136.351,233.414 132.5,233C 131.944,232.617 131.611,232.117 131.5,231.5 Z"/></g>
<g><path style="opacity:1" fill="#a5d75f" d="M 147.5,233.5 C 150.86,233.616 154.193,233.949 157.5,234.5C 157.5,234.833 157.5,235.167 157.5,235.5C 154.346,234.905 151.346,234.905 148.5,235.5C 148.167,234.833 147.833,234.167 147.5,233.5 Z"/></g>
<g><path style="opacity:1" fill="#d9a119" d="M 191.5,227.5 C 189.02,229.103 186.354,230.603 183.5,232C 175.844,233.631 168.177,235.131 160.5,236.5C 160.639,239.588 161.639,242.255 163.5,244.5C 160.261,242.365 158.261,239.365 157.5,235.5C 157.5,235.167 157.5,234.833 157.5,234.5C 161.5,233.833 165.5,233.167 169.5,232.5C 173.509,232.142 177.509,231.642 181.5,231C 184.796,229.489 188.129,228.323 191.5,227.5 Z"/></g>
<g><path style="opacity:0.502" fill="#e7ac56" d="M 201.5,228.5 C 204.065,232.199 204.065,235.865 201.5,239.5C 202.833,235.833 202.833,232.167 201.5,228.5 Z"/></g>
<g><path style="opacity:1" fill="#e89d33" d="M 143.5,235.5 C 145.167,235.5 146.833,235.5 148.5,235.5C 148.209,239.777 146.209,242.777 142.5,244.5C 142.082,243.778 141.416,243.278 140.5,243C 141.793,242.51 143.127,242.343 144.5,242.5C 144.702,240.05 144.369,237.717 143.5,235.5 Z"/></g>
<g><path style="opacity:1" fill="#e4a23c" d="M 142.5,244.5 C 140.852,245.927 138.852,246.76 136.5,247C 133,247.167 129.5,247.333 126,247.5C 120.898,247.707 116.065,247.04 111.5,245.5C 121.872,245.76 132.206,245.427 142.5,244.5 Z"/></g>
</svg>
