<?xml version="1.0" encoding="UTF-8"?>
<!DOCTYPE svg PUBLIC "-//W3C//DTD SVG 1.1//EN" "http://www.w3.org/Graphics/SVG/1.1/DTD/svg11.dtd">
<svg xmlns="http://www.w3.org/2000/svg" version="1.1" width="500px" height="500px" style="shape-rendering:geometricPrecision; text-rendering:geometricPrecision; image-rendering:optimizeQuality; fill-rule:evenodd; clip-rule:evenodd" xmlns:xlink="http://www.w3.org/1999/xlink">
<g><path style="opacity:0.771" fill="#889297" d="M 276.5,72.5 C 270.833,72.5 265.167,72.5 259.5,72.5C 265.075,70.5541 270.741,70.5541 276.5,72.5 Z"/></g>
<g><path style="opacity:0.678" fill="#959da5" d="M 259.5,72.5 C 258.5,74.1667 257.167,75.5 255.5,76.5C 255.833,74.1667 257.167,72.8333 259.5,72.5 Z"/></g>
<g><path style="opacity:1" fill="#3d3d3d" d="M 259.5,72.5 C 265.167,72.5 270.833,72.5 276.5,72.5C 277.5,72.5 278.5,72.5 279.5,72.5C 281.25,73.4732 282.75,74.8065 284,76.5C 284.561,75.9781 285.228,75.6448 286,75.5C 289.573,77.6639 293.407,78.9973 297.5,79.5C 304.964,82.63 311.297,87.2967 316.5,93.5C 316.833,94.5 317.5,95.1667 318.5,95.5C 319.833,95.5 320.5,96.1667 320.5,97.5C 321.08,99.7488 322.413,101.415 324.5,102.5C 324.427,104.027 325.094,105.027 326.5,105.5C 327.605,107.153 327.771,108.82 327,110.5C 328.615,111.386 330.115,112.386 331.5,113.5C 331.5,113.833 331.5,114.167 331.5,114.5C 331.539,115.583 331.873,116.583 332.5,117.5C 335.428,118.484 338.428,118.817 341.5,118.5C 350.569,119.538 358.902,122.538 366.5,127.5C 367.818,131.086 370.485,133.086 374.5,133.5C 375.757,136.427 377.757,138.761 380.5,140.5C 380.427,142.027 381.094,143.027 382.5,143.5C 382.738,145.404 383.738,146.738 385.5,147.5C 386.674,148.514 387.34,149.847 387.5,151.5C 387.427,153.027 388.094,154.027 389.5,154.5C 389.5,154.833 389.5,155.167 389.5,155.5C 389.723,159.162 390.723,162.495 392.5,165.5C 393.451,166.919 393.784,168.585 393.5,170.5C 393.5,193.5 393.5,216.5 393.5,239.5C 388.752,240.709 384.419,242.709 380.5,245.5C 379.833,230.833 379.167,216.167 378.5,201.5C 375.814,180.98 364.147,169.146 343.5,166C 339.833,165.333 336.167,165.333 332.5,166C 323.306,168.238 314.306,170.738 305.5,173.5C 294.21,175.49 282.877,177.156 271.5,178.5C 258.162,179.701 244.828,179.701 231.5,178.5C 231.5,177.5 231.5,176.5 231.5,175.5C 227.798,175.421 224.132,175.754 220.5,176.5C 213.602,174.84 206.602,174.174 199.5,174.5C 199.5,173.5 199.5,172.5 199.5,171.5C 191.312,170.779 183.312,169.279 175.5,167C 172.833,166.333 172.833,165.667 175.5,165C 173.444,164.689 171.444,164.189 169.5,163.5C 161.863,164.236 154.196,164.903 146.5,165.5C 144.162,166.337 141.828,167.17 139.5,168C 138.748,168.671 138.414,169.504 138.5,170.5C 127.353,177.446 120.687,187.446 118.5,200.5C 116.84,213.287 116.007,226.287 116,239.5C 115.439,240.022 114.772,240.355 114,240.5C 111.405,238.854 108.572,238.187 105.5,238.5C 105.5,216.167 105.5,193.833 105.5,171.5C 105.366,169.708 105.699,168.042 106.5,166.5C 108.277,163.495 109.277,160.162 109.5,156.5C 109.5,156.167 109.5,155.833 109.5,155.5C 110.906,155.027 111.573,154.027 111.5,152.5C 111.557,151.391 111.89,150.391 112.5,149.5C 113.906,149.027 114.573,148.027 114.5,146.5C 114.738,144.596 115.738,143.262 117.5,142.5C 118.906,142.027 119.573,141.027 119.5,139.5C 125.178,137.332 130.178,134.165 134.5,130C 134.167,129.667 133.833,129.333 133.5,129C 135.705,127.573 137.872,127.073 140,127.5C 141.585,126.624 142.585,125.291 143,123.5C 144.133,125.211 145.633,125.711 147.5,125C 146.833,124.667 146.167,124.333 145.5,124C 147.027,122.968 148.36,121.801 149.5,120.5C 152.219,119.087 155.219,118.42 158.5,118.5C 160.857,118.663 163.19,118.497 165.5,118C 164.956,117.283 164.289,116.783 163.5,116.5C 157.631,111.894 156.297,106.227 159.5,99.5C 161.5,98.1667 163.167,96.5 164.5,94.5C 166.027,94.573 167.027,93.9063 167.5,92.5C 167.842,91.6618 168.508,91.3284 169.5,91.5C 171.541,91.1459 173.374,91.1459 175,91.5C 177.071,89.5625 179.238,87.8959 181.5,86.5C 182.568,85.5655 183.901,85.2322 185.5,85.5C 189.479,85.2576 193.146,84.2576 196.5,82.5C 207.535,79.9077 218.535,79.9077 229.5,82.5C 230.868,83.3063 232.201,84.3063 233.5,85.5C 235.409,84.6518 237.409,84.3184 239.5,84.5C 241.515,85.9238 243.848,86.5905 246.5,86.5C 247.469,87.3094 248.302,88.3094 249,89.5C 250.011,88.6634 251.178,88.33 252.5,88.5C 254.399,90.9985 255.733,90.8319 256.5,88C 255.69,84.2079 255.356,80.3745 255.5,76.5C 257.167,75.5 258.5,74.1667 259.5,72.5 Z"/></g>
<g><path style="opacity:1" fill="#767e82" d="M 279.5,72.5 C 286.037,73.6748 292.037,76.0081 297.5,79.5C 293.407,78.9973 289.573,77.6639 286,75.5C 285.228,75.6448 284.561,75.9781 284,76.5C 282.75,74.8065 281.25,73.4732 279.5,72.5 Z"/></g>
<g><path style="opacity:0.835" fill="#95a1a6" d="M 255.5,76.5 C 255.356,80.3745 255.69,84.2079 256.5,88C 255.733,90.8319 254.399,90.9985 252.5,88.5C 253.675,88.719 254.675,88.3857 255.5,87.5C 253.034,83.6549 253.034,79.9883 255.5,76.5 Z"/></g>
<g><path style="opacity:0.776" fill="#8a989d" d="M 196.5,82.5 C 193.146,84.2576 189.479,85.2576 185.5,85.5C 188.854,83.7424 192.521,82.7424 196.5,82.5 Z"/></g>
<g><path style="opacity:1" fill="#798184" d="M 229.5,82.5 C 233.122,82.322 236.456,82.9886 239.5,84.5C 237.409,84.3184 235.409,84.6518 233.5,85.5C 232.201,84.3063 230.868,83.3063 229.5,82.5 Z"/></g>
<g><path style="opacity:0.024" fill="#acb4c5" d="M 239.5,84.5 C 242.152,84.4095 244.485,85.0762 246.5,86.5C 243.848,86.5905 241.515,85.9238 239.5,84.5 Z"/></g>
<g><path style="opacity:1" fill="#7d888b" d="M 246.5,86.5 C 248.786,86.595 250.786,87.2616 252.5,88.5C 251.178,88.33 250.011,88.6634 249,89.5C 248.302,88.3094 247.469,87.3094 246.5,86.5 Z"/></g>
<g><path style="opacity:1" fill="#626c70" d="M 181.5,86.5 C 179.238,87.8959 177.071,89.5625 175,91.5C 173.374,91.1459 171.541,91.1459 169.5,91.5C 173.064,89.081 177.064,87.4144 181.5,86.5 Z"/></g>
<g><path style="opacity:0.714" fill="#9ba7ab" d="M 167.5,92.5 C 167.027,93.9063 166.027,94.573 164.5,94.5C 164.973,93.0937 165.973,92.427 167.5,92.5 Z"/></g>
<g><path style="opacity:0.004" fill="#c9d1d4" d="M 316.5,93.5 C 317.833,93.5 318.5,94.1667 318.5,95.5C 317.5,95.1667 316.833,94.5 316.5,93.5 Z"/></g>
<g><path style="opacity:0.616" fill="#9da9b0" d="M 164.5,94.5 C 163.167,96.5 161.5,98.1667 159.5,99.5C 160.167,96.8333 161.833,95.1667 164.5,94.5 Z"/></g>
<g><path style="opacity:0.804" fill="#95a5a9" d="M 320.5,97.5 C 322.587,98.5846 323.92,100.251 324.5,102.5C 322.413,101.415 321.08,99.7488 320.5,97.5 Z"/></g>
<g><path style="opacity:0.427" fill="#9dafb3" d="M 324.5,102.5 C 325.906,102.973 326.573,103.973 326.5,105.5C 325.094,105.027 324.427,104.027 324.5,102.5 Z"/></g>
<g><path style="opacity:1" fill="#6f787c" d="M 326.5,105.5 C 328.664,107.822 330.331,110.489 331.5,113.5C 330.115,112.386 328.615,111.386 327,110.5C 327.771,108.82 327.605,107.153 326.5,105.5 Z"/></g>
<g><path style="opacity:0.11" fill="#ccdddd" d="M 163.5,116.5 C 164.289,116.783 164.956,117.283 165.5,118C 163.19,118.497 160.857,118.663 158.5,118.5C 160.167,117.833 161.833,117.167 163.5,116.5 Z"/></g>
<g><path style="opacity:0.094" fill="#cad6db" d="M 331.5,114.5 C 334.47,116.742 337.803,118.076 341.5,118.5C 338.428,118.817 335.428,118.484 332.5,117.5C 331.873,116.583 331.539,115.583 331.5,114.5 Z"/></g>
<g><path style="opacity:0.722" fill="#95a1ab" d="M 138.5,124.5 C 138.027,125.906 137.027,126.573 135.5,126.5C 135.973,125.094 136.973,124.427 138.5,124.5 Z"/></g>
<g><path style="opacity:1" fill="#757e82" d="M 366.5,127.5 C 369.473,129.147 372.14,131.147 374.5,133.5C 370.485,133.086 367.818,131.086 366.5,127.5 Z"/></g>
<g><path style="opacity:0.702" fill="#909fa3" d="M 129.5,130.5 C 129.027,131.906 128.027,132.573 126.5,132.5C 126.973,131.094 127.973,130.427 129.5,130.5 Z"/></g>
<g><path style="opacity:1" fill="#4a5154" d="M 149.5,120.5 C 148.36,121.801 147.027,122.968 145.5,124C 146.167,124.333 146.833,124.667 147.5,125C 145.633,125.711 144.133,125.211 143,123.5C 142.585,125.291 141.585,126.624 140,127.5C 137.872,127.073 135.705,127.573 133.5,129C 133.833,129.333 134.167,129.667 134.5,130C 130.178,134.165 125.178,137.332 119.5,139.5C 121.5,136.833 123.833,134.5 126.5,132.5C 128.027,132.573 129.027,131.906 129.5,130.5C 130.802,128.178 132.802,126.845 135.5,126.5C 137.027,126.573 138.027,125.906 138.5,124.5C 141.8,122.358 145.467,121.025 149.5,120.5 Z"/></g>
<g><path style="opacity:0.588" fill="#aab6bd" d="M 374.5,133.5 C 377.243,135.239 379.243,137.573 380.5,140.5C 377.757,138.761 375.757,136.427 374.5,133.5 Z"/></g>
<g><path style="opacity:0.427" fill="#afb7bb" d="M 119.5,139.5 C 119.573,141.027 118.906,142.027 117.5,142.5C 117.427,140.973 118.094,139.973 119.5,139.5 Z"/></g>
<g><path style="opacity:0.765" fill="#8b969b" d="M 380.5,140.5 C 381.906,140.973 382.573,141.973 382.5,143.5C 381.094,143.027 380.427,142.027 380.5,140.5 Z"/></g>
<g><path style="opacity:0.678" fill="#8a9ca1" d="M 382.5,143.5 C 384.262,144.262 385.262,145.596 385.5,147.5C 383.738,146.738 382.738,145.404 382.5,143.5 Z"/></g>
<g><path style="opacity:0.192" fill="#c1cbd1" d="M 114.5,146.5 C 114.573,148.027 113.906,149.027 112.5,149.5C 112.427,147.973 113.094,146.973 114.5,146.5 Z"/></g>
<g><path style="opacity:0.192" fill="#bcc7cb" d="M 387.5,151.5 C 388.906,151.973 389.573,152.973 389.5,154.5C 388.094,154.027 387.427,153.027 387.5,151.5 Z"/></g>
<g><path style="opacity:0.204" fill="#b7c3c7" d="M 111.5,152.5 C 111.573,154.027 110.906,155.027 109.5,155.5C 109.427,153.973 110.094,152.973 111.5,152.5 Z"/></g>
<g><path style="opacity:0.914" fill="#8f9aa1" d="M 389.5,155.5 C 391.605,158.408 392.605,161.742 392.5,165.5C 390.723,162.495 389.723,159.162 389.5,155.5 Z"/></g>
<g><path style="opacity:0.957" fill="#818c90" d="M 109.5,156.5 C 109.277,160.162 108.277,163.495 106.5,166.5C 106.723,162.838 107.723,159.505 109.5,156.5 Z"/></g>
<g><path style="opacity:1" fill="#4a4138" d="M 199.5,174.5 C 191.398,173.261 183.398,171.595 175.5,169.5C 163.126,163.974 150.793,164.308 138.5,170.5C 138.414,169.504 138.748,168.671 139.5,168C 141.828,167.17 144.162,166.337 146.5,165.5C 154.196,164.903 161.863,164.236 169.5,163.5C 171.444,164.189 173.444,164.689 175.5,165C 172.833,165.667 172.833,166.333 175.5,167C 183.312,169.279 191.312,170.779 199.5,171.5C 199.5,172.5 199.5,173.5 199.5,174.5 Z"/></g>
<g><path style="opacity:1" fill="#fecba3" d="M 378.5,201.5 C 378.167,216.515 378.501,231.515 379.5,246.5C 380.107,246.376 380.44,246.043 380.5,245.5C 384.419,242.709 388.752,240.709 393.5,239.5C 397.833,239.5 402.167,239.5 406.5,239.5C 406.833,239.5 407.167,239.5 407.5,239.5C 408.028,240.721 408.695,241.887 409.5,243C 413.299,243.235 416.632,244.568 419.5,247C 421.038,248.932 422.205,251.099 423,253.5C 423.816,254.823 424.983,255.489 426.5,255.5C 427.338,255.842 427.672,256.508 427.5,257.5C 428.96,265.905 428.626,274.238 426.5,282.5C 423.675,285.216 420.675,287.716 417.5,290C 414.527,290.105 411.527,289.938 408.5,289.5C 405.638,289.77 402.972,290.604 400.5,292C 399.62,293.356 399.286,294.856 399.5,296.5C 396.918,296.025 394.918,296.692 393.5,298.5C 393.5,317.833 393.5,337.167 393.5,356.5C 393.5,357.167 393.5,357.833 393.5,358.5C 391.156,366.514 388.489,374.514 385.5,382.5C 385.5,382.833 385.5,383.167 385.5,383.5C 382.276,386.218 379.109,389.218 376,392.5C 375.517,393.448 375.351,394.448 375.5,395.5C 373.363,398.973 370.363,401.306 366.5,402.5C 362.562,402.635 359.228,404.135 356.5,407C 352.39,408.515 348.39,410.015 344.5,411.5C 330.167,411.5 315.833,411.5 301.5,411.5C 252.832,411.667 204.166,411.5 155.5,411C 152.924,409.878 150.257,408.878 147.5,408C 146.929,406.795 146.262,405.628 145.5,404.5C 143.568,405.52 141.568,405.687 139.5,405C 131.4,399.567 123.9,393.4 117,386.5C 116.71,384.048 116.044,381.715 115,379.5C 112.741,377.754 111.408,375.42 111,372.5C 110.329,371.748 109.496,371.414 108.5,371.5C 106.302,347.691 105.968,323.858 107.5,300C 107.164,298.97 106.497,298.47 105.5,298.5C 101.018,297.674 96.3514,297.174 91.5,297C 87.8092,294.319 83.8092,292.485 79.5,291.5C 76.8769,288.167 74.7102,284.5 73,280.5C 72.3458,275.639 71.5125,270.806 70.5,266C 70.6843,263.135 71.0177,260.302 71.5,257.5C 73.0571,252.294 76.0571,248.294 80.5,245.5C 81.8734,245.657 83.2068,245.49 84.5,245C 88.0218,241.243 92.3551,239.743 97.5,240.5C 99.8333,240.667 102.167,240.833 104.5,241C 108.867,242.4 113.201,243.9 117.5,245.5C 117.833,245.5 118.167,245.5 118.5,245.5C 119.725,244.063 120.725,242.396 121.5,240.5C 120.352,226.879 120.185,213.212 121,199.5C 122.612,195.534 124.279,195.534 126,199.5C 126.232,196.252 125.399,193.252 123.5,190.5C 123.919,189.328 124.585,188.328 125.5,187.5C 133.725,191.221 139.058,188.721 141.5,180C 141.357,177.849 140.357,176.182 138.5,175C 140.754,174.376 142.421,173.043 143.5,171C 145.235,170.349 146.902,170.515 148.5,171.5C 152.057,168.307 156.223,166.974 161,167.5C 165.817,168.414 170.65,169.081 175.5,169.5C 183.398,171.595 191.398,173.261 199.5,174.5C 212.508,177.796 225.841,179.796 239.5,180.5C 239.918,181.222 240.584,181.722 241.5,182C 246.553,182.217 251.553,182.717 256.5,183.5C 259.07,182.366 261.736,181.532 264.5,181C 270.683,180.677 276.85,180.177 283,179.5C 287.131,181.678 290.298,180.845 292.5,177C 295.833,176.667 299.167,176.333 302.5,176C 303.571,175.148 304.571,174.315 305.5,173.5C 314.306,170.738 323.306,168.238 332.5,166C 336.167,165.333 339.833,165.333 343.5,166C 364.147,169.146 375.814,180.98 378.5,201.5 Z"/></g>
<g><path style="opacity:1" fill="#f3c6a3" d="M 175.5,169.5 C 170.65,169.081 165.817,168.414 161,167.5C 156.223,166.974 152.057,168.307 148.5,171.5C 146.902,170.515 145.235,170.349 143.5,171C 142.421,173.043 140.754,174.376 138.5,175C 140.357,176.182 141.357,177.849 141.5,180C 139.058,188.721 133.725,191.221 125.5,187.5C 124.585,188.328 123.919,189.328 123.5,190.5C 125.399,193.252 126.232,196.252 126,199.5C 124.279,195.534 122.612,195.534 121,199.5C 120.185,213.212 120.352,226.879 121.5,240.5C 120.725,242.396 119.725,244.063 118.5,245.5C 118.5,230.5 118.5,215.5 118.5,200.5C 120.687,187.446 127.353,177.446 138.5,170.5C 150.793,164.308 163.126,163.974 175.5,169.5 Z"/></g>
<g><path style="opacity:1" fill="#4c4239" d="M 199.5,174.5 C 206.602,174.174 213.602,174.84 220.5,176.5C 224.132,175.754 227.798,175.421 231.5,175.5C 231.5,176.5 231.5,177.5 231.5,178.5C 244.828,179.701 258.162,179.701 271.5,178.5C 261.046,180.143 250.379,180.81 239.5,180.5C 225.841,179.796 212.508,177.796 199.5,174.5 Z"/></g>
<g><path style="opacity:0.231" fill="#bcc9cd" d="M 393.5,170.5 C 394.497,192.994 394.831,215.661 394.5,238.5C 398.702,238.183 402.702,238.517 406.5,239.5C 402.167,239.5 397.833,239.5 393.5,239.5C 393.5,216.5 393.5,193.5 393.5,170.5 Z"/></g>
<g><path style="opacity:1" fill="#eac3a3" d="M 305.5,173.5 C 304.571,174.315 303.571,175.148 302.5,176C 299.167,176.333 295.833,176.667 292.5,177C 290.298,180.845 287.131,181.678 283,179.5C 276.85,180.177 270.683,180.677 264.5,181C 261.736,181.532 259.07,182.366 256.5,183.5C 251.553,182.717 246.553,182.217 241.5,182C 240.584,181.722 239.918,181.222 239.5,180.5C 250.379,180.81 261.046,180.143 271.5,178.5C 282.877,177.156 294.21,175.49 305.5,173.5 Z"/></g>
<g><path style="opacity:1" fill="#997c64" d="M 378.5,201.5 C 379.167,216.167 379.833,230.833 380.5,245.5C 380.44,246.043 380.107,246.376 379.5,246.5C 378.501,231.515 378.167,216.515 378.5,201.5 Z"/></g>
<g><path style="opacity:0.078" fill="#d1dde1" d="M 105.5,171.5 C 105.5,193.833 105.5,216.167 105.5,238.5C 105.5,238.833 105.5,239.167 105.5,239.5C 101.167,239.5 96.8333,239.5 92.5,239.5C 96.2984,238.517 100.298,238.183 104.5,238.5C 104.169,215.994 104.503,193.66 105.5,171.5 Z"/></g>
<g><path style="opacity:1" fill="#4f4138" d="M 118.5,200.5 C 118.5,215.5 118.5,230.5 118.5,245.5C 118.167,245.5 117.833,245.5 117.5,245.5C 114.053,242.562 110.053,240.562 105.5,239.5C 105.5,239.167 105.5,238.833 105.5,238.5C 108.572,238.187 111.405,238.854 114,240.5C 114.772,240.355 115.439,240.022 116,239.5C 116.007,226.287 116.84,213.287 118.5,200.5 Z"/></g>
<g><path style="opacity:1" fill="#f6d3b8" d="M 226.5,216.5 C 204.706,204.118 186.706,208.118 172.5,228.5C 172.491,226.692 172.991,225.025 174,223.5C 179.16,215.769 186.327,210.935 195.5,209C 204.816,207.628 213.816,208.628 222.5,212C 224.384,213.049 225.718,214.549 226.5,216.5 Z"/></g>
<g><path style="opacity:1" fill="#fdfdfc" d="M 226.5,216.5 C 228.795,219.297 231.295,221.964 234,224.5C 235.542,228.086 237.375,231.419 239.5,234.5C 239.667,248.171 239.5,261.837 239,275.5C 237.281,281.268 234.781,286.602 231.5,291.5C 223.833,298.576 214.666,302.576 204,303.5C 185.628,302.131 174.295,292.464 170,274.5C 169.333,261.5 169.333,248.5 170,235.5C 171.144,233.291 171.977,230.957 172.5,228.5C 186.706,208.118 204.706,204.118 226.5,216.5 Z"/></g>
<g><path style="opacity:1" fill="#fdfdfc" d="M 327.5,231.5 C 329.516,246.082 330.016,260.748 329,275.5C 327.567,281.698 324.567,287.031 320,291.5C 319.517,292.448 319.351,293.448 319.5,294.5C 309.909,301.231 299.243,304.065 287.5,303C 272.153,298.984 262.986,289.151 260,273.5C 259.333,260.833 259.333,248.167 260,235.5C 267.15,214.831 281.65,206.331 303.5,210C 314.584,213.927 322.584,221.093 327.5,231.5 Z"/></g>
<g><path style="opacity:1" fill="#fbcfab" d="M 327.5,231.5 C 329.89,233.734 331.724,236.401 333,239.5C 333.223,248.195 333.723,256.861 334.5,265.5C 333.883,268.355 332.883,271.022 331.5,273.5C 333.194,276.664 333.694,279.998 333,283.5C 331.853,284.458 330.853,284.125 330,282.5C 329.25,283.126 328.416,283.626 327.5,284C 325.709,288.036 323.542,291.869 321,295.5C 320.617,294.944 320.117,294.611 319.5,294.5C 319.351,293.448 319.517,292.448 320,291.5C 324.567,287.031 327.567,281.698 329,275.5C 330.016,260.748 329.516,246.082 327.5,231.5 Z"/></g>
<g><path style="opacity:1" fill="#3f3f3f" d="M 212.5,235.5 C 228.263,235.626 234.597,243.626 231.5,259.5C 234.039,272.452 229.039,280.452 216.5,283.5C 208.994,282.671 204.16,278.671 202,271.5C 201.501,265.509 201.334,259.509 201.5,253.5C 211.286,251.265 214.952,245.265 212.5,235.5 Z"/></g>
<g><path style="opacity:1" fill="#3f3f3f" d="M 278.5,235.5 C 286.874,234.77 293.041,238.104 297,245.5C 297.667,254.167 297.667,262.833 297,271.5C 292.813,282.51 285.313,285.677 274.5,281C 271.131,278.635 268.964,275.468 268,271.5C 267.501,265.509 267.334,259.509 267.5,253.5C 277.28,251.279 280.946,245.279 278.5,235.5 Z"/></g>
<g><path style="opacity:1" fill="#f0cdb2" d="M 92.5,239.5 C 96.8333,239.5 101.167,239.5 105.5,239.5C 110.053,240.562 114.053,242.562 117.5,245.5C 113.201,243.9 108.867,242.4 104.5,241C 102.167,240.833 99.8333,240.667 97.5,240.5C 92.3551,239.743 88.0218,241.243 84.5,245C 83.2068,245.49 81.8734,245.657 80.5,245.5C 83.65,241.925 87.65,239.925 92.5,239.5 Z"/></g>
<g><path style="opacity:1" fill="#f1d9c5" d="M 407.5,239.5 C 416.476,241.805 422.809,247.138 426.5,255.5C 424.983,255.489 423.816,254.823 423,253.5C 422.205,251.099 421.038,248.932 419.5,247C 416.632,244.568 413.299,243.235 409.5,243C 408.695,241.887 408.028,240.721 407.5,239.5 Z"/></g>
<g><path style="opacity:1" fill="#f9d4b8" d="M 239.5,234.5 C 240.661,248.994 240.828,263.661 240,278.5C 238.241,282.009 237.074,285.675 236.5,289.5C 234.486,289.392 232.82,290.058 231.5,291.5C 234.781,286.602 237.281,281.268 239,275.5C 239.5,261.837 239.667,248.171 239.5,234.5 Z"/></g>
<g><path style="opacity:0.935" fill="#f0dccb" d="M 427.5,257.5 C 431.668,265.996 431.335,274.33 426.5,282.5C 428.626,274.238 428.96,265.905 427.5,257.5 Z"/></g>
<g><path style="opacity:1" fill="#f2d9c2" d="M 71.5,257.5 C 71.0177,260.302 70.6843,263.135 70.5,266C 71.5125,270.806 72.3458,275.639 73,280.5C 74.7102,284.5 76.8769,288.167 79.5,291.5C 72.3855,285.601 68.7189,277.934 68.5,268.5C 68.7651,264.494 69.7651,260.827 71.5,257.5 Z"/></g>
<g><path style="opacity:1" fill="#f8cfae" d="M 426.5,282.5 C 422.285,292.039 414.952,297.373 404.5,298.5C 400.833,298.5 397.167,298.5 393.5,298.5C 394.918,296.692 396.918,296.025 399.5,296.5C 399.286,294.856 399.62,293.356 400.5,292C 402.972,290.604 405.638,289.77 408.5,289.5C 411.527,289.938 414.527,290.105 417.5,290C 420.675,287.716 423.675,285.216 426.5,282.5 Z"/></g>
<g><path style="opacity:1" fill="#eed7c2" d="M 79.5,291.5 C 83.8092,292.485 87.8092,294.319 91.5,297C 96.3514,297.174 101.018,297.674 105.5,298.5C 101.833,298.5 98.1667,298.5 94.5,298.5C 88.5707,298.034 83.5707,295.701 79.5,291.5 Z"/></g>
<g><path style="opacity:1" fill="#eea178" d="M 248.5,286.5 C 250.371,286.859 251.871,287.859 253,289.5C 255.63,294.725 258.63,299.725 262,304.5C 267.304,318.117 262.804,326.117 248.5,328.5C 239.232,328.066 234.565,323.232 234.5,314C 237.145,303.879 241.811,294.712 248.5,286.5 Z"/></g>
<g><path style="opacity:0.989" fill="#efd4bc" d="M 105.5,298.5 C 106.497,298.47 107.164,298.97 107.5,300C 105.968,323.858 106.302,347.691 108.5,371.5C 106.053,366.562 105.053,361.228 105.5,355.5C 105.5,336.5 105.5,317.5 105.5,298.5 Z"/></g>
<g><path style="opacity:0.051" fill="#ededec" d="M 94.5,298.5 C 98.1667,298.5 101.833,298.5 105.5,298.5C 105.5,317.5 105.5,336.5 105.5,355.5C 104.503,337.007 104.17,318.341 104.5,299.5C 100.958,299.813 97.6248,299.479 94.5,298.5 Z"/></g>
<g><path style="opacity:0.062" fill="#ecebea" d="M 393.5,298.5 C 397.167,298.5 400.833,298.5 404.5,298.5C 401.375,299.479 398.042,299.813 394.5,299.5C 394.83,318.674 394.497,337.674 393.5,356.5C 393.5,337.167 393.5,317.833 393.5,298.5 Z"/></g>
<g><path style="opacity:1" fill="#eca57c" d="M 227.5,351.5 C 231.182,351.665 234.848,351.499 238.5,351C 240.168,349.313 242.001,349.146 244,350.5C 247.043,349.263 248.21,346.93 247.5,343.5C 239.412,344.877 231.412,344.377 223.5,342C 215.179,337.837 207.512,332.67 200.5,326.5C 197.918,326.747 197.085,328.08 198,330.5C 198.687,333.426 200.52,334.759 203.5,334.5C 203.883,339.258 205.883,340.258 209.5,337.5C 211.111,338.32 211.778,339.654 211.5,341.5C 209.058,341.354 208.391,342.187 209.5,344C 211.167,344.333 212.833,344.667 214.5,345C 218.556,347.105 222.556,349.272 226.5,351.5C 211.649,349.466 201.315,341.632 195.5,328C 195.813,324.689 197.647,323.189 201,323.5C 205.534,325.856 209.367,329.189 212.5,333.5C 223.096,340.165 234.763,342.998 247.5,342C 250.059,344.925 250.059,347.925 247.5,351C 240.737,352.726 234.07,352.893 227.5,351.5 Z"/></g>
<g><path style="opacity:1" fill="#ef9f76" d="M 227.5,351.5 C 227.167,351.5 226.833,351.5 226.5,351.5C 222.556,349.272 218.556,347.105 214.5,345C 212.833,344.667 211.167,344.333 209.5,344C 208.391,342.187 209.058,341.354 211.5,341.5C 211.778,339.654 211.111,338.32 209.5,337.5C 205.883,340.258 203.883,339.258 203.5,334.5C 200.52,334.759 198.687,333.426 198,330.5C 197.085,328.08 197.918,326.747 200.5,326.5C 207.512,332.67 215.179,337.837 223.5,342C 231.412,344.377 239.412,344.877 247.5,343.5C 248.21,346.93 247.043,349.263 244,350.5C 242.001,349.146 240.168,349.313 238.5,351C 234.848,351.499 231.182,351.665 227.5,351.5 Z"/></g>
<g><path style="opacity:0.051" fill="#ede2d3" d="M 393.5,358.5 C 392.996,367.346 390.329,375.346 385.5,382.5C 388.489,374.514 391.156,366.514 393.5,358.5 Z"/></g>
<g><path style="opacity:0.2" fill="#efdfd2" d="M 385.5,383.5 C 383.109,388.279 379.776,392.279 375.5,395.5C 375.351,394.448 375.517,393.448 376,392.5C 379.109,389.218 382.276,386.218 385.5,383.5 Z"/></g>
<g><path style="opacity:1" fill="#ebd0ba" d="M 108.5,371.5 C 109.496,371.414 110.329,371.748 111,372.5C 111.408,375.42 112.741,377.754 115,379.5C 116.044,381.715 116.71,384.048 117,386.5C 123.9,393.4 131.4,399.567 139.5,405C 141.568,405.687 143.568,405.52 145.5,404.5C 146.262,405.628 146.929,406.795 147.5,408C 150.257,408.878 152.924,409.878 155.5,411C 204.166,411.5 252.832,411.667 301.5,411.5C 301.5,411.833 301.5,412.167 301.5,412.5C 265.945,411.85 230.612,412.517 195.5,414.5C 181.982,413.785 168.315,412.952 154.5,412C 131.471,407.133 116.138,393.633 108.5,371.5 Z"/></g>
<g><path style="opacity:0.624" fill="#eeddce" d="M 366.5,402.5 C 360.14,407.674 352.807,410.674 344.5,411.5C 348.39,410.015 352.39,408.515 356.5,407C 359.228,404.135 362.562,402.635 366.5,402.5 Z"/></g>
<g><path style="opacity:0.9" fill="#f3e4cf" d="M 301.5,411.5 C 315.833,411.5 330.167,411.5 344.5,411.5C 330.534,412.984 316.534,413.984 302.5,414.5C 301.662,414.158 301.328,413.492 301.5,412.5C 301.5,412.167 301.5,411.833 301.5,411.5 Z"/></g>
<g><path style="opacity:1" fill="#424242" d="M 301.5,412.5 C 301.328,413.492 301.662,414.158 302.5,414.5C 302.338,416.527 302.505,418.527 303,420.5C 305.109,421.035 305.609,422.035 304.5,423.5C 305.949,425.611 306.949,427.944 307.5,430.5C 309.978,431.722 310.978,433.722 310.5,436.5C 311.5,436.5 312.5,436.5 313.5,436.5C 316.008,440.182 318.008,444.182 319.5,448.5C 319.427,450.027 320.094,451.027 321.5,451.5C 321.678,454.216 322.178,456.883 323,459.5C 323.77,458.402 324.603,458.402 325.5,459.5C 325.352,466.73 328.019,472.396 333.5,476.5C 333.025,479.313 334.025,481.313 336.5,482.5C 336.5,482.833 336.5,483.167 336.5,483.5C 336.427,485.027 337.094,486.027 338.5,486.5C 338.025,489.313 339.025,491.313 341.5,492.5C 341.4,495.108 342.067,497.442 343.5,499.5C 279.833,499.5 216.167,499.5 152.5,499.5C 153.596,496.968 154.929,494.635 156.5,492.5C 158.132,491.092 159.798,489.592 161.5,488C 161.146,486.374 161.146,484.541 161.5,482.5C 164.355,480.719 165.688,478.052 165.5,474.5C 167.659,468.849 170.326,463.516 173.5,458.5C 174.973,457.928 176.307,457.095 177.5,456C 177.167,455.667 176.833,455.333 176.5,455C 178.016,453.103 178.683,450.936 178.5,448.5C 179.833,448.5 181.167,448.5 182.5,448.5C 184.117,442.47 185.783,436.47 187.5,430.5C 189.969,429.393 190.969,427.393 190.5,424.5C 191.659,420.849 193.326,417.515 195.5,414.5C 230.612,412.517 265.945,411.85 301.5,412.5 Z"/></g>
<g><path style="opacity:1" fill="#7b8386" d="M 190.5,424.5 C 190.969,427.393 189.969,429.393 187.5,430.5C 187.992,428.181 188.992,426.181 190.5,424.5 Z"/></g>
<g><path style="opacity:1" fill="#575d62" d="M 302.5,414.5 C 306.675,421.516 310.341,428.849 313.5,436.5C 312.5,436.5 311.5,436.5 310.5,436.5C 310.978,433.722 309.978,431.722 307.5,430.5C 306.949,427.944 305.949,425.611 304.5,423.5C 305.609,422.035 305.109,421.035 303,420.5C 302.505,418.527 302.338,416.527 302.5,414.5 Z"/></g>
<g><path style="opacity:1" fill="#5a6367" d="M 187.5,430.5 C 185.783,436.47 184.117,442.47 182.5,448.5C 181.167,448.5 179.833,448.5 178.5,448.5C 180.992,442.182 183.992,436.182 187.5,430.5 Z"/></g>
<g><path style="opacity:0.212" fill="#abc3c9" d="M 319.5,448.5 C 320.906,448.973 321.573,449.973 321.5,451.5C 320.094,451.027 319.427,450.027 319.5,448.5 Z"/></g>
<g><path style="opacity:1" fill="#757d81" d="M 178.5,448.5 C 178.683,450.936 178.016,453.103 176.5,455C 176.833,455.333 177.167,455.667 177.5,456C 176.307,457.095 174.973,457.928 173.5,458.5C 174.659,454.849 176.326,451.515 178.5,448.5 Z"/></g>
<g><path style="opacity:1" fill="#7e878b" d="M 321.5,451.5 C 323.341,453.849 324.674,456.515 325.5,459.5C 324.603,458.402 323.77,458.402 323,459.5C 322.178,456.883 321.678,454.216 321.5,451.5 Z"/></g>
<g><path style="opacity:1" fill="#5d666a" d="M 325.5,459.5 C 328.923,464.747 331.589,470.413 333.5,476.5C 328.019,472.396 325.352,466.73 325.5,459.5 Z"/></g>
<g><path style="opacity:1" fill="#778489" d="M 165.5,474.5 C 165.688,478.052 164.355,480.719 161.5,482.5C 162.326,479.515 163.659,476.849 165.5,474.5 Z"/></g>
<g><path style="opacity:1" fill="#8b9499" d="M 333.5,476.5 C 334.492,478.456 335.492,480.456 336.5,482.5C 334.025,481.313 333.025,479.313 333.5,476.5 Z"/></g>
<g><path style="opacity:0.227" fill="#b1bdc3" d="M 336.5,483.5 C 337.906,483.973 338.573,484.973 338.5,486.5C 337.094,486.027 336.427,485.027 336.5,483.5 Z"/></g>
<g><path style="opacity:0.999" fill="#768084" d="M 161.5,482.5 C 161.146,484.541 161.146,486.374 161.5,488C 159.798,489.592 158.132,491.092 156.5,492.5C 157.659,488.849 159.326,485.515 161.5,482.5 Z"/></g>
<g><path style="opacity:0.992" fill="#839297" d="M 338.5,486.5 C 339.492,488.456 340.492,490.456 341.5,492.5C 339.025,491.313 338.025,489.313 338.5,486.5 Z"/></g>
<g><path style="opacity:0.988" fill="#88959a" d="M 341.5,492.5 C 342.912,494.604 343.912,496.937 344.5,499.5C 344.167,499.5 343.833,499.5 343.5,499.5C 342.067,497.442 341.4,495.108 341.5,492.5 Z"/></g>
</svg>
