<?xml version="1.0" encoding="UTF-8"?>
<!DOCTYPE svg PUBLIC "-//W3C//DTD SVG 1.1//EN" "http://www.w3.org/Graphics/SVG/1.1/DTD/svg11.dtd">
<svg xmlns="http://www.w3.org/2000/svg" version="1.1" width="538px" height="464px" style="shape-rendering:geometricPrecision; text-rendering:geometricPrecision; image-rendering:optimizeQuality; fill-rule:evenodd; clip-rule:evenodd" xmlns:xlink="http://www.w3.org/1999/xlink">
<g><path style="opacity:0.341" fill="#576178" d="M 64.5,14.5 C 59.7971,14.4372 55.1304,14.7705 50.5,15.5C 53.0169,14.027 55.8502,13.3603 59,13.5C 61.0326,13.5056 62.866,13.8389 64.5,14.5 Z"/></g>
<g><path style="opacity:1" fill="#9fb2ce" d="M 344.5,35.5 C 344.871,39.205 346.871,41.205 350.5,41.5C 350.36,43.1238 351.027,44.2904 352.5,45C 355.817,45.4983 359.15,45.665 362.5,45.5C 361.197,52.332 362.864,58.1654 367.5,63C 381.595,66.7493 387.928,61.2493 386.5,46.5C 387.5,46.5 388.5,46.5 389.5,46.5C 393.747,46.8222 397.747,45.9889 401.5,44C 413.28,37.8921 425.28,32.2254 437.5,27C 445.721,25.7224 449.054,29.2224 447.5,37.5C 445.935,51.475 445.102,65.475 445,79.5C 451.189,86.1768 456.356,93.5101 460.5,101.5C 460.244,103.792 460.577,105.959 461.5,108C 460.584,108.374 459.75,108.874 459,109.5C 451.499,108.087 443.999,108.253 436.5,110C 431.28,114.916 430.113,120.75 433,127.5C 437.342,130.505 442.175,132.338 447.5,133C 455.471,133.998 463.471,134.665 471.5,135C 470.833,135.333 470.167,135.667 469.5,136C 470.762,139.669 472.762,142.836 475.5,145.5C 487.849,165.519 497.516,186.853 504.5,209.5C 502.251,223.019 494.417,231.019 481,233.5C 470.632,232.406 463.465,227.072 459.5,217.5C 459.167,216.167 458.833,214.833 458.5,213.5C 454.824,200.64 450.658,187.974 446,175.5C 444.954,173.91 443.787,172.41 442.5,171C 438.5,170.667 434.5,170.333 430.5,170C 430.833,169.667 431.167,169.333 431.5,169C 424.842,168.5 418.175,168.334 411.5,168.5C 427.012,146.629 423.012,129.462 399.5,117C 392.693,115.589 386.026,115.423 379.5,116.5C 379.5,116.833 379.5,117.167 379.5,117.5C 378.833,117.5 378.167,117.5 377.5,117.5C 376.884,115.583 375.55,114.416 373.5,114C 368.511,113.501 363.511,113.334 358.5,113.5C 357.048,112.698 355.382,112.198 353.5,112C 337.224,107.758 323.724,111.924 313,124.5C 310.078,129.728 308.911,135.395 309.5,141.5C 308.424,148.078 310.091,153.745 314.5,158.5C 309.13,158.608 303.797,158.275 298.5,157.5C 293.702,178.921 290.535,200.587 289,222.5C 284.493,232.606 276.66,237.106 265.5,236C 256.97,234.474 251.137,229.641 248,221.5C 246.527,196.813 248.693,172.48 254.5,148.5C 240.174,148.288 226.508,150.954 213.5,156.5C 195.048,162.312 179.215,172.312 166,186.5C 166.321,192.944 167.488,199.277 169.5,205.5C 170.88,212.03 172.713,218.363 175,224.5C 175.667,230.5 175.667,236.5 175,242.5C 168.303,252.266 159.136,256.099 147.5,254C 144.758,252.93 142.258,251.43 140,249.5C 137.97,245.991 135.804,242.658 133.5,239.5C 129.973,230.1 127.306,220.433 125.5,210.5C 124.451,208.403 123.451,206.403 122.5,204.5C 118.156,182.057 115.989,159.391 116,136.5C 93.7021,144.276 72.2021,142.443 51.5,131C 26.0996,109.596 17.9329,82.7625 27,50.5C 29.9334,39.1323 35.1001,28.9656 42.5,20C 44.8171,17.8431 47.4838,16.3431 50.5,15.5C 55.1304,14.7705 59.7971,14.4372 64.5,14.5C 78.784,19.0597 84.284,28.7263 81,43.5C 78.7073,48.6196 76.2073,53.6196 73.5,58.5C 71.2422,57.5527 70.0755,58.5527 70,61.5C 69.3333,67.5 69.3333,73.5 70,79.5C 70.2784,80.4158 70.7784,81.0825 71.5,81.5C 73.9671,89.9622 79.6338,94.2956 88.5,94.5C 100.734,93.3665 112.067,89.5332 122.5,83C 177.29,45.3894 237.623,31.8894 303.5,42.5C 303.431,34.7981 303.931,27.1314 305,19.5C 307.321,13.3841 311.488,11.8841 317.5,15C 326.568,21.8537 335.568,28.6871 344.5,35.5 Z"/></g>
<g><path style="opacity:1" fill="#94a6bd" d="M 344.5,35.5 C 348.503,39.6688 353.336,42.3354 359,43.5C 359.414,43.0426 359.914,42.7093 360.5,42.5C 367.784,43.2998 375.117,43.7998 382.5,44C 385.104,44.3903 387.438,45.2237 389.5,46.5C 388.5,46.5 387.5,46.5 386.5,46.5C 387.928,61.2493 381.595,66.7493 367.5,63C 362.864,58.1654 361.197,52.332 362.5,45.5C 359.15,45.665 355.817,45.4983 352.5,45C 351.027,44.2904 350.36,43.1238 350.5,41.5C 346.871,41.205 344.871,39.205 344.5,35.5 Z"/></g>
<g><path style="opacity:1" fill="#7a8c9c" d="M 73.5,58.5 C 70.5499,65.9517 69.8832,73.6184 71.5,81.5C 70.7784,81.0825 70.2784,80.4158 70,79.5C 69.3333,73.5 69.3333,67.5 70,61.5C 70.0755,58.5527 71.2422,57.5527 73.5,58.5 Z"/></g>
<g><path style="opacity:1" fill="#708197" d="M 339.5,85.5 C 348.433,83.5547 355.6,86.2214 361,93.5C 362.735,99.6523 360.568,102.152 354.5,101C 348.929,94.0563 342.929,93.7229 336.5,100C 331.704,99.8534 329.87,97.3534 331,92.5C 333.441,89.5464 336.275,87.2131 339.5,85.5 Z"/></g>
<g><path style="opacity:1" fill="#728198" d="M 386.5,89.5 C 395.373,88.512 402.873,91.1787 409,97.5C 411.007,101.679 409.84,104.679 405.5,106.5C 402.286,105.053 399.619,102.886 397.5,100C 394.833,99.3333 392.167,99.3333 389.5,100C 386.618,104.397 383.118,105.231 379,102.5C 378.333,100.833 378.333,99.1667 379,97.5C 381.028,94.3078 383.528,91.6411 386.5,89.5 Z"/></g>
<g><path style="opacity:1" fill="#96a7bf" d="M 460.5,101.5 C 468.27,115.141 473.27,129.807 475.5,145.5C 472.762,142.836 470.762,139.669 469.5,136C 470.167,135.667 470.833,135.333 471.5,135C 463.471,134.665 455.471,133.998 447.5,133C 442.175,132.338 437.342,130.505 433,127.5C 430.113,120.75 431.28,114.916 436.5,110C 443.999,108.253 451.499,108.087 459,109.5C 459.75,108.874 460.584,108.374 461.5,108C 460.577,105.959 460.244,103.792 460.5,101.5 Z"/></g>
<g><path style="opacity:1" fill="#ecf3fd" d="M 358.5,113.5 C 356.983,113.511 355.816,114.177 355,115.5C 354.297,117.929 354.463,120.262 355.5,122.5C 356.244,126.902 357.911,130.902 360.5,134.5C 364.129,135.238 367.796,135.071 371.5,134C 375.127,133.372 376.96,131.205 377,127.5C 380.511,124.366 381.344,120.7 379.5,116.5C 386.026,115.423 392.693,115.589 399.5,117C 423.012,129.462 427.012,146.629 411.5,168.5C 409.62,168.229 408.287,168.896 407.5,170.5C 403.172,172.808 398.505,174.308 393.5,175C 384.814,175.632 376.148,175.466 367.5,174.5C 366.5,174.5 365.5,174.5 364.5,174.5C 357.71,172.967 350.71,171.967 343.5,171.5C 338.603,170.588 333.603,169.588 328.5,168.5C 323.017,166.356 318.35,163.023 314.5,158.5C 310.091,153.745 308.424,148.078 309.5,141.5C 308.911,135.395 310.078,129.728 313,124.5C 323.724,111.924 337.224,107.758 353.5,112C 355.382,112.198 357.048,112.698 358.5,113.5 Z"/></g>
<g><path style="opacity:1" fill="#ec979a" d="M 377.5,117.5 C 378.167,117.5 378.833,117.5 379.5,117.5C 379.662,119.527 379.495,121.527 379,123.5C 375.694,126.561 372.527,129.728 369.5,133C 367.098,133.814 364.765,133.647 362.5,132.5C 361.154,129.196 359.487,126.196 357.5,123.5C 357.5,122.833 357.5,122.167 357.5,121.5C 359.219,123.816 361.052,126.15 363,128.5C 363.483,129.448 363.649,130.448 363.5,131.5C 367.273,132.178 370.106,130.844 372,127.5C 372.595,126.101 372.428,124.768 371.5,123.5C 376.248,121.796 376.582,119.629 372.5,117C 367.833,116.333 363.167,116.333 358.5,117C 357.663,118.011 357.33,119.178 357.5,120.5C 356.199,119.116 356.199,117.616 357.5,116C 364.402,114.963 371.068,115.463 377.5,117.5 Z"/></g>
<g><path style="opacity:1" fill="#dda4a9" d="M 358.5,113.5 C 363.511,113.334 368.511,113.501 373.5,114C 375.55,114.416 376.884,115.583 377.5,117.5C 371.068,115.463 364.402,114.963 357.5,116C 356.199,117.616 356.199,119.116 357.5,120.5C 357.5,120.833 357.5,121.167 357.5,121.5C 357.5,122.167 357.5,122.833 357.5,123.5C 356.833,123.167 356.167,122.833 355.5,122.5C 354.463,120.262 354.297,117.929 355,115.5C 355.816,114.177 356.983,113.511 358.5,113.5 Z"/></g>
<g><path style="opacity:1" fill="#fa8f8d" d="M 357.5,121.5 C 357.5,121.167 357.5,120.833 357.5,120.5C 357.33,119.178 357.663,118.011 358.5,117C 363.167,116.333 367.833,116.333 372.5,117C 376.582,119.629 376.248,121.796 371.5,123.5C 372.428,124.768 372.595,126.101 372,127.5C 370.106,130.844 367.273,132.178 363.5,131.5C 363.649,130.448 363.483,129.448 363,128.5C 361.052,126.15 359.219,123.816 357.5,121.5 Z"/></g>
<g><path style="opacity:1" fill="#f8dee4" d="M 379.5,116.5 C 381.344,120.7 380.511,124.366 377,127.5C 376.96,131.205 375.127,133.372 371.5,134C 367.796,135.071 364.129,135.238 360.5,134.5C 357.911,130.902 356.244,126.902 355.5,122.5C 356.167,122.833 356.833,123.167 357.5,123.5C 359.487,126.196 361.154,129.196 362.5,132.5C 364.765,133.647 367.098,133.814 369.5,133C 372.527,129.728 375.694,126.561 379,123.5C 379.495,121.527 379.662,119.527 379.5,117.5C 379.5,117.167 379.5,116.833 379.5,116.5 Z"/></g>
<g><path style="opacity:1" fill="#2e4480" d="M 169.5,205.5 C 167.488,199.277 166.321,192.944 166,186.5C 179.215,172.312 195.048,162.312 213.5,156.5C 215.575,156.302 217.575,156.135 219.5,156C 204.043,172.292 188.376,188.459 172.5,204.5C 171.675,205.386 170.675,205.719 169.5,205.5 Z"/></g>
<g><path style="opacity:1" fill="#a4b2d3" d="M 328.5,168.5 C 333.603,169.588 338.603,170.588 343.5,171.5C 338.073,172.018 333.073,171.018 328.5,168.5 Z"/></g>
<g><path style="opacity:1" fill="#4359a2" d="M 411.5,168.5 C 418.175,168.334 424.842,168.5 431.5,169C 431.167,169.333 430.833,169.667 430.5,170C 434.5,170.333 438.5,170.667 442.5,171C 443.787,172.41 444.954,173.91 446,175.5C 450.658,187.974 454.824,200.64 458.5,213.5C 457.837,215.042 457.17,216.709 456.5,218.5C 450.608,212.064 444.274,206.064 437.5,200.5C 436.754,199.264 436.421,197.93 436.5,196.5C 434.692,196.509 433.025,196.009 431.5,195C 423.946,186.281 415.946,178.114 407.5,170.5C 408.287,168.896 409.62,168.229 411.5,168.5 Z"/></g>
<g><path style="opacity:1" fill="#2c4380" d="M 407.5,170.5 C 415.946,178.114 423.946,186.281 431.5,195C 433.025,196.009 434.692,196.509 436.5,196.5C 436.421,197.93 436.754,199.264 437.5,200.5C 444.274,206.064 450.608,212.064 456.5,218.5C 457.17,216.709 457.837,215.042 458.5,213.5C 458.833,214.833 459.167,216.167 459.5,217.5C 458.903,217.735 458.57,218.235 458.5,219C 461.23,233.709 462.064,248.542 461,263.5C 460.041,274.213 458.708,284.88 457,295.5C 456.275,298.79 455.108,301.79 453.5,304.5C 455.388,293.536 457.221,282.536 459,271.5C 459.667,265.833 459.667,260.167 459,254.5C 448.588,244.591 438.754,234.257 429.5,223.5C 428.325,223.719 427.325,223.386 426.5,222.5C 421.828,216.661 416.495,211.495 410.5,207C 404.251,199.924 397.917,193.09 391.5,186.5C 391.714,184.856 391.38,183.356 390.5,182C 393.099,181.231 395.599,181.398 398,182.5C 399.669,180.647 399.835,178.647 398.5,176.5C 396.884,177.115 395.551,178.115 394.5,179.5C 392.452,178.917 390.619,178.917 389,179.5C 388.228,178.151 387.061,177.318 385.5,177C 379.833,176.667 374.167,176.333 368.5,176C 367.944,175.617 367.611,175.117 367.5,174.5C 376.148,175.466 384.814,175.632 393.5,175C 398.505,174.308 403.172,172.808 407.5,170.5 Z"/></g>
<g><path style="opacity:1" fill="#2a4282" d="M 364.5,174.5 C 365.5,174.5 366.5,174.5 367.5,174.5C 367.611,175.117 367.944,175.617 368.5,176C 374.167,176.333 379.833,176.667 385.5,177C 387.061,177.318 388.228,178.151 389,179.5C 390.619,178.917 392.452,178.917 394.5,179.5C 395.551,178.115 396.884,177.115 398.5,176.5C 399.835,178.647 399.669,180.647 398,182.5C 395.599,181.398 393.099,181.231 390.5,182C 391.38,183.356 391.714,184.856 391.5,186.5C 388.905,184.184 386.239,181.851 383.5,179.5C 381.833,178.167 380.167,178.167 378.5,179.5C 371.598,187.233 364.098,194.567 356,201.5C 354.627,203.695 354.294,206.029 355,208.5C 386.64,240.061 418.14,271.728 449.5,303.5C 450.736,304.246 452.07,304.579 453.5,304.5C 453.072,307.785 452.072,310.785 450.5,313.5C 448.047,318.903 445.047,323.903 441.5,328.5C 407.155,294.28 373.155,259.78 339.5,225C 337.956,223.813 336.289,223.48 334.5,224C 325.946,232.554 317.446,241.054 309,249.5C 308.349,251.235 308.515,252.902 309.5,254.5C 345.599,289.766 381.266,325.6 416.5,362C 418.425,361.865 420.425,361.698 422.5,361.5C 414.697,372.127 405.363,381.127 394.5,388.5C 394.651,384.686 396.651,383.019 400.5,383.5C 400.014,381.193 400.014,379.027 400.5,377C 374.804,351.394 348.971,325.894 323,300.5C 317.28,291.779 309.947,284.779 301,279.5C 300.934,276.724 299.768,274.558 297.5,273C 295.024,271.842 292.857,270.342 291,268.5C 284.594,271.905 279.927,276.905 277,283.5C 271.489,286.111 267.156,290.111 264,295.5C 263.333,296.833 263.333,298.167 264,299.5C 284.381,320.215 305.048,340.549 326,360.5C 330.481,367.488 336.314,372.821 343.5,376.5C 344.656,380.5 347.156,383.5 351,385.5C 351.5,388.667 353.333,390.5 356.5,391C 357.833,392.667 359.167,394.333 360.5,396C 364.63,397.971 368.63,400.138 372.5,402.5C 373.442,402.392 374.275,402.059 375,401.5C 376.635,399.489 377.468,397.489 377.5,395.5C 379.766,394.686 382.1,394.186 384.5,394C 387.104,391.428 390.104,389.595 393.5,388.5C 390.982,391.516 388.316,394.35 385.5,397C 383.385,397.557 381.385,398.391 379.5,399.5C 378.227,400.257 378.227,400.923 379.5,401.5C 380.261,402.391 381.261,403.058 382.5,403.5C 404.124,402.345 425.79,402.178 447.5,403C 451.294,404.252 452.96,406.918 452.5,411C 452.167,412.833 451.833,414.667 451.5,416.5C 450.099,417.521 448.765,418.521 447.5,419.5C 408.833,419.5 370.167,419.5 331.5,419.5C 335.434,417.618 339.767,416.284 344.5,415.5C 344.657,414.127 344.49,412.793 344,411.5C 320.077,387.911 296.577,364.078 273.5,340C 270.971,337.971 268.304,336.138 265.5,334.5C 259.408,327.898 253.408,321.064 247.5,314C 246.056,313.219 244.723,313.386 243.5,314.5C 236.833,321.167 230.167,327.833 223.5,334.5C 221.082,336.909 219.082,339.576 217.5,342.5C 223.114,350.98 230.114,358.313 238.5,364.5C 241.676,368.506 245.009,372.34 248.5,376C 249.448,376.483 250.448,376.649 251.5,376.5C 251.5,377.5 251.5,378.5 251.5,379.5C 254.388,379.22 255.888,380.553 256,383.5C 261.473,388.973 266.973,394.473 272.5,400C 280.053,405.719 286.387,412.553 291.5,420.5C 281.135,420.733 270.802,420.4 260.5,419.5C 240.161,399.827 220.161,379.827 200.5,359.5C 193.038,366.129 186.038,373.296 179.5,381C 180.883,382.271 181.883,383.771 182.5,385.5C 172.895,378.896 164.561,370.896 157.5,361.5C 159.144,362.366 160.811,362.866 162.5,363C 165.317,359.853 168.484,357.02 172,354.5C 172.36,352.579 173.194,350.912 174.5,349.5C 177.366,347.422 180.366,345.589 183.5,344C 200.01,326.811 216.843,309.977 234,293.5C 235.438,292.1 236.271,290.433 236.5,288.5C 237.552,288.649 238.552,288.483 239.5,288C 247.656,279.342 255.656,270.509 263.5,261.5C 270.16,256.84 275.826,251.174 280.5,244.5C 283.501,242.654 286.335,240.654 289,238.5C 290.769,235.281 292.769,232.281 295,229.5C 296.067,228.809 297.234,228.309 298.5,228C 307.336,218.83 316.503,209.997 326,201.5C 331.513,195.651 336.68,189.484 341.5,183C 344.99,180.089 348.656,177.422 352.5,175C 356.559,175.202 360.559,175.036 364.5,174.5 Z"/></g>
<g><path style="opacity:1" fill="#4157a2" d="M 391.5,186.5 C 397.917,193.09 404.251,199.924 410.5,207C 416.495,211.495 421.828,216.661 426.5,222.5C 427.325,223.386 428.325,223.719 429.5,223.5C 438.754,234.257 448.588,244.591 459,254.5C 459.667,260.167 459.667,265.833 459,271.5C 457.221,282.536 455.388,293.536 453.5,304.5C 452.07,304.579 450.736,304.246 449.5,303.5C 418.14,271.728 386.64,240.061 355,208.5C 354.294,206.029 354.627,203.695 356,201.5C 364.098,194.567 371.598,187.233 378.5,179.5C 380.167,178.167 381.833,178.167 383.5,179.5C 386.239,181.851 388.905,184.184 391.5,186.5 Z"/></g>
<g><path style="opacity:1" fill="#2a4280" d="M 138.5,328.5 C 134.784,324.711 132.95,320.044 133,314.5C 131.125,312.018 129.291,309.685 127.5,307.5C 126.766,306.292 126.433,304.959 126.5,303.5C 127.75,303.577 128.583,304.244 129,305.5C 133.347,302.152 137.014,298.152 140,293.5C 174.86,258.64 209.694,223.806 244.5,189C 245.635,188.251 246.635,188.417 247.5,189.5C 246.854,200.802 246.187,212.136 245.5,223.5C 210.676,256.99 176.343,291.324 142.5,326.5C 141.234,327.362 139.901,328.029 138.5,328.5 Z"/></g>
<g><path style="opacity:1" fill="#4358a2" d="M 314.5,158.5 C 318.35,163.023 323.017,166.356 328.5,168.5C 333.073,171.018 338.073,172.018 343.5,171.5C 350.71,171.967 357.71,172.967 364.5,174.5C 360.559,175.036 356.559,175.202 352.5,175C 348.656,177.422 344.99,180.089 341.5,183C 336.68,189.484 331.513,195.651 326,201.5C 316.503,209.997 307.336,218.83 298.5,228C 297.234,228.309 296.067,228.809 295,229.5C 292.769,232.281 290.769,235.281 289,238.5C 286.335,240.654 283.501,242.654 280.5,244.5C 275.826,251.174 270.16,256.84 263.5,261.5C 255.656,270.509 247.656,279.342 239.5,288C 238.552,288.483 237.552,288.649 236.5,288.5C 236.271,290.433 235.438,292.1 234,293.5C 216.843,309.977 200.01,326.811 183.5,344C 180.366,345.589 177.366,347.422 174.5,349.5C 173.194,350.912 172.36,352.579 172,354.5C 168.484,357.02 165.317,359.853 162.5,363C 160.811,362.866 159.144,362.366 157.5,361.5C 149.908,353.572 143.908,344.572 139.5,334.5C 139.483,332.435 139.15,330.435 138.5,328.5C 139.901,328.029 141.234,327.362 142.5,326.5C 176.343,291.324 210.676,256.99 245.5,223.5C 246.187,212.136 246.854,200.802 247.5,189.5C 246.635,188.417 245.635,188.251 244.5,189C 209.694,223.806 174.86,258.64 140,293.5C 137.014,298.152 133.347,302.152 129,305.5C 128.583,304.244 127.75,303.577 126.5,303.5C 122.6,293.277 120.266,282.61 119.5,271.5C 118.047,260.669 121.88,252.335 131,246.5C 132.825,244.52 133.659,242.187 133.5,239.5C 135.804,242.658 137.97,245.991 140,249.5C 142.258,251.43 144.758,252.93 147.5,254C 159.136,256.099 168.303,252.266 175,242.5C 175.667,236.5 175.667,230.5 175,224.5C 172.713,218.363 170.88,212.03 169.5,205.5C 170.675,205.719 171.675,205.386 172.5,204.5C 188.376,188.459 204.043,172.292 219.5,156C 217.575,156.135 215.575,156.302 213.5,156.5C 226.508,150.954 240.174,148.288 254.5,148.5C 248.693,172.48 246.527,196.813 248,221.5C 251.137,229.641 256.97,234.474 265.5,236C 276.66,237.106 284.493,232.606 289,222.5C 290.535,200.587 293.702,178.921 298.5,157.5C 303.797,158.275 309.13,158.608 314.5,158.5 Z"/></g>
<g><path style="opacity:1" fill="#4157a2" d="M 441.5,328.5 C 436.206,337.666 431.206,346.999 426.5,356.5C 425.876,358.754 424.543,360.421 422.5,361.5C 420.425,361.698 418.425,361.865 416.5,362C 381.266,325.6 345.599,289.766 309.5,254.5C 308.515,252.902 308.349,251.235 309,249.5C 317.446,241.054 325.946,232.554 334.5,224C 336.289,223.48 337.956,223.813 339.5,225C 373.155,259.78 407.155,294.28 441.5,328.5 Z"/></g>
<g><path style="opacity:1" fill="#30447b" d="M 122.5,204.5 C 123.451,206.403 124.451,208.403 125.5,210.5C 127.306,220.433 129.973,230.1 133.5,239.5C 133.659,242.187 132.825,244.52 131,246.5C 121.88,252.335 118.047,260.669 119.5,271.5C 119.333,257.829 119.5,244.163 120,230.5C 121.445,221.886 122.279,213.219 122.5,204.5 Z"/></g>
<g><path style="opacity:1" fill="#4157a3" d="M 394.5,388.5 C 394.167,388.5 393.833,388.5 393.5,388.5C 390.104,389.595 387.104,391.428 384.5,394C 382.1,394.186 379.766,394.686 377.5,395.5C 377.468,397.489 376.635,399.489 375,401.5C 374.275,402.059 373.442,402.392 372.5,402.5C 368.63,400.138 364.63,397.971 360.5,396C 359.167,394.333 357.833,392.667 356.5,391C 353.333,390.5 351.5,388.667 351,385.5C 347.156,383.5 344.656,380.5 343.5,376.5C 336.314,372.821 330.481,367.488 326,360.5C 305.048,340.549 284.381,320.215 264,299.5C 263.333,298.167 263.333,296.833 264,295.5C 267.156,290.111 271.489,286.111 277,283.5C 279.927,276.905 284.594,271.905 291,268.5C 292.857,270.342 295.024,271.842 297.5,273C 299.768,274.558 300.934,276.724 301,279.5C 309.947,284.779 317.28,291.779 323,300.5C 348.971,325.894 374.804,351.394 400.5,377C 400.014,379.027 400.014,381.193 400.5,383.5C 396.651,383.019 394.651,384.686 394.5,388.5 Z"/></g>
<g><path style="opacity:1" fill="#4157a3" d="M 331.5,419.5 C 318.173,420.055 304.84,420.389 291.5,420.5C 286.387,412.553 280.053,405.719 272.5,400C 266.973,394.473 261.473,388.973 256,383.5C 255.888,380.553 254.388,379.22 251.5,379.5C 251.5,378.5 251.5,377.5 251.5,376.5C 250.448,376.649 249.448,376.483 248.5,376C 245.009,372.34 241.676,368.506 238.5,364.5C 230.114,358.313 223.114,350.98 217.5,342.5C 219.082,339.576 221.082,336.909 223.5,334.5C 230.167,327.833 236.833,321.167 243.5,314.5C 244.723,313.386 246.056,313.219 247.5,314C 253.408,321.064 259.408,327.898 265.5,334.5C 268.304,336.138 270.971,337.971 273.5,340C 296.577,364.078 320.077,387.911 344,411.5C 344.49,412.793 344.657,414.127 344.5,415.5C 339.767,416.284 335.434,417.618 331.5,419.5 Z"/></g>
<g><path style="opacity:1" fill="#2c4067" d="M 127.5,307.5 C 129.291,309.685 131.125,312.018 133,314.5C 132.95,320.044 134.784,324.711 138.5,328.5C 139.15,330.435 139.483,332.435 139.5,334.5C 134.182,326.189 130.182,317.189 127.5,307.5 Z"/></g>
<g><path style="opacity:1" fill="#344674" d="M 450.5,313.5 C 447.373,324.09 442.873,334.09 437,343.5C 434.015,348.311 430.515,352.644 426.5,356.5C 431.206,346.999 436.206,337.666 441.5,328.5C 445.047,323.903 448.047,318.903 450.5,313.5 Z"/></g>
<g><path style="opacity:1" fill="#4157a0" d="M 260.5,419.5 C 256.131,419.533 251.798,419.2 247.5,418.5C 243.655,416.716 239.655,415.216 235.5,414C 233.246,413.376 231.579,412.043 230.5,410C 224.603,409.094 218.936,407.594 213.5,405.5C 201.968,400.575 191.634,393.908 182.5,385.5C 181.883,383.771 180.883,382.271 179.5,381C 186.038,373.296 193.038,366.129 200.5,359.5C 220.161,379.827 240.161,399.827 260.5,419.5 Z"/></g>
<g><path style="opacity:1" fill="#3d4f82" d="M 213.5,405.5 C 218.936,407.594 224.603,409.094 230.5,410C 231.579,412.043 233.246,413.376 235.5,414C 239.655,415.216 243.655,416.716 247.5,418.5C 237.556,416.241 227.889,413.074 218.5,409C 216.416,408.303 214.749,407.136 213.5,405.5 Z"/></g>
<g><path style="opacity:1" fill="#314479" d="M 247.5,418.5 C 251.798,419.2 256.131,419.533 260.5,419.5C 270.802,420.4 281.135,420.733 291.5,420.5C 304.84,420.389 318.173,420.055 331.5,419.5C 370.167,419.5 408.833,419.5 447.5,419.5C 386.001,420.463 324.334,421.129 262.5,421.5C 257.184,421.451 252.184,420.451 247.5,418.5 Z"/></g>
<g><path style="opacity:0.384" fill="#22335b" d="M 262.5,421.5 C 324.334,421.129 386.001,420.463 447.5,419.5C 448.765,418.521 450.099,417.521 451.5,416.5C 451.833,414.667 452.167,412.833 452.5,411C 452.96,406.918 451.294,404.252 447.5,403C 425.79,402.178 404.124,402.345 382.5,403.5C 381.261,403.058 380.261,402.391 379.5,401.5C 403.168,400.07 426.835,400.237 450.5,402C 455.393,405.947 456.559,410.78 454,416.5C 452.773,418.726 450.939,420.226 448.5,421C 396.331,421.322 344.165,421.822 292,422.5C 281.994,422.5 272.161,422.166 262.5,421.5 Z"/></g>
</svg>
