<svg width="600" height="472" viewBox="0 0 600 472" fill="none" xmlns="http://www.w3.org/2000/svg"><g style="mix-blend-mode:multiply"><path fill-rule="evenodd" clip-rule="evenodd" d="M393.175 344.392C431.007 344.392 461.675 329.539 461.675 311.218C461.675 292.896 431.007 278.044 393.175 278.044C366.548 278.044 343.469 285.402 332.134 296.149C314.045 290.602 292.295 287.368 268.896 287.368C206.009 287.368 155.029 310.731 155.029 339.55C155.029 368.369 206.009 391.731 268.896 391.731C328.527 391.731 377.452 370.726 382.359 343.981C385.882 344.251 389.495 344.392 393.175 344.392Z" fill="#4B4B4B" fill-opacity="0.2"/></g><path d="M224.441 149.628C222.206 147.923 219.013 148.352 217.308 150.587C215.603 152.821 216.032 156.015 218.267 157.72L242.029 175.85C244.263 177.555 247.457 177.126 249.162 174.891C250.867 172.657 250.438 169.463 248.203 167.758L224.441 149.628Z" fill="#B99154"/><path d="M431.254 257.846L443.101 255.512L445.385 269.091L434.088 272.229L431.254 257.846Z" fill="#AD7F3B"/><path d="M256.21 163.501C282.124 163.501 308.918 181.657 309.446 182.539L303.453 213.917L258.854 186.594C261.851 190.119 261.145 199.286 249.864 199.286C227.477 199.286 230.297 163.501 256.21 163.501Z" fill="#58CC02"/><path d="M392.496 302.408C421.898 302.408 445.732 288.912 445.732 272.264C445.732 255.616 421.898 242.12 392.496 242.12C363.094 242.12 339.26 255.616 339.26 272.264C339.26 288.912 363.094 302.408 392.496 302.408Z" fill="#AD7F3B"/><path d="M390.381 289.714C419.782 289.714 443.617 276.218 443.617 259.57C443.617 242.923 419.782 229.427 390.381 229.427C360.979 229.427 337.145 242.923 337.145 259.57C337.145 276.218 360.979 289.714 390.381 289.714Z" fill="#B99054"/><path d="M416.174 255.005C417.061 250.169 413.859 245.53 409.024 244.643C404.188 243.756 399.549 246.958 398.662 251.794L396.956 261.097C396.069 265.933 399.27 270.572 404.106 271.459C408.942 272.346 413.581 269.144 414.468 264.309L416.174 255.005Z" fill="#F49000"/><path d="M302.417 225.023C294.132 189.239 303.474 161.739 310.702 147.46L393.025 142.877L409.771 181.482C416.881 189.415 428.104 203.076 434.45 209.863C440.796 216.649 449.787 213.3 449.787 219.734C449.787 228.725 437.976 235.071 429.162 233.484C421.829 260.843 390.38 265.097 375.573 263.805C353.949 262.805 309.045 253.651 302.417 225.023Z" fill="#58CC02"/><path d="M357.857 152.924C340.846 165.792 334.676 154.069 330.445 148.164L315.726 149.486C312.964 152.924 306.912 163.236 304.797 176.986C302.153 194.173 309.644 203.428 319.076 203.428C326.62 203.428 329.799 198.022 330.445 195.318L347.897 194.173C348.749 199.167 354.348 209.157 369.932 209.157C389.411 209.157 391.085 195.407 392.231 184.125C393.148 175.099 391.085 167.085 389.939 164.205C384.916 156.155 371.465 142.629 357.857 152.924Z" fill="#89E219"/><path d="M331.106 177.174C332.485 161.804 333.765 154.422 324.204 153.969C315.757 153.568 310.615 161.648 308.934 171.897C307.256 182.131 307.53 195.627 318.112 196.129C327.766 196.586 329.866 190.981 331.106 177.174Z" fill="white"/><path d="M146.946 247.994L143.861 255.693L170.271 266.273L173.355 258.574L146.946 247.994Z" fill="#C1D3DA"/><path d="M369.52 268.448H163.662V342.803H163.695C165.099 363.767 210.64 380.597 266.614 380.597C323.473 380.597 369.566 363.23 369.566 341.806C369.566 341.415 369.551 341.025 369.52 340.636V268.448Z" fill="#C1D3DA"/><path d="M348.289 221.584C335.554 224.923 330.467 200.871 328.582 195.583L335.008 192.409C338.093 192.351 344.93 192.533 347.604 193.731C350.603 202.017 357.029 219.292 348.289 221.584Z" fill="#F49000"/><path d="M183.43 364.668V288.168L163.662 281.587V342.806H163.695C164.242 350.97 171.484 358.508 183.43 364.668Z" fill="#ABBEC5"/><path d="M349.662 364.668V288.168L369.429 281.587V342.806H369.396C368.849 350.97 361.607 358.508 349.662 364.668Z" fill="#ABBEC5"/><path d="M237.785 304.347L222.893 302.951V369.431C222.893 371.433 224.106 373.226 226.031 373.773C227.912 374.307 230.569 374.938 233.822 375.384C236.398 375.737 238.704 375.949 240.57 376.076C243.273 376.26 245.457 374.082 245.457 371.373V312.772C245.457 308.405 242.133 304.755 237.785 304.347Z" fill="#D7E6EB"/><path d="M344.438 217.705C338.783 219.291 334.499 207.568 331.328 197.432L336.384 187.737C337.726 188.383 341.405 190.61 345.38 194.347C349.065 205.453 350.093 216.118 344.438 217.705Z" fill="#A66200"/><path d="M383.156 181.479C384.92 165.085 380.479 159.993 369.582 158.21C359.887 156.624 353.894 162.97 351.954 176.367C350.458 186.7 349.933 200.09 363.895 201.514C374.871 202.632 381.561 196.304 383.156 181.479Z" fill="white"/><path d="M327.004 193.988C328.345 191.019 332.015 186.415 338.64 186.415C343.671 186.415 347.107 189.932 348.742 192.539C349.185 193.246 348.796 194.136 348.005 194.399L334.171 199.01C333.006 199.399 331.722 199.153 330.783 198.361L327.385 195.493C326.943 195.121 326.767 194.514 327.004 193.988Z" fill="#FFC200"/><path d="M430.059 233.615C429.756 233.579 429.456 233.535 429.159 233.481C428.79 234.857 428.36 236.175 427.874 237.437C420.209 235.486 411.089 231.55 404.348 224.644C403.532 223.808 403.548 222.469 404.384 221.653C405.22 220.837 406.559 220.853 407.375 221.689C413.732 228.201 422.645 231.895 430.059 233.615Z" fill="#4EB800"/><path d="M267.291 307.52C329.175 307.52 379.343 288.529 379.343 265.102C379.343 241.676 329.175 222.685 267.291 222.685C205.406 222.685 155.238 241.676 155.238 265.102C155.238 288.529 205.406 307.52 267.291 307.52Z" fill="#C1D3DA"/><path d="M267.291 299.764C324.524 299.764 370.92 283.111 370.92 262.569C370.92 242.027 324.524 225.374 267.291 225.374C210.058 225.374 163.662 242.027 163.662 262.569C163.662 283.111 210.058 299.764 267.291 299.764Z" fill="#ACC3CB"/><path d="M433.19 291.374C430.976 286.581 425.295 284.49 420.501 286.704C415.708 288.918 413.617 294.599 415.831 299.392L423.548 316.1C425.762 320.893 431.443 322.984 436.236 320.77C441.03 318.556 443.121 312.876 440.907 308.082L433.19 291.374Z" fill="#AD7F3B"/><path d="M170.713 276.083C170.824 260.924 213.4 248.644 265.903 248.644C318.476 248.644 361.094 260.955 361.094 276.143C361.094 277.007 360.956 277.861 360.686 278.705C343.945 291.167 308.415 299.765 267.29 299.765C223.34 299.765 185.779 289.944 170.713 276.083Z" fill="#CA40FF"/><path d="M259.543 177.894C257.308 176.189 254.114 176.618 252.409 178.853C250.704 181.087 251.134 184.281 253.368 185.986L279.187 205.685C281.421 207.39 284.615 206.961 286.32 204.726C288.025 202.492 287.595 199.298 285.361 197.593L259.543 177.894Z" fill="#B99154"/><path d="M308.416 135.47C308.416 122.25 338.559 103.388 378.398 103.388C417.532 103.388 439.743 140.494 439.743 162.353C439.743 184.212 417.091 192.233 404.752 192.233C394.88 192.233 392.588 177.778 391.619 171.079C380.866 164.351 355.57 150.895 334.769 150.895C313.968 150.895 305.889 158.534 304.449 162.353C303.773 161.883 302.369 160.326 302.158 157.858C301.946 155.39 307.828 145.254 310.795 140.494C310.002 139.701 308.416 137.586 308.416 135.47Z" fill="#D7EDF9"/><path d="M288.179 222.684C301.2 222.684 311.756 216.64 311.756 209.185C311.756 201.729 301.2 195.685 288.179 195.685C275.157 195.685 264.602 201.729 264.602 209.185C264.602 216.64 275.157 222.684 288.179 222.684Z" fill="#B99154"/><path d="M179.961 232.904L183.438 225.373L198.397 232.904L189.055 236.831L179.961 232.904Z" fill="#C1D3DA"/><path d="M359.551 286.846L363.027 279.316L377.987 286.846L368.644 290.774L359.551 286.846Z" fill="#C1D3DA"/><path d="M288.583 228.549C274.216 228.549 264.697 219.294 264.697 208.806L290.082 203.077C294.43 204.164 304.836 207.061 311.676 209.952C311.676 218.854 302.95 228.549 288.583 228.549Z" fill="#B99154"/><path d="M288.183 219.352C297.992 219.352 305.943 215.172 305.943 210.015C305.943 204.857 297.992 200.677 288.183 200.677C278.375 200.677 270.424 204.857 270.424 210.015C270.424 215.172 278.375 219.352 288.183 219.352Z" fill="#CA40FF"/><path d="M337.99 213.727C339.907 216.676 342.049 218.376 344.435 217.706C348.481 216.571 349.106 210.79 347.785 203.524C347.39 203.469 346.987 203.441 346.577 203.441C341.758 203.441 337.852 207.348 337.852 212.167C337.852 212.699 337.899 213.221 337.99 213.727Z" fill="#FFB6E2"/><path d="M318.9 173.712C320.708 173.712 322.174 172.344 322.174 170.656C322.174 169.843 321.833 169.104 321.278 168.556C322.015 168.221 322.863 168.164 323.842 168.407C327.614 169.345 328.742 172.026 327.684 180.16C326.727 187.515 324.024 190.652 320.642 189.875C316.044 188.817 316.369 182.761 317.187 177.64C317.428 176.129 317.709 174.779 318.043 173.606C318.316 173.675 318.604 173.712 318.9 173.712Z" fill="#4B4B4B"/><path d="M356.792 175.13C358.579 175.13 360.027 173.682 360.027 171.895C360.027 171.092 359.733 170.357 359.249 169.791C359.954 169.412 360.777 169.321 361.739 169.54C365.504 170.397 366.737 173.255 366.052 182.113C365.432 190.124 362.902 193.639 359.53 192.94C354.943 191.988 354.996 185.411 355.577 179.827C355.763 178.039 356.003 176.455 356.316 175.095C356.471 175.118 356.631 175.13 356.792 175.13Z" fill="#4B4B4B"/><path d="M340.469 189.791C339.169 189.3 337.097 188.948 335.158 189.791" stroke="#FFDE00" stroke-width="3.52558" stroke-linecap="round" stroke-linejoin="round"/><path d="M312.289 269.18C312.289 274.096 305.304 278.082 296.689 278.082C288.072 278.082 281.088 274.096 281.088 269.18C281.088 264.263 288.072 257.458 296.689 257.458C305.304 257.458 312.289 264.263 312.289 269.18Z" fill="#DE5BFF"/><path d="M255.336 268.502C255.336 274.473 246.851 278.61 236.385 278.61C225.919 278.61 217.436 274.473 217.436 268.502C217.436 262.53 225.919 254.968 236.385 254.968C246.851 254.968 255.336 262.53 255.336 268.502Z" fill="#DE5BFF"/><path d="M282.32 286.385C282.32 289.218 278.295 291.18 273.33 291.18C268.365 291.18 264.34 289.218 264.34 286.385C264.34 283.552 268.365 279.964 273.33 279.964C278.295 279.964 282.32 283.552 282.32 286.385Z" fill="#DE5BFF"/><path d="M186.404 226.605C176.971 229.18 154.661 235.735 143.039 252.87" stroke="#C1D3DA" stroke-width="10.5767" stroke-linecap="round" stroke-linejoin="round"/><path d="M335.816 306.718C345.535 305.629 367.999 301.788 382.124 286.649" stroke="#C1D3DA" stroke-width="11.987" stroke-linecap="round" stroke-linejoin="round"/><path d="M240.877 302.76C231.446 301.791 222.984 300.556 214.523 298.706" stroke="#D7E6EB" stroke-width="8.46137" stroke-linecap="round" stroke-linejoin="round"/><path d="M230.209 260.76C228.754 261.362 227.438 262.215 226.596 263.22" stroke="#E57BFF" stroke-width="5.64092" stroke-linecap="round" stroke-linejoin="round"/><path d="M293.022 263.217C291.566 263.819 290.251 264.672 289.408 265.677" stroke="#E57BFF" stroke-width="5.64092" stroke-linecap="round" stroke-linejoin="round"/><path d="M271.813 283.115C270.958 283.468 270.186 283.969 269.691 284.558" stroke="#E57BFF" stroke-width="3.52558" stroke-linecap="round" stroke-linejoin="round"/><path d="M168.604 289.008C173.187 292.357 184.821 298.527 199.1 301.876" stroke="#ABBEC5" stroke-width="6.34604" stroke-linecap="round" stroke-linejoin="round"/><path d="M310.687 140.386C310.23 139.904 309.577 139.063 309.088 138.062C314.562 134.22 321.89 130.606 332.51 129.702C345.523 128.595 363.333 131.57 388.581 142.91C389.291 143.229 389.609 144.063 389.289 144.774C388.97 145.484 388.135 145.802 387.425 145.483C362.433 134.258 345.12 131.46 332.748 132.513C322.735 133.365 315.864 136.747 310.687 140.386Z" fill="#B7DAED"/><path d="M392.259 175.094C391.983 173.602 391.778 172.226 391.613 171.078C390.814 170.578 389.935 170.042 388.985 169.476C388.811 166.966 388.68 164.643 388.557 162.459C388.405 159.77 388.265 157.29 388.073 154.932C387.514 148.087 386.505 141.97 383.479 133.906C383.205 133.177 383.575 132.364 384.304 132.09C385.033 131.817 385.846 132.186 386.12 132.915C389.258 141.279 390.309 147.664 390.883 154.702C391.087 157.19 391.229 159.725 391.382 162.443C391.593 166.192 391.823 170.289 392.259 175.094Z" fill="#B7DAED"/><path d="M328.684 131.242C329.095 129.538 330.587 125.742 333.267 124.19" stroke="#B7DAED" stroke-width="2.82047" stroke-linecap="round" stroke-linejoin="round"/><path d="M350.809 131.33C352.748 127.629 357.411 119.762 363.765 120.489C368.088 120.983 364.559 125.336 359.799 126.041" stroke="#B7DAED" stroke-width="2.82047" stroke-linecap="round" stroke-linejoin="round"/><path d="M347.54 365.804C349.558 364.159 350.981 362.547 351.565 361.023C355.62 350.446 354.562 340.134 351.565 337.049C349.362 347.625 333.849 364.548 329.266 369.396C327.854 370.889 324.609 372.91 320.744 374.818C331.018 372.423 340.089 369.366 347.54 365.804Z" fill="#FF8642"/><path d="M299.008 378.645C297.935 374.834 300.67 370.663 303.303 366.648C304.735 364.464 306.138 362.325 306.879 360.317C308.994 354.588 306.086 347.977 301.767 344.188C303.354 350.005 297.712 359.26 289.78 364.019C283.867 367.567 279.586 375.88 277.865 380.373C285.169 380.074 292.243 379.488 299.008 378.645Z" fill="#FF8642"/><path d="M267.026 380.6C266.875 373.524 265.318 363.13 259.814 358.378C256.502 368.438 249.651 376.841 239.822 379.271C248.373 380.138 257.364 380.6 266.642 380.6C266.771 380.6 266.898 380.6 267.026 380.6Z" fill="#FF8642"/><path d="M221.287 376.647C211.403 370.364 205.199 355.658 203.118 347.978C200.885 348.536 196.014 350.887 194.392 355.823C193.246 337.93 185.226 334.493 180.643 334.493C183.904 335.815 185.578 338.724 185.578 341.28C185.578 343.551 184.246 346.231 182.942 348.852C181.972 350.803 181.019 352.72 180.643 354.413C179.953 357.516 181.207 361.861 181.826 363.816C191.808 369.266 205.394 373.706 221.287 376.647Z" fill="#FF8642"/><path d="M244.739 359.965C244.739 354.764 241.037 354.807 241.037 349.211C241.037 343.616 250.6 339.077 252.76 340.838C250.16 342.869 247.428 346.615 247.647 351.415C247.9 360.9 244.956 364.63 243.285 364.964C243.206 364.989 243.131 364.996 243.065 364.989C243.135 364.988 243.209 364.98 243.285 364.964C243.873 364.781 244.739 363.629 244.739 359.965Z" fill="#FF8642"/><path d="M277.099 210.776C277.099 208.932 275.605 207.438 273.761 207.438C271.918 207.438 270.424 208.932 270.424 210.776V239.702C270.424 241.545 271.918 243.039 273.761 243.039C275.605 243.039 277.099 241.545 277.099 239.702V210.776Z" fill="#CA40FF"/><path d="M281.618 215.549C281.618 213.797 280.197 212.376 278.444 212.376C276.692 212.376 275.271 213.797 275.271 215.549V226.252C275.271 228.005 276.692 229.425 278.444 229.425C280.197 229.425 281.618 228.005 281.618 226.252V215.549Z" fill="#CA40FF"/><path d="M291.748 379.439C292.622 376.803 294.037 373.833 296.072 371.244C300.239 365.94 300.038 359.962 300.038 359.962C300.038 359.962 297.835 363.25 292.546 367.41C287.284 371.55 284.926 374.349 282.516 380.143C285.642 379.96 288.721 379.725 291.748 379.439Z" fill="#FFB342" fill-opacity="0.7"/><path d="M211.661 374.616C206.184 369.503 203.319 365.665 200.51 360.842C197.601 365.249 194.834 366.461 193.282 364.28C191.872 362.297 188.914 357.552 188.435 351.676C188.233 349.2 183.458 353.87 187.92 366.819C194.715 369.851 202.723 372.486 211.661 374.616Z" fill="#FFB342" fill-opacity="0.7"/></svg>