<?xml version="1.0" encoding="UTF-8"?>
<!DOCTYPE svg PUBLIC "-//W3C//DTD SVG 1.1//EN" "http://www.w3.org/Graphics/SVG/1.1/DTD/svg11.dtd">
<svg xmlns="http://www.w3.org/2000/svg" version="1.1" width="479px" height="413px" style="shape-rendering:geometricPrecision; text-rendering:geometricPrecision; image-rendering:optimizeQuality; fill-rule:evenodd; clip-rule:evenodd" xmlns:xlink="http://www.w3.org/1999/xlink">
<g><path style="opacity:1" fill="#d5eea6" d="M 335.5,0.5 C 338.854,0.747474 341.854,1.74747 344.5,3.5C 341.146,3.25253 338.146,2.25253 335.5,0.5 Z"/></g>
<g><path style="opacity:1" fill="#ceec93" d="M 314.5,1.5 C 312.898,3.07394 310.898,3.74061 308.5,3.5C 310.102,1.92606 312.102,1.25939 314.5,1.5 Z"/></g>
<g><path style="opacity:1" fill="#d9f1a9" d="M 344.5,3.5 C 347.241,3.70732 349.574,4.70732 351.5,6.5C 348.519,6.81763 346.185,5.81763 344.5,3.5 Z"/></g>
<g><path style="opacity:1" fill="#d5eea3" d="M 308.5,3.5 C 306.967,5.24512 304.967,6.24512 302.5,6.5C 304.033,4.75488 306.033,3.75488 308.5,3.5 Z"/></g>
<g><path style="opacity:1" fill="#d8efa6" d="M 302.5,6.5 C 296.509,11.8119 290.176,16.8119 283.5,21.5C 288.966,15.3639 295.299,10.3639 302.5,6.5 Z"/></g>
<g><path style="opacity:1" fill="#c4e183" d="M 351.5,6.5 C 354.155,7.49705 356.155,9.16372 357.5,11.5C 354.237,11.219 352.237,9.55233 351.5,6.5 Z"/></g>
<g><path style="opacity:1" fill="#e3f4c0" d="M 146.5,11.5 C 148.473,10.8373 150.639,10.5039 153,10.5C 156.782,10.3791 160.282,11.0458 163.5,12.5C 157.862,11.7803 152.196,11.447 146.5,11.5 Z"/></g>
<g><path style="opacity:1" fill="#7bc905" d="M 319.5,-0.5 C 323.833,-0.5 328.167,-0.5 332.5,-0.5C 333.209,0.403972 334.209,0.737305 335.5,0.5C 338.146,2.25253 341.146,3.25253 344.5,3.5C 346.185,5.81763 348.519,6.81763 351.5,6.5C 352.237,9.55233 354.237,11.219 357.5,11.5C 359.027,13.9385 361.027,15.9385 363.5,17.5C 363.738,19.4044 364.738,20.7377 366.5,21.5C 366.285,23.1788 366.952,24.1788 368.5,24.5C 368.405,27.6916 369.071,30.6916 370.5,33.5C 369.98,41.8367 370.98,49.8367 373.5,57.5C 373.833,57.5 374.167,57.5 374.5,57.5C 374.447,63.1956 374.78,68.8623 375.5,74.5C 376.407,80.1064 376.74,85.773 376.5,91.5C 374.588,83.4139 373.421,75.0806 373,66.5C 371.831,62.3346 369.498,59.0013 366,56.5C 365.003,50.2002 363.003,44.2002 360,38.5C 354.559,32.8185 350.059,33.4851 346.5,40.5C 344.833,33.4822 341.833,27.1488 337.5,21.5C 335.516,20.2941 333.516,20.2941 331.5,21.5C 329.543,23.4914 327.543,25.4914 325.5,27.5C 316.226,41.041 306.226,54.041 295.5,66.5C 283.831,77.5762 270.831,79.2428 256.5,71.5C 253.828,69.3274 251.494,66.8274 249.5,64C 242.269,59.4424 235.602,54.1091 229.5,48C 222.105,38.9371 213.772,30.9371 204.5,24C 202.512,23.8195 200.512,23.9862 198.5,24.5C 198.279,27.3919 197.446,30.0585 196,32.5C 195.828,37.2018 195.328,41.8685 194.5,46.5C 191.015,43.516 187.682,40.3493 184.5,37C 181.331,36.0218 178.497,36.5218 176,38.5C 175.527,40.779 174.527,42.779 173,44.5C 172.502,53.2412 172.835,61.9079 174,70.5C 171.095,73.1923 168.595,76.1923 166.5,79.5C 165.2,84.0945 163.367,88.4279 161,92.5C 160.333,103.167 160.333,113.833 161,124.5C 162.257,131.848 163.09,139.348 163.5,147C 166.556,154.107 169.722,161.273 173,168.5C 193.279,188.714 216.779,193.214 243.5,182C 248.424,177.396 253.591,173.23 259,169.5C 261.157,166.347 262.324,162.847 262.5,159C 262.302,156.879 261.636,155.046 260.5,153.5C 260.833,153.5 261.167,153.5 261.5,153.5C 262.167,153.5 262.833,153.5 263.5,153.5C 263.334,162.506 263.5,171.506 264,180.5C 265.887,182.026 266.887,184.026 267,186.5C 267.816,187.823 268.983,188.489 270.5,188.5C 270.33,189.822 270.663,190.989 271.5,192C 274.063,193.079 276.729,193.579 279.5,193.5C 283.019,194.808 286.685,194.808 290.5,193.5C 293.833,191.501 297.167,189.501 300.5,187.5C 303.415,187.087 305.248,185.421 306,182.5C 306.667,177.833 306.667,173.167 306,168.5C 304.002,164.759 303.169,160.759 303.5,156.5C 319.259,179.202 339.592,183.868 364.5,170.5C 367.408,167.421 370.408,164.587 373.5,162C 381.211,150.575 383.545,138.075 380.5,124.5C 382.483,124.843 383.817,124.176 384.5,122.5C 386.898,122.741 388.898,122.074 390.5,120.5C 391.167,120.5 391.833,120.5 392.5,120.5C 396.8,120.245 400.8,119.245 404.5,117.5C 404.833,117.5 405.167,117.5 405.5,117.5C 409.8,117.245 413.8,116.245 417.5,114.5C 417.833,114.5 418.167,114.5 418.5,114.5C 422.837,114.416 426.837,113.416 430.5,111.5C 431.167,111.5 431.833,111.5 432.5,111.5C 436.736,110.992 440.736,109.992 444.5,108.5C 444.833,108.5 445.167,108.5 445.5,108.5C 452.464,106.752 459.464,106.419 466.5,107.5C 466.933,110.166 467.433,112.832 468,115.5C 468.333,114.167 468.667,112.833 469,111.5C 469.71,112.973 470.876,113.64 472.5,113.5C 471.212,123.719 471.212,134.052 472.5,144.5C 472.5,146.167 472.5,147.833 472.5,149.5C 471.5,149.5 470.5,149.5 469.5,149.5C 468.837,152.969 467.504,155.636 465.5,157.5C 466.706,159.516 466.706,161.516 465.5,163.5C 464.833,163.167 464.167,162.833 463.5,162.5C 462.686,164.766 462.186,167.1 462,169.5C 460.883,168.051 460.216,166.384 460,164.5C 459.892,168.177 459.892,171.843 460,175.5C 459.309,173.109 458.309,173.109 457,175.5C 456.946,178.861 455.946,181.861 454,184.5C 453.667,183.833 453.333,183.167 453,182.5C 452.08,185.101 451.413,187.768 451,190.5C 450.667,190.167 450.333,189.833 450,189.5C 449.086,192.578 447.253,194.911 444.5,196.5C 445.127,197.417 445.461,198.417 445.5,199.5C 440.189,206.145 434.523,212.478 428.5,218.5C 428.5,219.167 428.167,219.5 427.5,219.5C 425.596,219.738 424.262,220.738 423.5,222.5C 422.167,222.5 420.833,222.5 419.5,222.5C 419.5,223.5 419.5,224.5 419.5,225.5C 419.158,226.338 418.492,226.672 417.5,226.5C 409.474,230.877 401.474,235.21 393.5,239.5C 390.284,239.345 387.617,240.345 385.5,242.5C 381.884,242.899 378.55,243.899 375.5,245.5C 375.158,246.338 374.492,246.672 373.5,246.5C 365.054,244.621 360.721,247.954 360.5,256.5C 359.5,256.833 358.833,257.5 358.5,258.5C 357.5,258.5 356.5,258.5 355.5,258.5C 355.5,259.833 355.5,261.167 355.5,262.5C 352.013,262.974 351.013,264.808 352.5,268C 350.704,269.753 349.538,271.92 349,274.5C 348.043,272.291 346.876,272.457 345.5,275C 345.957,275.414 346.291,275.914 346.5,276.5C 344.429,280.541 342.429,284.541 340.5,288.5C 339.89,289.391 339.557,290.391 339.5,291.5C 336.688,294.656 333.354,296.99 329.5,298.5C 329.5,299.833 329.5,301.167 329.5,302.5C 326.236,304.094 323.569,306.427 321.5,309.5C 318.197,309.735 315.863,311.402 314.5,314.5C 314.5,315.167 314.167,315.5 313.5,315.5C 311.62,315.229 310.287,315.896 309.5,317.5C 307.147,318.34 305.147,319.674 303.5,321.5C 300.073,322.433 296.74,323.6 293.5,325C 292.619,325.708 291.953,326.542 291.5,327.5C 289.102,327.259 287.102,327.926 285.5,329.5C 285.158,330.338 284.492,330.672 283.5,330.5C 281.473,330.338 279.473,330.505 277.5,331C 276.944,331.383 276.611,331.883 276.5,332.5C 272.668,332.587 269.335,333.587 266.5,335.5C 265.167,335.5 263.833,335.5 262.5,335.5C 250.193,336.395 237.859,336.728 225.5,336.5C 225.082,335.778 224.416,335.278 223.5,335C 220.518,334.502 217.518,334.335 214.5,334.5C 214.167,334.5 213.833,334.5 213.5,334.5C 211.898,332.926 209.898,332.259 207.5,332.5C 207.167,332.5 206.833,332.5 206.5,332.5C 204.485,331.076 202.152,330.41 199.5,330.5C 192.17,326.271 184.503,322.604 176.5,319.5C 175.656,317.241 173.989,316.241 171.5,316.5C 170.738,314.738 169.404,313.738 167.5,313.5C 166.738,311.738 165.404,310.738 163.5,310.5C 163.027,309.094 162.027,308.427 160.5,308.5C 159.833,307.167 158.833,306.167 157.5,305.5C 154.769,301.766 151.436,298.766 147.5,296.5C 146.19,293.527 144.19,291.193 141.5,289.5C 141.573,287.973 140.906,286.973 139.5,286.5C 139.167,285.5 138.5,284.833 137.5,284.5C 135.337,279.486 132.504,274.82 129,270.5C 127.667,267.167 126.333,263.833 125,260.5C 124.051,258.907 122.885,257.574 121.5,256.5C 121.5,256.167 121.5,255.833 121.5,255.5C 119.1,248.298 117.1,240.964 115.5,233.5C 112.122,231.621 108.456,230.621 104.5,230.5C 102.265,230.795 100.265,230.461 98.5,229.5C 96.6976,228.542 94.6976,227.875 92.5,227.5C 91.8333,227.5 91.1667,227.5 90.5,227.5C 88.6051,225.759 86.2718,224.759 83.5,224.5C 83.1667,224.5 82.8333,224.5 82.5,224.5C 80.9674,222.755 78.9674,221.755 76.5,221.5C 73.0878,220.958 70.0878,219.625 67.5,217.5C 67.0269,216.094 66.0269,215.427 64.5,215.5C 63.5084,215.672 62.8417,215.338 62.5,214.5C 60.8404,211.374 58.1737,209.707 54.5,209.5C 53.7377,207.738 52.4044,206.738 50.5,206.5C 49.7377,204.738 48.4044,203.738 46.5,203.5C 44.7607,200.757 42.4274,198.757 39.5,197.5C 39.1667,196.5 38.5,195.833 37.5,195.5C 35.4518,192.785 33.1184,190.452 30.5,188.5C 30.4431,187.391 30.1098,186.391 29.5,185.5C 28.9396,183.199 28.4396,180.866 28,178.5C 27.1072,179.711 26.2739,179.711 25.5,178.5C 23.2828,175.932 22.1161,172.932 22,169.5C 21.586,169.957 21.086,170.291 20.5,170.5C 17.0675,168.154 15.5675,164.821 16,160.5C 15.3058,159.182 14.4725,158.349 13.5,158C 14.8014,156.061 14.1347,154.894 11.5,154.5C 10.5713,153.311 10.238,151.978 10.5,150.5C 9.04125,150.567 7.70792,150.234 6.5,149.5C 5.89893,146.295 4.73226,143.295 3,140.5C 2.50058,134.843 2.33391,129.176 2.5,123.5C 5.29854,120.363 8.63187,118.029 12.5,116.5C 22.1343,115.608 31.8009,115.275 41.5,115.5C 64.5027,115.68 87.5027,116.013 110.5,116.5C 111.656,108.677 111.823,100.677 111,92.5C 109.981,90.4982 109.148,88.4982 108.5,86.5C 108.046,79.8407 107.713,73.1741 107.5,66.5C 107.5,60.8333 107.5,55.1667 107.5,49.5C 108.706,42.7254 111.206,36.3921 115,30.5C 115.671,29.7476 116.504,29.4142 117.5,29.5C 121.071,26.2381 124.905,23.2381 129,20.5C 132.097,19.8623 134.93,18.029 137.5,15C 146.827,13.2616 156.16,13.0949 165.5,14.5C 168.86,14.6159 172.193,14.9492 175.5,15.5C 176.167,15.5 176.833,15.5 177.5,15.5C 177.97,16.6935 178.97,17.3601 180.5,17.5C 183.799,18.2096 187.133,18.5429 190.5,18.5C 191.5,18.5 192.5,18.5 193.5,18.5C 195.635,20.369 198.302,21.0356 201.5,20.5C 204.727,20.6761 207.727,21.3428 210.5,22.5C 213.507,24.1745 216.84,24.8412 220.5,24.5C 223.385,24.1936 226.052,24.5269 228.5,25.5C 232.567,27.0538 236.9,27.7204 241.5,27.5C 242.833,27.5 244.167,27.5 245.5,27.5C 253.843,30.0472 262.176,30.0472 270.5,27.5C 273.647,27.2634 276.647,26.4301 279.5,25C 281.324,24.34 282.657,23.1733 283.5,21.5C 290.176,16.8119 296.509,11.8119 302.5,6.5C 304.967,6.24512 306.967,5.24512 308.5,3.5C 310.898,3.74061 312.898,3.07394 314.5,1.5C 316.167,0.833333 317.833,0.166667 319.5,-0.5 Z"/></g>
<g><path style="opacity:1" fill="#cdec93" d="M 165.5,12.5 C 169.171,12.7571 172.505,13.7571 175.5,15.5C 172.193,14.9492 168.86,14.6159 165.5,14.5C 165.5,13.8333 165.5,13.1667 165.5,12.5 Z"/></g>
<g><path style="opacity:1" fill="#e1f3b0" d="M 357.5,11.5 C 360.5,12.5 362.5,14.5 363.5,17.5C 361.027,15.9385 359.027,13.9385 357.5,11.5 Z"/></g>
<g><path style="opacity:1" fill="#ceec97" d="M 132.5,15.5 C 131.514,17.4077 129.848,18.4077 127.5,18.5C 128.659,16.7497 130.326,15.7497 132.5,15.5 Z"/></g>
<g><path style="opacity:1" fill="#90ce30" d="M 146.5,11.5 C 152.196,11.447 157.862,11.7803 163.5,12.5C 164.167,12.5 164.833,12.5 165.5,12.5C 165.5,13.1667 165.5,13.8333 165.5,14.5C 156.16,13.0949 146.827,13.2616 137.5,15C 134.93,18.029 132.097,19.8623 129,20.5C 124.905,23.2381 121.071,26.2381 117.5,29.5C 117.433,28.0413 117.766,26.7079 118.5,25.5C 121.81,23.5179 124.81,21.1846 127.5,18.5C 129.848,18.4077 131.514,17.4077 132.5,15.5C 136.831,13.2481 141.498,11.9148 146.5,11.5 Z"/></g>
<g><path style="opacity:1" fill="#cceb93" d="M 177.5,15.5 C 182.103,15.8616 186.436,16.8616 190.5,18.5C 187.133,18.5429 183.799,18.2096 180.5,17.5C 178.97,17.3601 177.97,16.6935 177.5,15.5 Z"/></g>
<g><path style="opacity:1" fill="#e2f4b7" d="M 363.5,17.5 C 365.262,18.2623 366.262,19.5956 366.5,21.5C 364.738,20.7377 363.738,19.4044 363.5,17.5 Z"/></g>
<g><path style="opacity:1" fill="#dbf0ad" d="M 127.5,18.5 C 124.81,21.1846 121.81,23.5179 118.5,25.5C 118.414,24.5041 118.748,23.6708 119.5,23C 121.817,20.8431 124.484,19.3431 127.5,18.5 Z"/></g>
<g><path style="opacity:1" fill="#d8efab" d="M 193.5,18.5 C 196.33,18.9628 198.997,19.6295 201.5,20.5C 198.302,21.0356 195.635,20.369 193.5,18.5 Z"/></g>
<g><path style="opacity:1" fill="#8cde04" d="M 376.5,91.5 C 377.477,94.2869 377.81,97.2869 377.5,100.5C 377.334,106.842 377.5,113.175 378,119.5C 378.335,121.503 379.168,123.17 380.5,124.5C 383.545,138.075 381.211,150.575 373.5,162C 370.408,164.587 367.408,167.421 364.5,170.5C 339.592,183.868 319.259,179.202 303.5,156.5C 301.629,152.093 302.962,150.76 307.5,152.5C 309.573,154.58 311.907,156.246 314.5,157.5C 314.973,158.906 315.973,159.573 317.5,159.5C 317.833,159.5 318.167,159.5 318.5,159.5C 320.176,161.834 322.509,162.834 325.5,162.5C 329.833,162.5 334.167,162.5 338.5,162.5C 341.481,162.818 343.815,161.818 345.5,159.5C 349.374,158.293 352.374,155.96 354.5,152.5C 359.119,151.873 361.119,149.206 360.5,144.5C 361.151,143.909 361.818,143.243 362.5,142.5C 362.833,136.833 363.167,131.167 363.5,125.5C 363.496,119.458 362.829,113.792 361.5,108.5C 361.501,98.6718 360.335,89.0052 358,79.5C 356.989,78.6634 355.822,78.33 354.5,78.5C 352.5,75.8333 350.167,73.5 347.5,71.5C 347.167,71.5 346.833,71.5 346.5,71.5C 345.833,70.5 345.167,69.5 344.5,68.5C 341.749,66.0255 338.416,65.0255 334.5,65.5C 332.167,65.5 329.833,65.5 327.5,65.5C 318.893,65.0071 311.893,68.0071 306.5,74.5C 305.833,75.1667 305.167,75.8333 304.5,76.5C 301.695,77.9786 300.028,80.3119 299.5,83.5C 299.167,85.5 298.833,87.5 298.5,89.5C 297.604,98.3337 297.604,107.334 298.5,116.5C 298.5,120.5 298.5,124.5 298.5,128.5C 293.688,127.322 289.021,127.322 284.5,128.5C 276.304,130.02 269.471,134.02 264,140.5C 263.517,141.448 263.351,142.448 263.5,143.5C 262.504,143.414 261.671,143.748 261,144.5C 260.502,147.482 260.335,150.482 260.5,153.5C 261.636,155.046 262.302,156.879 262.5,159C 262.324,162.847 261.157,166.347 259,169.5C 253.591,173.23 248.424,177.396 243.5,182C 216.779,193.214 193.279,188.714 173,168.5C 169.722,161.273 166.556,154.107 163.5,147C 163.09,139.348 162.257,131.848 161,124.5C 160.333,113.833 160.333,103.167 161,92.5C 163.367,88.4279 165.2,84.0945 166.5,79.5C 168.595,76.1923 171.095,73.1923 174,70.5C 172.835,61.9079 172.502,53.2412 173,44.5C 174.527,42.779 175.527,40.779 176,38.5C 178.497,36.5218 181.331,36.0218 184.5,37C 187.682,40.3493 191.015,43.516 194.5,46.5C 195.328,41.8685 195.828,37.2018 196,32.5C 197.446,30.0585 198.279,27.3919 198.5,24.5C 200.512,23.9862 202.512,23.8195 204.5,24C 213.772,30.9371 222.105,38.9371 229.5,48C 235.602,54.1091 242.269,59.4424 249.5,64C 251.494,66.8274 253.828,69.3274 256.5,71.5C 270.831,79.2428 283.831,77.5762 295.5,66.5C 306.226,54.041 316.226,41.041 325.5,27.5C 327.543,25.4914 329.543,23.4914 331.5,21.5C 333.516,20.2941 335.516,20.2941 337.5,21.5C 341.833,27.1488 344.833,33.4822 346.5,40.5C 350.059,33.4851 354.559,32.8185 360,38.5C 363.003,44.2002 365.003,50.2002 366,56.5C 369.498,59.0013 371.831,62.3346 373,66.5C 373.421,75.0806 374.588,83.4139 376.5,91.5 Z"/></g>
<g><path style="opacity:1" fill="#cfec97" d="M 210.5,22.5 C 214.16,22.1588 217.493,22.8255 220.5,24.5C 216.84,24.8412 213.507,24.1745 210.5,22.5 Z"/></g>
<g><path style="opacity:1" fill="#e1f4b4" d="M 366.5,21.5 C 367.401,22.2905 368.068,23.2905 368.5,24.5C 366.952,24.1788 366.285,23.1788 366.5,21.5 Z"/></g>
<g><path style="opacity:1" fill="#c7e68c" d="M 283.5,21.5 C 282.657,23.1733 281.324,24.34 279.5,25C 276.647,26.4301 273.647,27.2634 270.5,27.5C 274.645,25.2635 278.978,23.2635 283.5,21.5 Z"/></g>
<g><path style="opacity:1" fill="#def3b5" d="M 228.5,25.5 C 233.122,25.1561 237.455,25.8227 241.5,27.5C 236.9,27.7204 232.567,27.0538 228.5,25.5 Z"/></g>
<g><path style="opacity:1" fill="#cdec92" d="M 245.5,27.5 C 253.848,28.5725 262.181,28.5725 270.5,27.5C 262.176,30.0472 253.843,30.0472 245.5,27.5 Z"/></g>
<g><path style="opacity:1" fill="#d3ec9c" d="M 368.5,24.5 C 370.776,27.7929 372.109,31.4596 372.5,35.5C 371.833,34.8333 371.167,34.1667 370.5,33.5C 369.071,30.6916 368.405,27.6916 368.5,24.5 Z"/></g>
<g><path style="opacity:1" fill="#dcf1ad" d="M 118.5,25.5 C 117.766,26.7079 117.433,28.0413 117.5,29.5C 116.504,29.4142 115.671,29.7476 115,30.5C 111.206,36.3921 108.706,42.7254 107.5,49.5C 104.897,55.182 104.897,60.8487 107.5,66.5C 107.713,73.1741 108.046,79.8407 108.5,86.5C 109.827,96.4511 110.494,106.451 110.5,116.5C 87.5027,116.013 64.5027,115.68 41.5,115.5C 41.5,115.167 41.5,114.833 41.5,114.5C 64.1717,114.554 86.8384,114.888 109.5,115.5C 108.207,99.1425 106.707,82.8092 105,66.5C 103.374,55.1103 105.374,44.4436 111,34.5C 112.665,30.6798 115.165,27.6798 118.5,25.5 Z"/></g>
<g><path style="opacity:1" fill="#eff9cb" d="M 372.5,35.5 C 374.011,38.5443 374.678,41.8776 374.5,45.5C 373.833,44.5 373.167,43.5 372.5,42.5C 372.5,40.1667 372.5,37.8333 372.5,35.5 Z"/></g>
<g><path style="opacity:1" fill="#90c734" d="M 370.5,33.5 C 371.167,34.1667 371.833,34.8333 372.5,35.5C 372.5,37.8333 372.5,40.1667 372.5,42.5C 373.053,47.482 373.387,52.482 373.5,57.5C 370.98,49.8367 369.98,41.8367 370.5,33.5 Z"/></g>
<g><path style="opacity:1" fill="#ceea92" d="M 372.5,42.5 C 373.167,43.5 373.833,44.5 374.5,45.5C 374.5,46.1667 374.5,46.8333 374.5,47.5C 374.5,50.8333 374.5,54.1667 374.5,57.5C 374.167,57.5 373.833,57.5 373.5,57.5C 373.387,52.482 373.053,47.482 372.5,42.5 Z"/></g>
<g><path style="opacity:1" fill="#b5dc6b" d="M 107.5,49.5 C 107.5,55.1667 107.5,60.8333 107.5,66.5C 104.897,60.8487 104.897,55.182 107.5,49.5 Z"/></g>
<g><path style="opacity:1" fill="#fdfdfc" d="M 327.5,65.5 C 329.833,65.5 332.167,65.5 334.5,65.5C 336.214,66.7384 338.214,67.405 340.5,67.5C 342.147,69.3264 344.147,70.6597 346.5,71.5C 346.833,71.5 347.167,71.5 347.5,71.5C 348.713,74.2254 350.546,76.5588 353,78.5C 357.017,89.0783 358.85,100.078 358.5,111.5C 354.693,110.257 354.526,110.924 358,113.5C 359.1,123.755 358.6,133.755 356.5,143.5C 356.893,146.513 356.226,149.18 354.5,151.5C 351.474,154.195 348.474,156.862 345.5,159.5C 342.937,160.088 340.604,161.088 338.5,162.5C 334.167,162.5 329.833,162.5 325.5,162.5C 323.815,160.182 321.481,159.182 318.5,159.5C 318.167,159.5 317.833,159.5 317.5,159.5C 317.027,158.094 316.027,157.427 314.5,157.5C 312.42,155.427 310.754,153.093 309.5,150.5C 311.5,150.5 313.5,150.5 315.5,150.5C 315.808,148.076 315.474,145.743 314.5,143.5C 312.931,142.286 312.098,140.619 312,138.5C 310.814,136.323 308.981,135.323 306.5,135.5C 306.539,133.641 305.706,132.308 304,131.5C 303.774,127.113 303.274,122.779 302.5,118.5C 302.709,117.914 303.043,117.414 303.5,117C 302.033,115.902 301.199,114.402 301,112.5C 300.119,103.438 300.452,94.4377 302,85.5C 303.395,83.8603 304.895,82.3603 306.5,81C 305.667,78.9189 305.667,76.7522 306.5,74.5C 308.932,73.2498 311.266,71.7498 313.5,70C 318.311,68.5519 322.977,67.0519 327.5,65.5 Z"/></g>
<g><path style="opacity:1" fill="#bbe76b" d="M 334.5,65.5 C 338.416,65.0255 341.749,66.0255 344.5,68.5C 343.167,68.1667 341.833,67.8333 340.5,67.5C 338.214,67.405 336.214,66.7384 334.5,65.5 Z"/></g>
<g><path style="opacity:1" fill="#e6f7be" d="M 327.5,65.5 C 322.977,67.0519 318.311,68.5519 313.5,70C 311.266,71.7498 308.932,73.2498 306.5,74.5C 311.893,68.0071 318.893,65.0071 327.5,65.5 Z"/></g>
<g><path style="opacity:1" fill="#e1f5b2" d="M 340.5,67.5 C 341.833,67.8333 343.167,68.1667 344.5,68.5C 345.167,69.5 345.833,70.5 346.5,71.5C 344.147,70.6597 342.147,69.3264 340.5,67.5 Z"/></g>
<g><path style="opacity:1" fill="#e8f7bc" d="M 374.5,47.5 C 375.332,56.7086 376.332,66.0419 377.5,75.5C 376.833,75.1667 376.167,74.8333 375.5,74.5C 374.78,68.8623 374.447,63.1956 374.5,57.5C 374.5,54.1667 374.5,50.8333 374.5,47.5 Z"/></g>
<g><path style="opacity:1" fill="#d9f3a0" d="M 222.5,72.5 C 215.666,72.0648 208.999,72.7315 202.5,74.5C 201.167,74.8333 199.833,75.1667 198.5,75.5C 200.221,73.3057 202.555,72.139 205.5,72C 211.349,71.1816 217.015,71.3483 222.5,72.5 Z"/></g>
<g><path style="opacity:1" fill="#fdfdfc" d="M 222.5,72.5 C 225.221,72.9628 227.888,73.6295 230.5,74.5C 232.844,78.8519 236.511,81.5185 241.5,82.5C 242.075,84.4113 243.075,86.078 244.5,87.5C 245.759,91.647 247.759,95.3137 250.5,98.5C 250.5,98.8333 250.5,99.1667 250.5,99.5C 251.549,111.935 252.216,123.935 252.5,135.5C 251.191,141.262 249.525,146.929 247.5,152.5C 244.833,155.833 242.167,159.167 239.5,162.5C 230.157,168.415 219.824,170.749 208.5,169.5C 208.167,169.5 207.833,169.5 207.5,169.5C 205.491,167.935 203.157,166.935 200.5,166.5C 198.938,166.267 197.605,165.6 196.5,164.5C 194.263,161.386 191.597,158.719 188.5,156.5C 185.416,151.779 183.082,146.779 181.5,141.5C 181.535,130.433 180.869,119.433 179.5,108.5C 180.272,100.522 182.605,93.1891 186.5,86.5C 186.5,85.8333 186.5,85.1667 186.5,84.5C 188.5,83.1667 190.5,81.8333 192.5,80.5C 195.943,78.4554 199.276,76.4554 202.5,74.5C 208.999,72.7315 215.666,72.0648 222.5,72.5 Z"/></g>
<g><path style="opacity:1" fill="#f2fbd8" d="M 202.5,74.5 C 199.276,76.4554 195.943,78.4554 192.5,80.5C 193.167,79.5 193.833,78.5 194.5,77.5C 195.467,76.1938 196.801,75.5271 198.5,75.5C 199.833,75.1667 201.167,74.8333 202.5,74.5 Z"/></g>
<g><path style="opacity:1" fill="#d5f298" d="M 194.5,77.5 C 193.833,78.5 193.167,79.5 192.5,80.5C 190.5,81.8333 188.5,83.1667 186.5,84.5C 188.201,81.1368 190.867,78.8035 194.5,77.5 Z"/></g>
<g><path style="opacity:1" fill="#e7f7be" d="M 230.5,74.5 C 233.26,75.7437 235.927,77.2437 238.5,79C 239.71,80.0391 240.71,81.2058 241.5,82.5C 236.511,81.5185 232.844,78.8519 230.5,74.5 Z"/></g>
<g><path style="opacity:1" fill="#aee058" d="M 304.5,76.5 C 303.89,77.391 303.557,78.391 303.5,79.5C 302.167,80.8333 300.833,82.1667 299.5,83.5C 300.028,80.3119 301.695,77.9786 304.5,76.5 Z"/></g>
<g><path style="opacity:1" fill="#4c4b4c" d="M 338.5,83.5 C 337.84,84.964 337.507,86.6307 337.5,88.5C 337.556,90.6397 338.223,92.3064 339.5,93.5C 339.5,93.8333 339.5,94.1667 339.5,94.5C 339.511,96.0174 340.177,97.1841 341.5,98C 344.5,100.003 347.833,100.836 351.5,100.5C 351.992,105.324 352.659,109.99 353.5,114.5C 354.659,130.516 347.493,137.183 332,134.5C 327.868,131.895 325.701,128.228 325.5,123.5C 326.126,116.416 325.459,109.75 323.5,103.5C 323.218,98.0735 323.551,92.7401 324.5,87.5C 325.767,85.2274 327.433,83.2274 329.5,81.5C 332.786,80.7929 336.119,80.4595 339.5,80.5C 339.737,81.791 339.404,82.791 338.5,83.5 Z"/></g>
<g><path style="opacity:1" fill="#d8f1a0" d="M 303.5,79.5 C 302.105,82.4005 300.939,85.4005 300,88.5C 299.501,93.8229 299.334,99.1563 299.5,104.5C 298.513,99.6946 298.179,94.6946 298.5,89.5C 298.833,87.5 299.167,85.5 299.5,83.5C 300.833,82.1667 302.167,80.8333 303.5,79.5 Z"/></g>
<g><path style="opacity:1" fill="#d2ee96" d="M 375.5,74.5 C 376.167,74.8333 376.833,75.1667 377.5,75.5C 378.487,80.3054 378.821,85.3054 378.5,90.5C 378.5,93.8333 378.5,97.1667 378.5,100.5C 378.167,100.5 377.833,100.5 377.5,100.5C 377.81,97.2869 377.477,94.2869 376.5,91.5C 376.74,85.773 376.407,80.1064 375.5,74.5 Z"/></g>
<g><path style="opacity:1" fill="#dbdbdb" d="M 338.5,85.5 C 338.5,84.8333 338.5,84.1667 338.5,83.5C 339.404,82.791 339.737,81.791 339.5,80.5C 336.119,80.4595 332.786,80.7929 329.5,81.5C 331.807,79.9532 334.473,79.2865 337.5,79.5C 339.5,79.6667 341.5,79.8333 343.5,80C 345.26,80.9653 345.594,82.132 344.5,83.5C 343.476,82.1468 342.143,81.4802 340.5,81.5C 340.771,83.3797 340.104,84.713 338.5,85.5 Z"/></g>
<g><path style="opacity:1" fill="#989798" d="M 338.5,83.5 C 338.5,84.1667 338.5,84.8333 338.5,85.5C 338.401,88.2372 338.735,90.9039 339.5,93.5C 338.223,92.3064 337.556,90.6397 337.5,88.5C 337.507,86.6307 337.84,84.964 338.5,83.5 Z"/></g>
<g><path style="opacity:1" fill="#d3ef97" d="M 186.5,84.5 C 186.5,85.1667 186.5,85.8333 186.5,86.5C 185.167,87.5 183.833,88.5 182.5,89.5C 183.08,87.2512 184.413,85.5846 186.5,84.5 Z"/></g>
<g><path style="opacity:1" fill="#8d8c8d" d="M 228.5,89.5 C 227.726,88.8529 226.726,88.5195 225.5,88.5C 222.5,89 219.5,89.5 216.5,90C 215.529,91.4813 214.196,92.3146 212.5,92.5C 215.468,88.7378 219.468,87.0712 224.5,87.5C 226.167,87.8333 227.833,88.1667 229.5,88.5C 229.376,89.1067 229.043,89.44 228.5,89.5 Z"/></g>
<g><path style="opacity:1" fill="#4b4a4b" d="M 228.5,89.5 C 228.5,89.8333 228.5,90.1667 228.5,90.5C 227.252,91.3339 226.585,92.6672 226.5,94.5C 226.511,96.0451 226.844,97.3784 227.5,98.5C 228.749,101.09 230.416,103.424 232.5,105.5C 232.611,106.117 232.944,106.617 233.5,107C 236.146,107.497 238.813,107.664 241.5,107.5C 242.099,115.486 242.432,123.486 242.5,131.5C 241.518,133.406 240.518,135.406 239.5,137.5C 238.031,139.636 236.031,140.97 233.5,141.5C 228.5,142.833 223.5,142.833 218.5,141.5C 216.853,139.674 214.853,138.34 212.5,137.5C 211.527,135.851 210.527,134.184 209.5,132.5C 208.375,120.771 208.375,109.105 209.5,97.5C 209.75,95.326 210.75,93.6594 212.5,92.5C 214.196,92.3146 215.529,91.4813 216.5,90C 219.5,89.5 222.5,89 225.5,88.5C 226.726,88.5195 227.726,88.8529 228.5,89.5 Z"/></g>
<g><path style="opacity:1" fill="#f6fcd6" d="M 306.5,74.5 C 305.667,76.7522 305.667,78.9189 306.5,81C 304.895,82.3603 303.395,83.8603 302,85.5C 300.452,94.4377 300.119,103.438 301,112.5C 301.199,114.402 302.033,115.902 303.5,117C 303.043,117.414 302.709,117.914 302.5,118.5C 303.274,122.779 303.774,127.113 304,131.5C 305.706,132.308 306.539,133.641 306.5,135.5C 305.128,134.488 303.795,133.488 302.5,132.5C 301.883,126.016 300.883,119.683 299.5,113.5C 299.5,110.5 299.5,107.5 299.5,104.5C 299.334,99.1563 299.501,93.8229 300,88.5C 300.939,85.4005 302.105,82.4005 303.5,79.5C 303.557,78.391 303.89,77.391 304.5,76.5C 305.167,75.8333 305.833,75.1667 306.5,74.5 Z"/></g>
<g><path style="opacity:1" fill="#e6f7b9" d="M 347.5,71.5 C 350.167,73.5 352.5,75.8333 354.5,78.5C 358.988,85.8047 360.654,93.8047 359.5,102.5C 359.229,107.434 359.896,112.1 361.5,116.5C 362.989,125.777 362.655,135.11 360.5,144.5C 358.933,145.681 358.099,147.347 358,149.5C 357.184,150.823 356.017,151.489 354.5,151.5C 356.226,149.18 356.893,146.513 356.5,143.5C 357.5,143.5 358.5,143.5 359.5,143.5C 360.985,132.738 360.652,122.071 358.5,111.5C 358.85,100.078 357.017,89.0783 353,78.5C 350.546,76.5588 348.713,74.2254 347.5,71.5 Z"/></g>
<g><path style="opacity:1" fill="#a3dd43" d="M 246.5,86.5 C 247.496,86.4142 248.329,86.7476 249,87.5C 250.925,90.5833 252.092,93.9166 252.5,97.5C 251.833,96.8333 251.167,96.1667 250.5,95.5C 250.167,94.8333 249.833,94.1667 249.5,93.5C 249.075,90.8808 248.075,88.5475 246.5,86.5 Z"/></g>
<g><path style="opacity:1" fill="#d9f3a4" d="M 241.5,82.5 C 243.167,83.8333 244.833,85.1667 246.5,86.5C 248.075,88.5475 249.075,90.8808 249.5,93.5C 248.182,91.249 246.516,89.249 244.5,87.5C 243.075,86.078 242.075,84.4113 241.5,82.5 Z"/></g>
<g><path style="opacity:1" fill="#9e9e9e" d="M 324.5,87.5 C 323.551,92.7401 323.218,98.0735 323.5,103.5C 323.5,103.833 323.5,104.167 323.5,104.5C 322.836,101.854 322.502,99.0208 322.5,96C 322.519,92.7485 323.186,89.9151 324.5,87.5 Z"/></g>
<g><path style="opacity:1" fill="#f6fdd8" d="M 244.5,87.5 C 246.516,89.249 248.182,91.249 249.5,93.5C 249.833,94.1667 250.167,94.8333 250.5,95.5C 250.5,96.5 250.5,97.5 250.5,98.5C 247.759,95.3137 245.759,91.647 244.5,87.5 Z"/></g>
<g><path style="opacity:1" fill="#9dcd4a" d="M 108.5,86.5 C 109.148,88.4982 109.981,90.4982 111,92.5C 111.823,100.677 111.656,108.677 110.5,116.5C 110.494,106.451 109.827,96.4511 108.5,86.5 Z"/></g>
<g><path style="opacity:1" fill="#8e8e8e" d="M 228.5,90.5 C 227.908,93.1272 227.575,95.7938 227.5,98.5C 226.844,97.3784 226.511,96.0451 226.5,94.5C 226.585,92.6672 227.252,91.3339 228.5,90.5 Z"/></g>
<g><path style="opacity:1" fill="#bde671" d="M 182.5,89.5 C 180.676,93.8133 179.01,98.1466 177.5,102.5C 177.846,99.1149 178.512,95.7816 179.5,92.5C 179.868,90.8247 180.868,89.8247 182.5,89.5 Z"/></g>
<g><path style="opacity:1" fill="#d4f19b" d="M 250.5,95.5 C 251.167,96.1667 251.833,96.8333 252.5,97.5C 252.5,97.8333 252.5,98.1667 252.5,98.5C 252.5,99.8333 252.5,101.167 252.5,102.5C 251.833,101.5 251.167,100.5 250.5,99.5C 250.5,99.1667 250.5,98.8333 250.5,98.5C 250.5,97.5 250.5,96.5 250.5,95.5 Z"/></g>
<g><path style="opacity:1" fill="#cfcecf" d="M 207.5,98.5 C 206.671,103.453 206.337,108.453 206.5,113.5C 205.353,109.354 205.186,105.02 206,100.5C 206.278,99.5842 206.778,98.9175 207.5,98.5 Z"/></g>
<g><path style="opacity:1" fill="#717071" d="M 209.5,97.5 C 208.375,109.105 208.375,120.771 209.5,132.5C 208.732,131.737 208.232,130.737 208,129.5C 207.827,123.984 207.327,118.651 206.5,113.5C 206.337,108.453 206.671,103.453 207.5,98.5C 207.842,97.6618 208.508,97.3284 209.5,97.5 Z"/></g>
<g><path style="opacity:1" fill="#a6de49" d="M 354.5,78.5 C 355.822,78.33 356.989,78.6634 358,79.5C 360.335,89.0052 361.501,98.6718 361.5,108.5C 360.833,106.5 360.167,104.5 359.5,102.5C 360.654,93.8047 358.988,85.8047 354.5,78.5 Z"/></g>
<g><path style="opacity:1" fill="#e7f6ba" d="M 378.5,90.5 C 380.269,100.616 381.269,110.949 381.5,121.5C 382.5,121.5 383.5,121.5 384.5,121.5C 384.5,121.833 384.5,122.167 384.5,122.5C 382.833,122.5 381.167,122.5 379.5,122.5C 379.451,115.151 379.118,107.817 378.5,100.5C 378.5,97.1667 378.5,93.8333 378.5,90.5 Z"/></g>
<g><path style="opacity:1" fill="#686768" d="M 323.5,103.5 C 325.459,109.75 326.126,116.416 325.5,123.5C 324.253,117.37 323.586,111.037 323.5,104.5C 323.5,104.167 323.5,103.833 323.5,103.5 Z"/></g>
<g><path style="opacity:1" fill="#a5a5a4" d="M 339.5,94.5 C 343.519,97.837 348.186,99.5037 353.5,99.5C 353.5,104.5 353.5,109.5 353.5,114.5C 352.659,109.99 351.992,105.324 351.5,100.5C 347.833,100.836 344.5,100.003 341.5,98C 340.177,97.1841 339.511,96.0174 339.5,94.5 Z"/></g>
<g><path style="opacity:1" fill="#c9e98f" d="M 467.5,107.5 C 467.167,107.5 466.833,107.5 466.5,107.5C 459.464,106.419 452.464,106.752 445.5,108.5C 445.918,107.778 446.584,107.278 447.5,107C 451.298,106.228 455.131,105.728 459,105.5C 462.15,105.36 464.983,106.027 467.5,107.5 Z"/></g>
<g><path style="opacity:1" fill="#b7e369" d="M 298.5,89.5 C 298.179,94.6946 298.513,99.6946 299.5,104.5C 299.5,107.5 299.5,110.5 299.5,113.5C 299.5,114.5 299.5,115.5 299.5,116.5C 299.167,116.5 298.833,116.5 298.5,116.5C 297.604,107.334 297.604,98.3337 298.5,89.5 Z"/></g>
<g><path style="opacity:1" fill="#c1e77c" d="M 252.5,102.5 C 254.228,108.238 254.895,114.238 254.5,120.5C 254.167,120.5 253.833,120.5 253.5,120.5C 253.498,114.477 253.165,108.477 252.5,102.5 Z"/></g>
<g><path style="opacity:1" fill="#d6efa8" d="M 444.5,108.5 C 440.736,109.992 436.736,110.992 432.5,111.5C 436.126,109.502 440.126,108.502 444.5,108.5 Z"/></g>
<g><path style="opacity:1" fill="#f9fddf" d="M 186.5,86.5 C 182.605,93.1891 180.272,100.522 179.5,108.5C 180.869,119.433 181.535,130.433 181.5,141.5C 180.833,139.5 180.167,137.5 179.5,135.5C 179.872,129.57 179.205,123.903 177.5,118.5C 177.5,113.167 177.5,107.833 177.5,102.5C 179.01,98.1466 180.676,93.8133 182.5,89.5C 183.833,88.5 185.167,87.5 186.5,86.5 Z"/></g>
<g><path style="opacity:1" fill="#ddf0a9" d="M 467.5,107.5 C 470.92,108.357 473.254,110.357 474.5,113.5C 471.507,112.167 469.173,110.167 467.5,107.5 Z"/></g>
<g><path style="opacity:1" fill="#c2e77c" d="M 359.5,102.5 C 360.167,104.5 360.833,106.5 361.5,108.5C 361.5,111.167 361.5,113.833 361.5,116.5C 359.896,112.1 359.229,107.434 359.5,102.5 Z"/></g>
<g><path style="opacity:1" fill="#d4eea2" d="M 430.5,111.5 C 426.837,113.416 422.837,114.416 418.5,114.5C 422.2,112.755 426.2,111.755 430.5,111.5 Z"/></g>
<g><path style="opacity:1" fill="#a6da56" d="M 41.5,114.5 C 41.5,114.833 41.5,115.167 41.5,115.5C 31.8009,115.275 22.1343,115.608 12.5,116.5C 12.5,116.167 12.5,115.833 12.5,115.5C 21.9856,114.506 31.6522,114.173 41.5,114.5 Z"/></g>
<g><path style="opacity:1" fill="#a6de49" d="M 252.5,98.5 C 253.158,99.3984 253.824,100.398 254.5,101.5C 255.839,116.146 256.339,130.813 256,145.5C 253.041,149.801 249.874,153.801 246.5,157.5C 247.502,155.989 248.169,154.322 248.5,152.5C 250.539,151.089 251.539,149.089 251.5,146.5C 254.077,142.673 255.411,138.34 255.5,133.5C 254.799,129.192 254.466,124.859 254.5,120.5C 254.895,114.238 254.228,108.238 252.5,102.5C 252.5,101.167 252.5,99.8333 252.5,98.5 Z"/></g>
<g><path style="opacity:1" fill="#d3eea4" d="M 417.5,114.5 C 413.8,116.245 409.8,117.245 405.5,117.5C 409.159,115.658 413.159,114.658 417.5,114.5 Z"/></g>
<g><path style="opacity:1" fill="#cfed9a" d="M 404.5,117.5 C 400.8,119.245 396.8,120.245 392.5,120.5C 396.159,118.658 400.159,117.658 404.5,117.5 Z"/></g>
<g><path style="opacity:1" fill="#e1f3b2" d="M 12.5,115.5 C 12.5,115.833 12.5,116.167 12.5,116.5C 8.63187,118.029 5.29854,120.363 2.5,123.5C 4.34674,118.988 7.68008,116.321 12.5,115.5 Z"/></g>
<g><path style="opacity:1" fill="#9dd642" d="M 377.5,100.5 C 377.833,100.5 378.167,100.5 378.5,100.5C 379.118,107.817 379.451,115.151 379.5,122.5C 381.167,122.5 382.833,122.5 384.5,122.5C 383.817,124.176 382.483,124.843 380.5,124.5C 379.168,123.17 378.335,121.503 378,119.5C 377.5,113.175 377.334,106.842 377.5,100.5 Z"/></g>
<g><path style="opacity:1" fill="#fdfeeb" d="M 358.5,111.5 C 360.652,122.071 360.985,132.738 359.5,143.5C 358.5,143.5 357.5,143.5 356.5,143.5C 358.6,133.755 359.1,123.755 358,113.5C 354.526,110.924 354.693,110.257 358.5,111.5 Z"/></g>
<g><path style="opacity:1" fill="#c5e887" d="M 390.5,120.5 C 388.898,122.074 386.898,122.741 384.5,122.5C 384.5,122.167 384.5,121.833 384.5,121.5C 386.435,120.85 388.435,120.517 390.5,120.5 Z"/></g>
<g><path style="opacity:1" fill="#757575" d="M 232.5,105.5 C 236.314,105.734 239.814,106.734 243,108.5C 243.822,116.345 243.656,124.011 242.5,131.5C 242.432,123.486 242.099,115.486 241.5,107.5C 238.813,107.664 236.146,107.497 233.5,107C 232.944,106.617 232.611,106.117 232.5,105.5 Z"/></g>
<g><path style="opacity:1" fill="#e2f2a6" d="M 299.5,113.5 C 300.883,119.683 301.883,126.016 302.5,132.5C 301.167,132.5 300.5,131.833 300.5,130.5C 300.331,125.819 299.998,121.152 299.5,116.5C 299.5,115.5 299.5,114.5 299.5,113.5 Z"/></g>
<g><path style="opacity:1" fill="#87c824" d="M 466.5,107.5 C 466.833,107.5 467.167,107.5 467.5,107.5C 469.173,110.167 471.507,112.167 474.5,113.5C 475.789,117.377 476.456,121.377 476.5,125.5C 475.669,131.494 474.836,137.494 474,143.5C 473.617,144.056 473.117,144.389 472.5,144.5C 471.212,134.052 471.212,123.719 472.5,113.5C 470.876,113.64 469.71,112.973 469,111.5C 468.667,112.833 468.333,114.167 468,115.5C 467.433,112.832 466.933,110.166 466.5,107.5 Z"/></g>
<g><path style="opacity:1" fill="#abdd57" d="M 177.5,102.5 C 177.5,107.833 177.5,113.167 177.5,118.5C 177.334,122.846 177.501,127.179 178,131.5C 178.21,133.058 178.71,134.391 179.5,135.5C 179.5,137.167 179.5,138.833 179.5,140.5C 178.839,139.282 178.172,137.949 177.5,136.5C 176.176,125.007 176.176,113.674 177.5,102.5 Z"/></g>
<g><path style="opacity:1" fill="#d3ef97" d="M 177.5,118.5 C 179.205,123.903 179.872,129.57 179.5,135.5C 178.71,134.391 178.21,133.058 178,131.5C 177.501,127.179 177.334,122.846 177.5,118.5 Z"/></g>
<g><path style="opacity:1" fill="#abd81f" d="M 298.5,116.5 C 298.833,116.5 299.167,116.5 299.5,116.5C 299.998,121.152 300.331,125.819 300.5,130.5C 295.227,129.399 289.894,128.733 284.5,128.5C 289.021,127.322 293.688,127.322 298.5,128.5C 298.5,124.5 298.5,120.5 298.5,116.5 Z"/></g>
<g><path style="opacity:1" fill="#fdca04" d="M 284.5,128.5 C 289.894,128.733 295.227,129.399 300.5,130.5C 300.5,131.833 301.167,132.5 302.5,132.5C 303.795,133.488 305.128,134.488 306.5,135.5C 310.334,139.585 313.001,144.252 314.5,149.5C 312.585,149.216 310.919,149.549 309.5,150.5C 308.833,150.5 308.167,150.5 307.5,150.5C 304.833,150.5 302.167,150.5 299.5,150.5C 299.5,151.5 299.5,152.5 299.5,153.5C 298.596,152.791 298.263,151.791 298.5,150.5C 289.001,150.949 279.668,151.615 270.5,152.5C 270.5,152.833 270.5,153.167 270.5,153.5C 269.833,153.5 269.167,153.5 268.5,153.5C 267.167,153.5 265.833,153.5 264.5,153.5C 264.167,153.5 263.833,153.5 263.5,153.5C 262.833,153.5 262.167,153.5 261.5,153.5C 261.458,149.991 262.124,146.658 263.5,143.5C 263.351,142.448 263.517,141.448 264,140.5C 269.471,134.02 276.304,130.02 284.5,128.5 Z"/></g>
<g><path style="opacity:1" fill="#f9fddf" d="M 250.5,99.5 C 251.167,100.5 251.833,101.5 252.5,102.5C 253.165,108.477 253.498,114.477 253.5,120.5C 253.865,129.268 253.199,137.935 251.5,146.5C 251.539,149.089 250.539,151.089 248.5,152.5C 248.167,152.5 247.833,152.5 247.5,152.5C 249.525,146.929 251.191,141.262 252.5,135.5C 252.216,123.935 251.549,111.935 250.5,99.5 Z"/></g>
<g><path style="opacity:1" fill="#e3f6b4" d="M 253.5,120.5 C 253.833,120.5 254.167,120.5 254.5,120.5C 254.466,124.859 254.799,129.192 255.5,133.5C 255.411,138.34 254.077,142.673 251.5,146.5C 253.199,137.935 253.865,129.268 253.5,120.5 Z"/></g>
<g><path style="opacity:1" fill="#f5fcd5" d="M -0.5,130.5 C -0.166667,130.5 0.166667,130.5 0.5,130.5C 0.674116,132.861 1.00745,135.194 1.5,137.5C 0.833333,136.833 0.166667,136.167 -0.5,135.5C -0.5,133.833 -0.5,132.167 -0.5,130.5 Z"/></g>
<g><path style="opacity:1" fill="#dff5ae" d="M 179.5,135.5 C 180.167,137.5 180.833,139.5 181.5,141.5C 181.5,142.833 181.5,144.167 181.5,145.5C 180.069,144.22 179.402,142.553 179.5,140.5C 179.5,138.833 179.5,137.167 179.5,135.5 Z"/></g>
<g><path style="opacity:1" fill="#fdedc2" d="M 306.5,135.5 C 308.981,135.323 310.814,136.323 312,138.5C 312.098,140.619 312.931,142.286 314.5,143.5C 315.474,145.743 315.808,148.076 315.5,150.5C 313.5,150.5 311.5,150.5 309.5,150.5C 310.919,149.549 312.585,149.216 314.5,149.5C 313.001,144.252 310.334,139.585 306.5,135.5 Z"/></g>
<g><path style="opacity:1" fill="#848384" d="M 212.5,137.5 C 214.853,138.34 216.853,139.674 218.5,141.5C 215.634,141.367 213.634,140.034 212.5,137.5 Z"/></g>
<g><path style="opacity:1" fill="#9ed83e" d="M 361.5,108.5 C 362.829,113.792 363.496,119.458 363.5,125.5C 363.167,131.167 362.833,136.833 362.5,142.5C 361.818,143.243 361.151,143.909 360.5,144.5C 362.655,135.11 362.989,125.777 361.5,116.5C 361.5,113.833 361.5,111.167 361.5,108.5 Z"/></g>
<g><path style="opacity:1" fill="#999999" d="M 218.5,141.5 C 223.5,142.833 228.5,142.833 233.5,141.5C 231.603,142.805 229.269,143.471 226.5,143.5C 224.167,143.333 221.833,143.167 219.5,143C 218.944,142.617 218.611,142.117 218.5,141.5 Z"/></g>
<g><path style="opacity:1" fill="#d7eda3" d="M 2.5,123.5 C 2.33391,129.176 2.50058,134.843 3,140.5C 4.73226,143.295 5.89893,146.295 6.5,149.5C 6.83333,150.833 7.16667,152.167 7.5,153.5C 6.88258,153.389 6.38258,153.056 6,152.5C 3.90541,147.653 2.40541,142.653 1.5,137.5C 1.00745,135.194 0.674116,132.861 0.5,130.5C 0.721485,127.933 1.38815,125.599 2.5,123.5 Z"/></g>
<g><path style="opacity:1" fill="#c9ce00" d="M 263.5,143.5 C 262.124,146.658 261.458,149.991 261.5,153.5C 261.167,153.5 260.833,153.5 260.5,153.5C 260.335,150.482 260.502,147.482 261,144.5C 261.671,143.748 262.504,143.414 263.5,143.5 Z"/></g>
<g><path style="opacity:1" fill="#a2dd44" d="M 360.5,144.5 C 361.119,149.206 359.119,151.873 354.5,152.5C 354.5,152.167 354.5,151.833 354.5,151.5C 356.017,151.489 357.184,150.823 358,149.5C 358.099,147.347 358.933,145.681 360.5,144.5 Z"/></g>
<g><path style="opacity:1" fill="#f5fcd8" d="M 181.5,141.5 C 183.082,146.779 185.416,151.779 188.5,156.5C 187.508,156.672 186.842,156.338 186.5,155.5C 186.25,153.326 185.25,151.659 183.5,150.5C 182.463,149.07 181.796,147.403 181.5,145.5C 181.5,144.167 181.5,142.833 181.5,141.5 Z"/></g>
<g><path style="opacity:1" fill="#dbf19f" d="M 307.5,150.5 C 308.167,150.5 308.833,150.5 309.5,150.5C 310.754,153.093 312.42,155.427 314.5,157.5C 311.907,156.246 309.573,154.58 307.5,152.5C 307.5,151.833 307.5,151.167 307.5,150.5 Z"/></g>
<g><path style="opacity:1" fill="#e06d03" d="M 270.5,152.5 C 279.5,152.5 288.5,152.5 297.5,152.5C 299.813,161.01 300.647,169.676 300,178.5C 298.274,180.015 296.774,181.682 295.5,183.5C 294.831,181.369 294.165,179.369 293.5,177.5C 293.771,175.62 293.104,174.287 291.5,173.5C 291.068,172.29 290.401,171.29 289.5,170.5C 288.272,169.694 287.272,168.694 286.5,167.5C 284.377,165.203 281.71,163.87 278.5,163.5C 276.735,162.539 274.735,162.205 272.5,162.5C 271.883,162.389 271.383,162.056 271,161.5C 270.764,159.236 270.264,157.069 269.5,155C 270.056,154.617 270.389,154.117 270.5,153.5C 270.5,153.167 270.5,152.833 270.5,152.5 Z"/></g>
<g><path style="opacity:1" fill="#e4f5b9" d="M 474.5,113.5 C 476.563,115.449 477.896,117.782 478.5,120.5C 478.5,122.5 478.5,124.5 478.5,126.5C 476.871,137.561 474.371,148.561 471,159.5C 470.623,160.942 469.79,161.942 468.5,162.5C 469.167,160.5 469.833,158.5 470.5,156.5C 470.878,154.079 471.545,151.746 472.5,149.5C 472.5,147.833 472.5,146.167 472.5,144.5C 473.117,144.389 473.617,144.056 474,143.5C 474.836,137.494 475.669,131.494 476.5,125.5C 476.456,121.377 475.789,117.377 474.5,113.5 Z"/></g>
<g><path style="opacity:1" fill="#8ac82a" d="M 6.5,149.5 C 7.70792,150.234 9.04125,150.567 10.5,150.5C 10.238,151.978 10.5713,153.311 11.5,154.5C 14.1347,154.894 14.8014,156.061 13.5,158C 14.4725,158.349 15.3058,159.182 16,160.5C 15.5675,164.821 17.0675,168.154 20.5,170.5C 21.086,170.291 21.586,169.957 22,169.5C 22.1161,172.932 23.2828,175.932 25.5,178.5C 26.2739,179.711 27.1072,179.711 28,178.5C 28.4396,180.866 28.9396,183.199 29.5,185.5C 28.1667,184.5 26.8333,183.5 25.5,182.5C 24.9744,180.77 23.9744,179.436 22.5,178.5C 19.8573,173.868 16.8573,169.535 13.5,165.5C 12.6147,161.134 10.6147,157.468 7.5,154.5C 7.5,154.167 7.5,153.833 7.5,153.5C 7.16667,152.167 6.83333,150.833 6.5,149.5 Z"/></g>
<g><path style="opacity:1" fill="#c9ec84" d="M 183.5,150.5 C 185.25,151.659 186.25,153.326 186.5,155.5C 186.167,155.5 185.833,155.5 185.5,155.5C 184.069,154.22 183.402,152.553 183.5,150.5 Z"/></g>
<g><path style="opacity:1" fill="#f49408" d="M 299.5,153.5 C 301.967,162.563 303.134,171.897 303,181.5C 301.681,183.287 300.848,185.287 300.5,187.5C 297.167,189.501 293.833,191.501 290.5,193.5C 286.685,194.808 283.019,194.808 279.5,193.5C 276.314,192.348 273.314,190.681 270.5,188.5C 268.318,186.269 266.985,183.602 266.5,180.5C 265.989,171.842 265.656,163.175 265.5,154.5C 266.791,154.737 267.791,154.404 268.5,153.5C 269.167,153.5 269.833,153.5 270.5,153.5C 270.389,154.117 270.056,154.617 269.5,155C 270.264,157.069 270.764,159.236 271,161.5C 271.383,162.056 271.883,162.389 272.5,162.5C 271.258,164.611 271.258,166.611 272.5,168.5C 272.335,171.518 272.502,174.518 273,177.5C 273.383,178.056 273.883,178.389 274.5,178.5C 276.188,181.188 278.522,183.188 281.5,184.5C 284.645,185.803 287.645,185.803 290.5,184.5C 291.492,184.672 292.158,184.338 292.5,183.5C 293.461,181.735 293.795,179.735 293.5,177.5C 294.165,179.369 294.831,181.369 295.5,183.5C 296.774,181.682 298.274,180.015 300,178.5C 300.647,169.676 299.813,161.01 297.5,152.5C 288.5,152.5 279.5,152.5 270.5,152.5C 279.668,151.615 289.001,150.949 298.5,150.5C 298.263,151.791 298.596,152.791 299.5,153.5 Z"/></g>
<g><path style="opacity:1" fill="#e1f3b2" d="M 7.5,154.5 C 10.6147,157.468 12.6147,161.134 13.5,165.5C 10.7417,162.322 8.74169,158.655 7.5,154.5 Z"/></g>
<g><path style="opacity:1" fill="#e5f7b9" d="M 354.5,151.5 C 354.5,151.833 354.5,152.167 354.5,152.5C 352.374,155.96 349.374,158.293 345.5,159.5C 348.474,156.862 351.474,154.195 354.5,151.5 Z"/></g>
<g><path style="opacity:1" fill="#e9f8c3" d="M 188.5,156.5 C 191.597,158.719 194.263,161.386 196.5,164.5C 194.938,164.267 193.605,163.6 192.5,162.5C 190.748,160.754 189.415,158.754 188.5,156.5 Z"/></g>
<g><path style="opacity:1" fill="#9abc10" d="M 307.5,150.5 C 307.5,151.167 307.5,151.833 307.5,152.5C 302.962,150.76 301.629,152.093 303.5,156.5C 303.169,160.759 304.002,164.759 306,168.5C 306.667,173.167 306.667,177.833 306,182.5C 305.248,185.421 303.415,187.087 300.5,187.5C 300.848,185.287 301.681,183.287 303,181.5C 303.134,171.897 301.967,162.563 299.5,153.5C 299.5,152.5 299.5,151.5 299.5,150.5C 302.167,150.5 304.833,150.5 307.5,150.5 Z"/></g>
<g><path style="opacity:1" fill="#d4f199" d="M 314.5,157.5 C 316.027,157.427 317.027,158.094 317.5,159.5C 315.973,159.573 314.973,158.906 314.5,157.5 Z"/></g>
<g><path style="opacity:1" fill="#b6dc72" d="M 470.5,156.5 C 469.833,158.5 469.167,160.5 468.5,162.5C 468.5,162.833 468.5,163.167 468.5,163.5C 468.167,163.5 467.833,163.5 467.5,163.5C 466.908,160.369 467.908,158.036 470.5,156.5 Z"/></g>
<g><path style="opacity:1" fill="#eaf9c0" d="M 247.5,152.5 C 247.833,152.5 248.167,152.5 248.5,152.5C 248.169,154.322 247.502,155.989 246.5,157.5C 244.445,159.555 242.112,161.221 239.5,162.5C 242.167,159.167 244.833,155.833 247.5,152.5 Z"/></g>
<g><path style="opacity:1" fill="#a3dd42" d="M 185.5,155.5 C 185.833,155.5 186.167,155.5 186.5,155.5C 186.842,156.338 187.508,156.672 188.5,156.5C 189.415,158.754 190.748,160.754 192.5,162.5C 188.608,161.711 186.275,159.378 185.5,155.5 Z"/></g>
<g><path style="opacity:1" fill="#e2f6b3" d="M 318.5,159.5 C 321.481,159.182 323.815,160.182 325.5,162.5C 322.509,162.834 320.176,161.834 318.5,159.5 Z"/></g>
<g><path style="opacity:1" fill="#c2e87b" d="M 345.5,159.5 C 343.815,161.818 341.481,162.818 338.5,162.5C 340.604,161.088 342.937,160.088 345.5,159.5 Z"/></g>
<g><path style="opacity:1" fill="#e19f02" d="M 264.5,153.5 C 265.833,153.5 267.167,153.5 268.5,153.5C 267.791,154.404 266.791,154.737 265.5,154.5C 265.656,163.175 265.989,171.842 266.5,180.5C 264.903,171.717 264.236,162.717 264.5,153.5 Z"/></g>
<g><path style="opacity:1" fill="#f7ac8a" d="M 272.5,162.5 C 274.735,162.205 276.735,162.539 278.5,163.5C 274.062,162.425 272.062,164.092 272.5,168.5C 271.258,166.611 271.258,164.611 272.5,162.5 Z"/></g>
<g><path style="opacity:1" fill="#fdbfcb" d="M 278.5,163.5 C 281.71,163.87 284.377,165.203 286.5,167.5C 282.764,165.528 278.764,164.528 274.5,164.5C 274.328,166.492 274.995,168.158 276.5,169.5C 275.511,170.468 274.844,171.635 274.5,173C 277.085,180.475 282.418,184.308 290.5,184.5C 287.645,185.803 284.645,185.803 281.5,184.5C 278.522,183.188 276.188,181.188 274.5,178.5C 273.99,175.017 273.323,171.684 272.5,168.5C 272.062,164.092 274.062,162.425 278.5,163.5 Z"/></g>
<g><path style="opacity:1" fill="#fecafb" d="M 286.5,167.5 C 287.272,168.694 288.272,169.694 289.5,170.5C 289.639,173.757 290.306,176.924 291.5,180C 291.395,181.592 291.061,183.092 290.5,184.5C 282.418,184.308 277.085,180.475 274.5,173C 274.844,171.635 275.511,170.468 276.5,169.5C 274.995,168.158 274.328,166.492 274.5,164.5C 278.764,164.528 282.764,165.528 286.5,167.5 Z"/></g>
<g><path style="opacity:1" fill="#a6e340" d="M 246.5,157.5 C 242.99,164.941 236.99,168.941 228.5,169.5C 230.858,167.871 233.524,166.705 236.5,166C 237.365,164.641 238.365,163.474 239.5,162.5C 242.112,161.221 244.445,159.555 246.5,157.5 Z"/></g>
<g><path style="opacity:1" fill="#d1ef93" d="M 200.5,166.5 C 203.157,166.935 205.491,167.935 207.5,169.5C 204.509,169.834 202.176,168.834 200.5,166.5 Z"/></g>
<g><path style="opacity:1" fill="#f0f9cc" d="M 467.5,167.5 C 467.068,168.71 466.401,169.71 465.5,170.5C 465.285,168.821 465.952,167.821 467.5,167.5 Z"/></g>
<g><path style="opacity:1" fill="#e5f6ba" d="M 239.5,162.5 C 238.365,163.474 237.365,164.641 236.5,166C 233.524,166.705 230.858,167.871 228.5,169.5C 223.203,170.275 217.87,170.608 212.5,170.5C 210.901,170.768 209.568,170.434 208.5,169.5C 219.824,170.749 230.157,168.415 239.5,162.5 Z"/></g>
<g><path style="opacity:1" fill="#ddf1ad" d="M 13.5,165.5 C 16.8573,169.535 19.8573,173.868 22.5,178.5C 18.3961,175.041 15.3961,170.708 13.5,165.5 Z"/></g>
<g><path style="opacity:1" fill="#afe451" d="M 228.5,169.5 C 225.644,171.006 222.477,171.672 219,171.5C 216.639,171.496 214.473,171.163 212.5,170.5C 217.87,170.608 223.203,170.275 228.5,169.5 Z"/></g>
<g><path style="opacity:1" fill="#d8eea5" d="M 467.5,163.5 C 467.833,163.5 468.167,163.5 468.5,163.5C 468.768,165.099 468.434,166.432 467.5,167.5C 465.952,167.821 465.285,168.821 465.5,170.5C 465.346,172.97 464.346,174.97 462.5,176.5C 463.299,171.856 464.966,167.522 467.5,163.5 Z"/></g>
<g><path style="opacity:1" fill="#f5a869" d="M 272.5,168.5 C 273.323,171.684 273.99,175.017 274.5,178.5C 273.883,178.389 273.383,178.056 273,177.5C 272.502,174.518 272.335,171.518 272.5,168.5 Z"/></g>
<g><path style="opacity:1" fill="#9dbc0c" d="M 263.5,153.5 C 263.833,153.5 264.167,153.5 264.5,153.5C 264.236,162.717 264.903,171.717 266.5,180.5C 266.985,183.602 268.318,186.269 270.5,188.5C 268.983,188.489 267.816,187.823 267,186.5C 266.887,184.026 265.887,182.026 264,180.5C 263.5,171.506 263.334,162.506 263.5,153.5 Z"/></g>
<g><path style="opacity:1" fill="#85c822" d="M 472.5,149.5 C 471.545,151.746 470.878,154.079 470.5,156.5C 467.908,158.036 466.908,160.369 467.5,163.5C 464.966,167.522 463.299,171.856 462.5,176.5C 460.273,177.401 459.273,179.067 459.5,181.5C 459.5,181.833 459.5,182.167 459.5,182.5C 457.034,184.093 454.867,186.093 453,188.5C 451.396,191.986 449.563,195.319 447.5,198.5C 446.833,198.833 446.167,199.167 445.5,199.5C 445.461,198.417 445.127,197.417 444.5,196.5C 447.253,194.911 449.086,192.578 450,189.5C 450.333,189.833 450.667,190.167 451,190.5C 451.413,187.768 452.08,185.101 453,182.5C 453.333,183.167 453.667,183.833 454,184.5C 455.946,181.861 456.946,178.861 457,175.5C 458.309,173.109 459.309,173.109 460,175.5C 459.892,171.843 459.892,168.177 460,164.5C 460.216,166.384 460.883,168.051 462,169.5C 462.186,167.1 462.686,164.766 463.5,162.5C 464.167,162.833 464.833,163.167 465.5,163.5C 466.706,161.516 466.706,159.516 465.5,157.5C 467.504,155.636 468.837,152.969 469.5,149.5C 470.5,149.5 471.5,149.5 472.5,149.5 Z"/></g>
<g><path style="opacity:1" fill="#ffbdca" d="M 289.5,170.5 C 290.401,171.29 291.068,172.29 291.5,173.5C 292.324,176.764 292.658,180.098 292.5,183.5C 292.158,184.338 291.492,184.672 290.5,184.5C 291.061,183.092 291.395,181.592 291.5,180C 290.306,176.924 289.639,173.757 289.5,170.5 Z"/></g>
<g><path style="opacity:1" fill="#f5a77c" d="M 291.5,173.5 C 293.104,174.287 293.771,175.62 293.5,177.5C 293.795,179.735 293.461,181.735 292.5,183.5C 292.658,180.098 292.324,176.764 291.5,173.5 Z"/></g>
<g><path style="opacity:1" fill="#e1f3b0" d="M 462.5,176.5 C 462.727,178.933 461.727,180.599 459.5,181.5C 459.273,179.067 460.273,177.401 462.5,176.5 Z"/></g>
<g><path style="opacity:1" fill="#daf1a7" d="M 22.5,178.5 C 23.9744,179.436 24.9744,180.77 25.5,182.5C 23.0882,182.306 22.0882,180.973 22.5,178.5 Z"/></g>
<g><path style="opacity:1" fill="#ddf0ae" d="M 25.5,182.5 C 26.8333,183.5 28.1667,184.5 29.5,185.5C 30.1098,186.391 30.4431,187.391 30.5,188.5C 28.086,187.089 26.4194,185.089 25.5,182.5 Z"/></g>
<g><path style="opacity:1" fill="#d2ea9c" d="M 459.5,182.5 C 456.344,187.472 453.177,192.472 450,197.5C 449.329,198.252 448.496,198.586 447.5,198.5C 449.563,195.319 451.396,191.986 453,188.5C 454.867,186.093 457.034,184.093 459.5,182.5 Z"/></g>
<g><path style="opacity:1" fill="#dff2b2" d="M 30.5,188.5 C 33.1184,190.452 35.4518,192.785 37.5,195.5C 34.1667,194.167 31.8333,191.833 30.5,188.5 Z"/></g>
<g><path style="opacity:1" fill="#a3bb13" d="M 270.5,188.5 C 273.314,190.681 276.314,192.348 279.5,193.5C 276.729,193.579 274.063,193.079 271.5,192C 270.663,190.989 270.33,189.822 270.5,188.5 Z"/></g>
<g><path style="opacity:1" fill="#dff3ba" d="M 37.5,195.5 C 38.5,195.833 39.1667,196.5 39.5,197.5C 38.1667,197.5 37.5,196.833 37.5,195.5 Z"/></g>
<g><path style="opacity:1" fill="#d4eba2" d="M 39.5,197.5 C 42.4274,198.757 44.7607,200.757 46.5,203.5C 43.5726,202.243 41.2393,200.243 39.5,197.5 Z"/></g>
<g><path style="opacity:1" fill="#d2ed9b" d="M 46.5,203.5 C 48.4044,203.738 49.7377,204.738 50.5,206.5C 48.5956,206.262 47.2623,205.262 46.5,203.5 Z"/></g>
<g><path style="opacity:1" fill="#def1ac" d="M 447.5,198.5 C 442.566,206.435 436.233,213.102 428.5,218.5C 434.523,212.478 440.189,206.145 445.5,199.5C 446.167,199.167 446.833,198.833 447.5,198.5 Z"/></g>
<g><path style="opacity:1" fill="#d7eea1" d="M 50.5,206.5 C 52.4044,206.738 53.7377,207.738 54.5,209.5C 52.5956,209.262 51.2623,208.262 50.5,206.5 Z"/></g>
<g><path style="opacity:1" fill="#c8e590" d="M 54.5,209.5 C 58.1737,209.707 60.8404,211.374 62.5,214.5C 59.197,213.849 56.5303,212.182 54.5,209.5 Z"/></g>
<g><path style="opacity:1" fill="#d7efa3" d="M 64.5,215.5 C 66.0269,215.427 67.0269,216.094 67.5,217.5C 65.9731,217.573 64.9731,216.906 64.5,215.5 Z"/></g>
<g><path style="opacity:1" fill="#e5f6bd" d="M 427.5,219.5 C 426.738,221.262 425.404,222.262 423.5,222.5C 424.262,220.738 425.596,219.738 427.5,219.5 Z"/></g>
<g><path style="opacity:1" fill="#c5e58a" d="M 423.5,222.5 C 422.564,223.974 421.23,224.974 419.5,225.5C 419.5,224.5 419.5,223.5 419.5,222.5C 420.833,222.5 422.167,222.5 423.5,222.5 Z"/></g>
<g><path style="opacity:1" fill="#d4eea5" d="M 76.5,221.5 C 78.9674,221.755 80.9674,222.755 82.5,224.5C 80.0326,224.245 78.0326,223.245 76.5,221.5 Z"/></g>
<g><path style="opacity:1" fill="#daf1ad" d="M 83.5,224.5 C 86.2718,224.759 88.6051,225.759 90.5,227.5C 87.7282,227.241 85.3949,226.241 83.5,224.5 Z"/></g>
<g><path style="opacity:1" fill="#e2f3bf" d="M 92.5,227.5 C 94.6976,227.875 96.6976,228.542 98.5,229.5C 95.9899,229.946 93.9899,229.28 92.5,227.5 Z"/></g>
<g><path style="opacity:1" fill="#8add00" d="M 228.5,228.5 C 241.49,229.832 254.49,231.165 267.5,232.5C 268.8,235.321 268.467,237.988 266.5,240.5C 252.649,252.225 240.149,250.892 229,236.5C 228.503,233.854 228.336,231.187 228.5,228.5 Z"/></g>
<g><path style="opacity:1" fill="#dcf1ae" d="M 104.5,230.5 C 108.456,230.621 112.122,231.621 115.5,233.5C 117.1,240.964 119.1,248.298 121.5,255.5C 120.883,255.389 120.383,255.056 120,254.5C 117.509,247.532 115.176,240.532 113,233.5C 109.975,232.806 107.142,231.806 104.5,230.5 Z"/></g>
<g><path style="opacity:1" fill="#d6eea6" d="M 417.5,226.5 C 410.448,232.545 402.448,236.878 393.5,239.5C 401.474,235.21 409.474,230.877 417.5,226.5 Z"/></g>
<g><path style="opacity:1" fill="#8add00" d="M 287.5,236.5 C 299.895,237.586 312.228,239.086 324.5,241C 325.598,243.498 325.432,245.998 324,248.5C 314.861,256.091 304.695,257.591 293.5,253C 289.926,249.338 287.26,245.171 285.5,240.5C 285.803,238.886 286.47,237.552 287.5,236.5 Z"/></g>
<g><path style="opacity:1" fill="#d6eda8" d="M 393.5,239.5 C 391.383,241.655 388.716,242.655 385.5,242.5C 387.617,240.345 390.284,239.345 393.5,239.5 Z"/></g>
<g><path style="opacity:1" fill="#def2b6" d="M 385.5,242.5 C 382.679,244.712 379.345,245.712 375.5,245.5C 378.55,243.899 381.884,242.899 385.5,242.5 Z"/></g>
<g><path style="opacity:1" fill="#d4ef9f" d="M 373.5,246.5 C 370.678,247.507 367.678,248.34 364.5,249C 363.534,251.769 362.201,254.269 360.5,256.5C 360.721,247.954 365.054,244.621 373.5,246.5 Z"/></g>
<g><path style="opacity:1" fill="#e9f5c0" d="M 360.5,256.5 C 360.065,259.157 359.065,261.491 357.5,263.5C 357.629,261.784 357.962,260.117 358.5,258.5C 358.833,257.5 359.5,256.833 360.5,256.5 Z"/></g>
<g><path style="opacity:1" fill="#8add00" d="M 257.5,261.5 C 268.907,262.132 280.241,263.465 291.5,265.5C 293.149,266.148 294.482,267.148 295.5,268.5C 290.43,279.226 282.097,283.226 270.5,280.5C 266.628,278.403 262.961,276.069 259.5,273.5C 258.696,270.56 257.363,267.893 255.5,265.5C 255.752,263.927 256.418,262.594 257.5,261.5 Z"/></g>
<g><path style="opacity:1" fill="#f0facb" d="M 357.5,263.5 C 357.346,265.97 356.346,267.97 354.5,269.5C 354.654,267.03 355.654,265.03 357.5,263.5 Z"/></g>
<g><path style="opacity:1" fill="#dcf0ac" d="M 121.5,256.5 C 122.885,257.574 124.051,258.907 125,260.5C 126.333,263.833 127.667,267.167 129,270.5C 132.504,274.82 135.337,279.486 137.5,284.5C 130.124,276.412 124.79,267.078 121.5,256.5 Z"/></g>
<g><path style="opacity:1" fill="#f1facb" d="M 354.5,269.5 C 354.727,271.933 353.727,273.599 351.5,274.5C 352.11,272.566 353.11,270.899 354.5,269.5 Z"/></g>
<g><path style="opacity:1" fill="#dcefac" d="M 351.5,274.5 C 350,278.173 348,281.506 345.5,284.5C 345.977,280.207 347.977,276.873 351.5,274.5 Z"/></g>
<g><path style="opacity:1" fill="#8bc92d" d="M 358.5,258.5 C 357.962,260.117 357.629,261.784 357.5,263.5C 355.654,265.03 354.654,267.03 354.5,269.5C 353.11,270.899 352.11,272.566 351.5,274.5C 347.977,276.873 345.977,280.207 345.5,284.5C 343.225,285.111 341.559,286.445 340.5,288.5C 342.429,284.541 344.429,280.541 346.5,276.5C 346.291,275.914 345.957,275.414 345.5,275C 346.876,272.457 348.043,272.291 349,274.5C 349.538,271.92 350.704,269.753 352.5,268C 351.013,264.808 352.013,262.974 355.5,262.5C 355.5,261.167 355.5,259.833 355.5,258.5C 356.5,258.5 357.5,258.5 358.5,258.5 Z"/></g>
<g><path style="opacity:1" fill="#ebf9bf" d="M 137.5,284.5 C 138.5,284.833 139.167,285.5 139.5,286.5C 138.167,286.5 137.5,285.833 137.5,284.5 Z"/></g>
<g><path style="opacity:1" fill="#dff1b0" d="M 345.5,284.5 C 344.171,287.546 342.171,289.879 339.5,291.5C 339.557,290.391 339.89,289.391 340.5,288.5C 341.559,286.445 343.225,285.111 345.5,284.5 Z"/></g>
<g><path style="opacity:1" fill="#e1f4b7" d="M 139.5,286.5 C 140.906,286.973 141.573,287.973 141.5,289.5C 140.094,289.027 139.427,288.027 139.5,286.5 Z"/></g>
<g><path style="opacity:1" fill="#daefa6" d="M 141.5,289.5 C 144.19,291.193 146.19,293.527 147.5,296.5C 144.781,294.781 142.781,292.447 141.5,289.5 Z"/></g>
<g><path style="opacity:1" fill="#d4eaa0" d="M 147.5,296.5 C 151.436,298.766 154.769,301.766 157.5,305.5C 153.564,303.234 150.231,300.234 147.5,296.5 Z"/></g>
<g><path style="opacity:1" fill="#c7e68d" d="M 339.5,291.5 C 336.871,295.797 333.537,299.463 329.5,302.5C 329.5,301.167 329.5,299.833 329.5,298.5C 333.354,296.99 336.688,294.656 339.5,291.5 Z"/></g>
<g><path style="opacity:1" fill="#e3f5b9" d="M 329.5,302.5 C 327.431,305.573 324.764,307.906 321.5,309.5C 323.569,306.427 326.236,304.094 329.5,302.5 Z"/></g>
<g><path style="opacity:1" fill="#e4f5bb" d="M 157.5,305.5 C 158.833,306.167 159.833,307.167 160.5,308.5C 158.5,308.5 157.5,307.5 157.5,305.5 Z"/></g>
<g><path style="opacity:1" fill="#ddf2b1" d="M 160.5,308.5 C 162.027,308.427 163.027,309.094 163.5,310.5C 161.973,310.573 160.973,309.906 160.5,308.5 Z"/></g>
<g><path style="opacity:1" fill="#c8e48c" d="M 163.5,310.5 C 165.404,310.738 166.738,311.738 167.5,313.5C 165.596,313.262 164.262,312.262 163.5,310.5 Z"/></g>
<g><path style="opacity:1" fill="#d4eca1" d="M 321.5,309.5 C 319.729,311.935 317.396,313.602 314.5,314.5C 315.863,311.402 318.197,309.735 321.5,309.5 Z"/></g>
<g><path style="opacity:1" fill="#d8eea4" d="M 167.5,313.5 C 169.404,313.738 170.738,314.738 171.5,316.5C 169.596,316.262 168.262,315.262 167.5,313.5 Z"/></g>
<g><path style="opacity:1" fill="#bce07a" d="M 171.5,316.5 C 173.989,316.241 175.656,317.241 176.5,319.5C 174.566,318.89 172.899,317.89 171.5,316.5 Z"/></g>
<g><path style="opacity:1" fill="#d4eca2" d="M 313.5,315.5 C 312.486,316.674 311.153,317.34 309.5,317.5C 310.287,315.896 311.62,315.229 313.5,315.5 Z"/></g>
<g><path style="opacity:1" fill="#dcefb0" d="M 309.5,317.5 C 308.267,319.796 306.267,321.13 303.5,321.5C 305.147,319.674 307.147,318.34 309.5,317.5 Z"/></g>
<g><path style="opacity:1" fill="#fcddb3" d="M 124.5,321.5 C 120.192,320.35 115.859,320.35 111.5,321.5C 113.462,319.983 115.795,319.316 118.5,319.5C 120.167,319.667 121.833,319.833 123.5,320C 124.056,320.383 124.389,320.883 124.5,321.5 Z"/></g>
<g><path style="opacity:1" fill="#c6e889" d="M 176.5,319.5 C 184.503,322.604 192.17,326.271 199.5,330.5C 191.125,328.144 183.458,324.478 176.5,319.5 Z"/></g>
<g><path style="opacity:1" fill="#f69307" d="M 124.5,321.5 C 127.167,323.833 129.833,326.167 132.5,328.5C 132.5,328.833 132.5,329.167 132.5,329.5C 133.219,331.764 133.552,334.097 133.5,336.5C 133.38,345.547 132.714,354.547 131.5,363.5C 131.806,366.385 131.473,369.052 130.5,371.5C 129.343,374.273 128.676,377.273 128.5,380.5C 125.833,383.833 122.833,386.833 119.5,389.5C 116.5,389.5 113.5,389.5 110.5,389.5C 109.209,389.737 108.209,389.404 107.5,388.5C 107.027,387.094 106.027,386.427 104.5,386.5C 102.745,383.32 100.745,380.32 98.5,377.5C 98.287,370.789 98.6204,364.123 99.5,357.5C 102.174,350.546 103.174,343.212 102.5,335.5C 103.912,333.396 104.912,331.063 105.5,328.5C 106.787,325.547 108.787,323.214 111.5,321.5C 115.859,320.35 120.192,320.35 124.5,321.5 Z"/></g>
<g><path style="opacity:1" fill="#fcddab" d="M 124.5,321.5 C 128.429,322.431 131.095,324.764 132.5,328.5C 129.833,326.167 127.167,323.833 124.5,321.5 Z"/></g>
<g><path style="opacity:1" fill="#daf1aa" d="M 303.5,321.5 C 300.129,324.519 296.129,326.519 291.5,327.5C 291.953,326.542 292.619,325.708 293.5,325C 296.74,323.6 300.073,322.433 303.5,321.5 Z"/></g>
<g><path style="opacity:1" fill="#fae4b1" d="M 111.5,321.5 C 108.787,323.214 106.787,325.547 105.5,328.5C 103.182,330.185 102.182,332.519 102.5,335.5C 102.167,335.5 101.833,335.5 101.5,335.5C 101.402,331.75 102.569,328.417 105,325.5C 106.638,323.266 108.805,321.933 111.5,321.5 Z"/></g>
<g><path style="opacity:1" fill="#ccea96" d="M 291.5,327.5 C 289.786,328.738 287.786,329.405 285.5,329.5C 287.102,327.926 289.102,327.259 291.5,327.5 Z"/></g>
<g><path style="opacity:1" fill="#d3eda2" d="M 199.5,330.5 C 202.152,330.41 204.485,331.076 206.5,332.5C 203.848,332.59 201.515,331.924 199.5,330.5 Z"/></g>
<g><path style="opacity:1" fill="#cceb92" d="M 283.5,330.5 C 281.485,331.924 279.152,332.59 276.5,332.5C 276.611,331.883 276.944,331.383 277.5,331C 279.473,330.505 281.473,330.338 283.5,330.5 Z"/></g>
<g><path style="opacity:1" fill="#f3b35e" d="M 105.5,328.5 C 104.912,331.063 103.912,333.396 102.5,335.5C 102.182,332.519 103.182,330.185 105.5,328.5 Z"/></g>
<g><path style="opacity:1" fill="#d2ec9e" d="M 207.5,332.5 C 209.898,332.259 211.898,332.926 213.5,334.5C 211.102,334.741 209.102,334.074 207.5,332.5 Z"/></g>
<g><path style="opacity:1" fill="#d7f0a8" d="M 276.5,332.5 C 273.505,334.243 270.171,335.243 266.5,335.5C 269.335,333.587 272.668,332.587 276.5,332.5 Z"/></g>
<g><path style="opacity:1" fill="#b7e26e" d="M 214.5,334.5 C 217.518,334.335 220.518,334.502 223.5,335C 224.416,335.278 225.082,335.778 225.5,336.5C 224.833,336.5 224.167,336.5 223.5,336.5C 220.345,336.01 217.345,335.344 214.5,334.5 Z"/></g>
<g><path style="opacity:1" fill="#d8f0a7" d="M 262.5,335.5 C 255.581,337.183 248.414,338.183 241,338.5C 234.992,338.056 229.158,337.39 223.5,336.5C 224.167,336.5 224.833,336.5 225.5,336.5C 237.859,336.728 250.193,336.395 262.5,335.5 Z"/></g>
<g><path style="opacity:1" fill="#fee3ab" d="M 132.5,329.5 C 133.79,330.058 134.623,331.058 135,332.5C 136.749,339.662 136.583,346.662 134.5,353.5C 134.822,347.642 134.489,341.975 133.5,336.5C 133.552,334.097 133.219,331.764 132.5,329.5 Z"/></g>
<g><path style="opacity:1" fill="#f5ad54" d="M 101.5,335.5 C 101.833,335.5 102.167,335.5 102.5,335.5C 103.174,343.212 102.174,350.546 99.5,357.5C 100.729,350.23 101.395,342.896 101.5,335.5 Z"/></g>
<g><path style="opacity:1" fill="#fbdba7" d="M 189.5,347.5 C 197.884,344.754 204.717,347.087 210,354.5C 214.529,365.086 218.862,375.753 223,386.5C 224.315,392.831 223.148,398.498 219.5,403.5C 219.629,401.784 219.962,400.117 220.5,398.5C 223.167,393.833 223.167,389.167 220.5,384.5C 216.114,375.059 212.28,365.393 209,355.5C 206.106,352.639 202.939,350.139 199.5,348C 196.183,347.502 192.85,347.335 189.5,347.5 Z"/></g>
<g><path style="opacity:1" fill="#f69308" d="M 189.5,347.5 C 192.85,347.335 196.183,347.502 199.5,348C 202.939,350.139 206.106,352.639 209,355.5C 212.28,365.393 216.114,375.059 220.5,384.5C 220.5,389.167 220.5,393.833 220.5,398.5C 219.962,400.117 219.629,401.784 219.5,403.5C 216.19,405.482 213.19,407.815 210.5,410.5C 206.178,411.726 201.845,411.726 197.5,410.5C 196.789,408.799 195.455,407.799 193.5,407.5C 187.557,395.936 182.39,383.936 178,371.5C 176.459,363.294 178.625,356.294 184.5,350.5C 186.848,350.408 188.514,349.408 189.5,347.5 Z"/></g>
<g><path style="opacity:1" fill="#fbc98c" d="M 189.5,347.5 C 188.514,349.408 186.848,350.408 184.5,350.5C 185.659,348.75 187.326,347.75 189.5,347.5 Z"/></g>
<g><path style="opacity:1" fill="#fae2b1" d="M 101.5,335.5 C 101.395,342.896 100.729,350.23 99.5,357.5C 98.6204,364.123 98.287,370.789 98.5,377.5C 97.1153,363.343 98.1153,349.343 101.5,335.5 Z"/></g>
<g><path style="opacity:1" fill="#f5b55d" d="M 133.5,336.5 C 134.489,341.975 134.822,347.642 134.5,353.5C 133.135,356.736 132.135,360.069 131.5,363.5C 132.714,354.547 133.38,345.547 133.5,336.5 Z"/></g>
<g><path style="opacity:1" fill="#fce7ba" d="M 134.5,353.5 C 133.778,360.837 132.944,368.17 132,375.5C 131.626,377.491 130.793,379.158 129.5,380.5C 130.159,377.545 130.492,374.545 130.5,371.5C 131.473,369.052 131.806,366.385 131.5,363.5C 132.135,360.069 133.135,356.736 134.5,353.5 Z"/></g>
<g><path style="opacity:1" fill="#f3ae5c" d="M 130.5,371.5 C 130.492,374.545 130.159,377.545 129.5,380.5C 129.167,380.5 128.833,380.5 128.5,380.5C 128.676,377.273 129.343,374.273 130.5,371.5 Z"/></g>
<g><path style="opacity:1" fill="#fce0ad" d="M 184.5,350.5 C 178.625,356.294 176.459,363.294 178,371.5C 182.39,383.936 187.557,395.936 193.5,407.5C 191.376,406.969 189.876,405.635 189,403.5C 184.477,392.936 180.144,382.269 176,371.5C 175.195,364.983 176.528,358.983 180,353.5C 181.129,351.859 182.629,350.859 184.5,350.5 Z"/></g>
<g><path style="opacity:1" fill="#fbdfac" d="M 98.5,377.5 C 100.745,380.32 102.745,383.32 104.5,386.5C 101.246,384.323 99.2461,381.323 98.5,377.5 Z"/></g>
<g><path style="opacity:1" fill="#fad49c" d="M 128.5,380.5 C 128.833,380.5 129.167,380.5 129.5,380.5C 128.088,385.576 124.755,388.576 119.5,389.5C 122.833,386.833 125.833,383.833 128.5,380.5 Z"/></g>
<g><path style="opacity:1" fill="#fee0b3" d="M 104.5,386.5 C 106.027,386.427 107.027,387.094 107.5,388.5C 105.973,388.573 104.973,387.906 104.5,386.5 Z"/></g>
<g><path style="opacity:1" fill="#fee2b4" d="M 110.5,389.5 C 113.5,389.5 116.5,389.5 119.5,389.5C 116.553,391.88 113.553,391.88 110.5,389.5 Z"/></g>
<g><path style="opacity:1" fill="#f6a744" d="M 220.5,384.5 C 223.167,389.167 223.167,393.833 220.5,398.5C 220.5,393.833 220.5,389.167 220.5,384.5 Z"/></g>
<g><path style="opacity:1" fill="#fdd7a4" d="M 219.5,403.5 C 217.933,407.591 214.933,409.925 210.5,410.5C 213.19,407.815 216.19,405.482 219.5,403.5 Z"/></g>
<g><path style="opacity:1" fill="#fdce8d" d="M 193.5,407.5 C 195.455,407.799 196.789,408.799 197.5,410.5C 195.368,410.446 194.035,409.446 193.5,407.5 Z"/></g>
<g><path style="opacity:1" fill="#fcdcb4" d="M 197.5,410.5 C 201.845,411.726 206.178,411.726 210.5,410.5C 210.167,411.167 209.833,411.833 209.5,412.5C 206.167,412.5 202.833,412.5 199.5,412.5C 198.833,411.833 198.167,411.167 197.5,410.5 Z"/></g>
</svg>
