<?xml version="1.0" encoding="UTF-8"?>
<!DOCTYPE svg PUBLIC "-//W3C//DTD SVG 1.1//EN" "http://www.w3.org/Graphics/SVG/1.1/DTD/svg11.dtd">
<svg xmlns="http://www.w3.org/2000/svg" version="1.1" width="500px" height="500px" style="shape-rendering:geometricPrecision; text-rendering:geometricPrecision; image-rendering:optimizeQuality; fill-rule:evenodd; clip-rule:evenodd" xmlns:xlink="http://www.w3.org/1999/xlink">
<g><path style="opacity:0.714" fill="#835d6f" d="M 361.5,164.5 C 356.341,163.2 351.008,162.367 345.5,162C 344.584,161.722 343.918,161.222 343.5,160.5C 343.389,159.883 343.056,159.383 342.5,159C 279.168,158.5 215.834,158.333 152.5,158.5C 154.631,157.686 156.964,157.186 159.5,157C 219.167,156.333 278.833,156.333 338.5,157C 346.918,157.64 354.585,160.14 361.5,164.5 Z"/></g>
<g><path style="opacity:0.999" fill="#56352f" d="M 152.5,158.5 C 215.834,158.333 279.168,158.5 342.5,159C 343.056,159.383 343.389,159.883 343.5,160.5C 319.602,159.483 295.602,159.316 271.5,160C 290.833,160.333 310.167,160.667 329.5,161C 307.66,161.266 285.826,161.766 264,162.5C 260.724,162.442 257.724,161.776 255,160.5C 254.667,161.167 254.333,161.833 254,162.5C 253.632,161.09 252.799,160.09 251.5,159.5C 247.551,160.019 243.551,160.186 239.5,160C 240.833,160.667 240.833,161.333 239.5,162C 214.5,162.667 189.5,162.667 164.5,162C 163.234,161.691 162.067,161.191 161,160.5C 153.659,161.943 146.325,163.61 139,165.5C 136.981,167.851 134.648,169.851 132,171.5C 131.667,171.167 131.333,170.833 131,170.5C 127.763,174.614 124.097,178.281 120,181.5C 119.647,184.152 118.48,186.152 116.5,187.5C 117.15,185.565 117.483,183.565 117.5,181.5C 119.914,180.089 121.581,178.089 122.5,175.5C 125.764,173.906 128.431,171.573 130.5,168.5C 132.853,167.66 134.853,166.326 136.5,164.5C 142.141,163.068 147.475,161.068 152.5,158.5 Z"/></g>
<g><path style="opacity:1" fill="#563629" d="M 343.5,160.5 C 343.918,161.222 344.584,161.722 345.5,162C 351.008,162.367 356.341,163.2 361.5,164.5C 362.117,166.229 363.117,167.729 364.5,169C 367.187,169.341 369.187,170.674 370.5,173C 371.793,173.49 373.127,173.657 374.5,173.5C 375.328,177.154 376.828,180.487 379,183.5C 380.074,184.618 381.24,185.618 382.5,186.5C 384.638,190.099 386.805,193.765 389,197.5C 389.113,202.067 390.113,206.4 392,210.5C 392.5,220.161 392.666,229.828 392.5,239.5C 388.467,240.349 384.801,242.016 381.5,244.5C 379.04,212.372 361.706,194.705 329.5,191.5C 315.994,190.833 302.327,190.167 288.5,189.5C 283.912,188.693 279.578,187.193 275.5,185C 276.696,184.346 276.696,183.846 275.5,183.5C 272.4,185.143 269.734,184.476 267.5,181.5C 265.589,180.523 263.589,179.857 261.5,179.5C 257.532,175.361 253.699,171.027 250,166.5C 242.341,178.086 231.841,185.919 218.5,190C 198.885,191.284 179.218,191.951 159.5,192C 132.329,198.999 118.996,216.499 119.5,244.5C 114.991,243.07 110.657,241.403 106.5,239.5C 106.334,230.161 106.5,220.827 107,211.5C 107.37,208.05 108.704,205.05 111,202.5C 111.333,199.167 111.667,195.833 112,192.5C 113.966,191.22 115.466,189.553 116.5,187.5C 118.48,186.152 119.647,184.152 120,181.5C 124.097,178.281 127.763,174.614 131,170.5C 131.333,170.833 131.667,171.167 132,171.5C 134.648,169.851 136.981,167.851 139,165.5C 146.325,163.61 153.659,161.943 161,160.5C 162.067,161.191 163.234,161.691 164.5,162C 189.5,162.667 214.5,162.667 239.5,162C 240.833,161.333 240.833,160.667 239.5,160C 243.551,160.186 247.551,160.019 251.5,159.5C 252.799,160.09 253.632,161.09 254,162.5C 254.333,161.833 254.667,161.167 255,160.5C 257.724,161.776 260.724,162.442 264,162.5C 285.826,161.766 307.66,161.266 329.5,161C 310.167,160.667 290.833,160.333 271.5,160C 295.602,159.316 319.602,159.483 343.5,160.5 Z"/></g>
<g><path style="opacity:0.443" fill="#99728d" d="M 152.5,158.5 C 147.475,161.068 142.141,163.068 136.5,164.5C 141.21,161.148 146.543,159.148 152.5,158.5 Z"/></g>
<g><path style="opacity:0.455" fill="#9f7694" d="M 136.5,164.5 C 134.853,166.326 132.853,167.66 130.5,168.5C 131.802,166.178 133.802,164.845 136.5,164.5 Z"/></g>
<g><path style="opacity:0.949" fill="#724e5a" d="M 361.5,164.5 C 366.713,166.27 371.047,169.27 374.5,173.5C 373.127,173.657 371.793,173.49 370.5,173C 369.187,170.674 367.187,169.341 364.5,169C 363.117,167.729 362.117,166.229 361.5,164.5 Z"/></g>
<g><path style="opacity:0.388" fill="#997589" d="M 130.5,168.5 C 128.431,171.573 125.764,173.906 122.5,175.5C 124.543,172.457 127.21,170.124 130.5,168.5 Z"/></g>
<g><path style="opacity:1" fill="#fec4b6" d="M 261.5,179.5 C 268.523,185.909 276.856,189.742 286.5,191C 300.829,191.5 315.163,191.667 329.5,191.5C 361.706,194.705 379.04,212.372 381.5,244.5C 384.801,242.016 388.467,240.349 392.5,239.5C 393.404,238.791 393.737,237.791 393.5,236.5C 394.338,236.842 394.672,237.508 394.5,238.5C 399.67,239.64 405.003,240.64 410.5,241.5C 412.426,243.244 414.76,244.244 417.5,244.5C 420.144,247.48 422.811,250.48 425.5,253.5C 426.444,258.66 427.444,263.827 428.5,269C 425.838,274.846 424.171,281.013 423.5,287.5C 422.833,287.5 422.5,287.833 422.5,288.5C 421.5,288.833 420.833,289.5 420.5,290.5C 420.167,290.5 419.833,290.5 419.5,290.5C 415.465,289.155 411.465,287.822 407.5,286.5C 403.354,285.353 399.02,285.186 394.5,286C 393.663,287.011 393.33,288.178 393.5,289.5C 393.055,292.365 393.722,294.865 395.5,297C 398.365,297.183 401.031,297.683 403.5,298.5C 400.833,298.5 398.167,298.5 395.5,298.5C 393.515,314.8 392.848,331.466 393.5,348.5C 393.5,348.833 393.5,349.167 393.5,349.5C 392.213,353.065 392.213,356.732 393.5,360.5C 388.276,386.393 372.943,403.06 347.5,410.5C 347.167,410.5 346.833,410.5 346.5,410.5C 346.167,410.5 345.833,410.5 345.5,410.5C 283.828,411.948 222.162,411.782 160.5,410C 156.106,409.547 151.939,408.381 148,406.5C 147.53,407.577 147.697,408.577 148.5,409.5C 147.833,409.5 147.167,409.5 146.5,409.5C 129.695,403.197 117.529,391.864 110,375.5C 108.07,370.491 106.57,365.491 105.5,360.5C 105.5,360.167 105.5,359.833 105.5,359.5C 106.787,355.935 106.787,352.268 105.5,348.5C 105.5,331.833 105.5,315.167 105.5,298.5C 106.117,298.389 106.617,298.056 107,297.5C 107.667,294.167 107.667,290.833 107,287.5C 106.184,286.177 105.017,285.511 103.5,285.5C 99.4862,285.334 95.4862,285.501 91.5,286C 90.5842,286.278 89.9175,286.778 89.5,287.5C 85.9217,288.292 82.5884,289.625 79.5,291.5C 78.2112,290.363 77.2112,289.03 76.5,287.5C 75.791,286.596 74.791,286.263 73.5,286.5C 73.5,285.833 73.5,285.167 73.5,284.5C 70.3763,275.435 69.7096,266.102 71.5,256.5C 74.2216,252.268 77.5549,248.435 81.5,245C 85.3909,244.467 88.3909,242.634 90.5,239.5C 90.5,238.833 90.8333,238.5 91.5,238.5C 96.0665,239.797 100.733,239.797 105.5,238.5C 105.5,239.167 105.833,239.5 106.5,239.5C 110.657,241.403 114.991,243.07 119.5,244.5C 118.996,216.499 132.329,198.999 159.5,192C 179.218,191.951 198.885,191.284 218.5,190C 231.841,185.919 242.341,178.086 250,166.5C 253.699,171.027 257.532,175.361 261.5,179.5 Z"/></g>
<g><path style="opacity:0.361" fill="#906983" d="M 122.5,175.5 C 121.581,178.089 119.914,180.089 117.5,181.5C 118.419,178.911 120.086,176.911 122.5,175.5 Z"/></g>
<g><path style="opacity:0.978" fill="#694550" d="M 374.5,173.5 C 383.362,181.205 389.196,190.872 392,202.5C 393.383,213.779 393.883,225.112 393.5,236.5C 393.737,237.791 393.404,238.791 392.5,239.5C 392.666,229.828 392.5,220.161 392,210.5C 390.113,206.4 389.113,202.067 389,197.5C 386.805,193.765 384.638,190.099 382.5,186.5C 381.24,185.618 380.074,184.618 379,183.5C 376.828,180.487 375.328,177.154 374.5,173.5 Z"/></g>
<g><path style="opacity:1" fill="#6a4435" d="M 261.5,179.5 C 263.589,179.857 265.589,180.523 267.5,181.5C 269.734,184.476 272.4,185.143 275.5,183.5C 276.696,183.846 276.696,184.346 275.5,185C 279.578,187.193 283.912,188.693 288.5,189.5C 302.327,190.167 315.994,190.833 329.5,191.5C 315.163,191.667 300.829,191.5 286.5,191C 276.856,189.742 268.523,185.909 261.5,179.5 Z"/></g>
<g><path style="opacity:1" fill="#68444f" d="M 117.5,181.5 C 117.483,183.565 117.15,185.565 116.5,187.5C 115.466,189.553 113.966,191.22 112,192.5C 111.667,195.833 111.333,199.167 111,202.5C 108.704,205.05 107.37,208.05 107,211.5C 106.5,220.827 106.334,230.161 106.5,239.5C 105.833,239.5 105.5,239.167 105.5,238.5C 105.5,230.5 105.5,222.5 105.5,214.5C 105.576,201.927 109.576,190.927 117.5,181.5 Z"/></g>
<g><path style="opacity:1" fill="#f6cdc5" d="M 236.5,239.5 C 231.446,234.99 226.113,230.99 220.5,227.5C 210.51,220.927 199.51,218.76 187.5,221C 183.689,222.739 179.689,223.572 175.5,223.5C 177.667,221.489 180.334,220.322 183.5,220C 193.167,219.333 202.833,219.333 212.5,220C 214.337,221.952 216.671,222.952 219.5,223C 222.031,226.538 225.364,228.872 229.5,230C 232.51,232.789 234.843,235.956 236.5,239.5 Z"/></g>
<g><path style="opacity:1" fill="#fcfcfb" d="M 220.5,227.5 C 226.113,230.99 231.446,234.99 236.5,239.5C 239.391,244.891 241.558,250.557 243,256.5C 245.567,270.886 240.4,281.386 227.5,288C 220.901,289.496 214.234,289.829 207.5,289C 203.238,287.468 198.905,286.135 194.5,285C 186.407,279.287 177.741,274.62 168.5,271C 166.907,270.051 165.574,268.885 164.5,267.5C 164.611,266.883 164.944,266.383 165.5,266C 164.109,264.98 162.609,264.147 161,263.5C 160.099,260.929 158.766,258.596 157,256.5C 157.499,253.978 157.332,251.478 156.5,249C 159.231,246.037 160.731,242.537 161,238.5C 166.737,234.38 172.57,230.38 178.5,226.5C 179.451,227.326 180.451,227.492 181.5,227C 180.655,225.442 181.321,224.442 183.5,224C 191.453,222.643 199.453,222.643 207.5,224C 209.119,225.923 210.952,226.423 213,225.5C 213.333,226.167 213.667,226.833 214,227.5C 216.027,227.014 218.193,227.014 220.5,227.5 Z"/></g>
<g><path style="opacity:1" fill="#fcfbfa" d="M 319.5,223.5 C 324.129,226.501 328.463,230.001 332.5,234C 333.448,234.483 334.448,234.649 335.5,234.5C 337.005,239.022 339.005,243.356 341.5,247.5C 342.659,251.122 342.825,254.789 342,258.5C 340.023,261.312 337.856,263.978 335.5,266.5C 329.614,268.551 323.948,271.051 318.5,274C 317.29,275.039 316.29,276.206 315.5,277.5C 306.506,281.952 297.172,285.785 287.5,289C 281.833,289.667 276.167,289.667 270.5,289C 267.168,288.001 264.168,286.501 261.5,284.5C 259.852,282.571 258.185,280.571 256.5,278.5C 252.374,266.798 252.708,255.131 257.5,243.5C 262.835,237.201 268.835,231.535 275.5,226.5C 285.733,220.917 296.733,219.084 308.5,221C 312.121,222.138 315.788,222.972 319.5,223.5 Z"/></g>
<g><path style="opacity:1" fill="#f5cdc3" d="M 319.5,223.5 C 323.046,223.559 326.379,224.392 329.5,226C 332.333,230.167 335.833,233.667 340,236.5C 340.809,240.396 342.143,244.063 344,247.5C 344.667,251.833 344.667,256.167 344,260.5C 343.117,263.102 341.617,265.269 339.5,267C 334.131,269.351 329.465,272.684 325.5,277C 324.234,277.309 323.067,277.809 322,278.5C 320.039,276.42 317.872,276.086 315.5,277.5C 316.29,276.206 317.29,275.039 318.5,274C 323.948,271.051 329.614,268.551 335.5,266.5C 337.856,263.978 340.023,261.312 342,258.5C 342.825,254.789 342.659,251.122 341.5,247.5C 339.005,243.356 337.005,239.022 335.5,234.5C 334.448,234.649 333.448,234.483 332.5,234C 328.463,230.001 324.129,226.501 319.5,223.5 Z"/></g>
<g><path style="opacity:1" fill="#fef5ee" d="M 220.5,227.5 C 218.193,227.014 216.027,227.014 214,227.5C 213.667,226.833 213.333,226.167 213,225.5C 210.952,226.423 209.119,225.923 207.5,224C 199.453,222.643 191.453,222.643 183.5,224C 181.321,224.442 180.655,225.442 181.5,227C 180.451,227.492 179.451,227.326 178.5,226.5C 172.57,230.38 166.737,234.38 161,238.5C 160.731,242.537 159.231,246.037 156.5,249C 157.332,251.478 157.499,253.978 157,256.5C 158.766,258.596 160.099,260.929 161,263.5C 162.609,264.147 164.109,264.98 165.5,266C 164.944,266.383 164.611,266.883 164.5,267.5C 162.833,266.833 161.167,266.167 159.5,265.5C 152.954,256.111 153.121,246.777 160,237.5C 165.196,232.62 170.363,227.954 175.5,223.5C 179.689,223.572 183.689,222.739 187.5,221C 199.51,218.76 210.51,220.927 220.5,227.5 Z"/></g>
<g><path style="opacity:1" fill="#404040" d="M 212.5,235.5 C 221.153,234.335 227.319,237.668 231,245.5C 231.795,255.035 231.628,264.535 230.5,274C 225.484,282.012 218.484,284.679 209.5,282C 205.839,279.337 203.339,275.837 202,271.5C 201.5,265.175 201.334,258.842 201.5,252.5C 208.643,252.36 212.643,248.693 213.5,241.5C 213.16,239.488 212.827,237.488 212.5,235.5 Z"/></g>
<g><path style="opacity:1" fill="#404040" d="M 278.5,235.5 C 286.956,234.808 293.122,238.141 297,245.5C 297.667,254.5 297.667,263.5 297,272.5C 292.49,281.67 285.323,284.837 275.5,282C 271.896,279.292 269.396,275.792 268,271.5C 267.501,265.509 267.334,259.509 267.5,253.5C 277.755,251.57 281.422,245.57 278.5,235.5 Z"/></g>
<g><path style="opacity:0.31" fill="#dfb0d3" d="M 105.5,214.5 C 105.5,222.5 105.5,230.5 105.5,238.5C 100.733,239.797 96.0665,239.797 91.5,238.5C 95.7673,237.702 99.9339,237.368 104,237.5C 104.171,229.656 104.671,221.989 105.5,214.5 Z"/></g>
<g><path style="opacity:1" fill="#f5d0c6" d="M 275.5,226.5 C 268.835,231.535 262.835,237.201 257.5,243.5C 259.337,233.538 265.337,227.872 275.5,226.5 Z"/></g>
<g><path style="opacity:0.835" fill="#edbcd6" d="M 394.5,238.5 C 400.245,238.211 405.912,238.711 411.5,240C 413.747,241.277 415.747,242.777 417.5,244.5C 414.76,244.244 412.426,243.244 410.5,241.5C 405.003,240.64 399.67,239.64 394.5,238.5 Z"/></g>
<g><path style="opacity:0.388" fill="#ebb8d7" d="M 90.5,239.5 C 88.3909,242.634 85.3909,244.467 81.5,245C 77.5549,248.435 74.2216,252.268 71.5,256.5C 75.0289,247.635 81.3622,241.968 90.5,239.5 Z"/></g>
<g><path style="opacity:0.306" fill="#eab9da" d="M 417.5,244.5 C 421.565,246.233 424.232,249.233 425.5,253.5C 422.811,250.48 420.144,247.48 417.5,244.5 Z"/></g>
<g><path style="opacity:1" fill="#f5ccbf" d="M 175.5,223.5 C 170.363,227.954 165.196,232.62 160,237.5C 153.121,246.777 152.954,256.111 159.5,265.5C 157.83,265.249 156.33,264.582 155,263.5C 154.088,260.681 152.922,258.014 151.5,255.5C 153,250.167 154.5,244.833 156,239.5C 158.603,235.766 161.103,231.933 163.5,228C 167.392,226.917 171.392,225.417 175.5,223.5 Z"/></g>
<g><path style="opacity:0.173" fill="#f0b9dc" d="M 71.5,256.5 C 69.7096,266.102 70.3763,275.435 73.5,284.5C 71.8368,282.507 70.6701,280.174 70,277.5C 67.7642,270.187 68.2642,263.187 71.5,256.5 Z"/></g>
<g><path style="opacity:0.851" fill="#f2c0d0" d="M 425.5,253.5 C 426.79,254.058 427.623,255.058 428,256.5C 429.467,260.37 430.301,264.37 430.5,268.5C 429.609,275.065 427.942,281.398 425.5,287.5C 424.833,287.5 424.167,287.5 423.5,287.5C 424.171,281.013 425.838,274.846 428.5,269C 427.444,263.827 426.444,258.66 425.5,253.5 Z"/></g>
<g><path style="opacity:1" fill="#fec87d" d="M 103.5,285.5 C 103.833,286.167 104.167,286.833 104.5,287.5C 99.5231,286.31 94.5231,286.31 89.5,287.5C 89.9175,286.778 90.5842,286.278 91.5,286C 95.4862,285.501 99.4862,285.334 103.5,285.5 Z"/></g>
<g><path style="opacity:1" fill="#f5cbc2" d="M 236.5,239.5 C 239.154,241.825 241.488,244.492 243.5,247.5C 244.419,252.518 245.419,257.518 246.5,262.5C 247.086,262.291 247.586,261.957 248,261.5C 249.301,263.365 249.635,265.365 249,267.5C 247.956,266.377 247.29,265.044 247,263.5C 246.297,276.304 240.131,285.47 228.5,291C 215.264,292.972 202.597,291.305 190.5,286C 184.134,281.205 177.134,277.538 169.5,275C 167.004,271.461 163.671,269.294 159.5,268.5C 159.5,267.5 159.5,266.5 159.5,265.5C 161.167,266.167 162.833,266.833 164.5,267.5C 165.574,268.885 166.907,270.051 168.5,271C 177.741,274.62 186.407,279.287 194.5,285C 198.905,286.135 203.238,287.468 207.5,289C 214.234,289.829 220.901,289.496 227.5,288C 240.4,281.386 245.567,270.886 243,256.5C 241.558,250.557 239.391,244.891 236.5,239.5 Z"/></g>
<g><path style="opacity:1" fill="#fec884" d="M 407.5,286.5 C 403.486,286.334 399.486,286.501 395.5,287C 394.934,287.995 394.267,288.828 393.5,289.5C 393.33,288.178 393.663,287.011 394.5,286C 399.02,285.186 403.354,285.353 407.5,286.5 Z"/></g>
<g><path style="opacity:1" fill="#f7c233" d="M 104.5,287.5 C 104.802,290.059 104.468,292.393 103.5,294.5C 104.508,289.508 102.508,287.508 97.5,288.5C 90.9536,289.54 84.6203,291.206 78.5,293.5C 78.8333,292.833 79.1667,292.167 79.5,291.5C 82.5884,289.625 85.9217,288.292 89.5,287.5C 94.5231,286.31 99.5231,286.31 104.5,287.5 Z"/></g>
<g><path style="opacity:0.769" fill="#8e6683" d="M 73.5,286.5 C 74.791,286.263 75.791,286.596 76.5,287.5C 71.4046,288.552 66.4046,289.885 61.5,291.5C 65.0986,289.072 69.0986,287.406 73.5,286.5 Z"/></g>
<g><path style="opacity:1" fill="#f4cdc2" d="M 315.5,277.5 C 315.67,278.822 315.337,279.989 314.5,281C 312.833,281.333 311.167,281.667 309.5,282C 308.286,283.979 306.619,285.479 304.5,286.5C 300.161,287.172 296.161,288.672 292.5,291C 284.5,291.667 276.5,291.667 268.5,291C 266.624,289.625 264.624,288.458 262.5,287.5C 261.873,286.583 261.539,285.583 261.5,284.5C 264.168,286.501 267.168,288.001 270.5,289C 276.167,289.667 281.833,289.667 287.5,289C 297.172,285.785 306.506,281.952 315.5,277.5 Z"/></g>
<g><path style="opacity:1" fill="#835971" d="M 422.5,288.5 C 422.5,287.833 422.833,287.5 423.5,287.5C 424.167,287.5 424.833,287.5 425.5,287.5C 430.098,288.465 434.098,290.465 437.5,293.5C 432.696,291.392 427.696,289.725 422.5,288.5 Z"/></g>
<g><path style="opacity:1" fill="#56381a" d="M 427.5,297.5 C 425.5,296.167 423.833,294.5 422.5,292.5C 424.819,291.833 427.153,291.666 429.5,292C 430.357,292.689 431.023,293.522 431.5,294.5C 429.668,295.057 428.335,296.057 427.5,297.5 Z"/></g>
<g><path style="opacity:1" fill="#c89b20" d="M 78.5,293.5 C 75.1667,296.833 71.8333,300.167 68.5,303.5C 69.4151,301.246 70.7484,299.246 72.5,297.5C 74.2228,295.782 76.2228,294.449 78.5,293.5 Z"/></g>
<g><path style="opacity:1" fill="#fbc467" d="M 104.5,287.5 C 106.026,288.492 106.693,289.992 106.5,292C 106.238,295.127 104.571,296.961 101.5,297.5C 102.167,296.5 102.833,295.5 103.5,294.5C 104.468,292.393 104.802,290.059 104.5,287.5 Z"/></g>
<g><path style="opacity:0.514" fill="#7c556c" d="M 61.5,291.5 C 60.6246,294.541 58.6246,296.375 55.5,297C 51.7664,299.716 49.2664,303.216 48,307.5C 46.6927,309.192 45.1927,310.525 43.5,311.5C 47.0518,302.616 53.0518,295.949 61.5,291.5 Z"/></g>
<g><path style="opacity:1" fill="#f3be97" d="M 103.5,285.5 C 105.017,285.511 106.184,286.177 107,287.5C 107.667,290.833 107.667,294.167 107,297.5C 106.617,298.056 106.117,298.389 105.5,298.5C 102.5,298.5 99.5,298.5 96.5,298.5C 95.8333,298.5 95.1667,298.5 94.5,298.5C 96.6074,297.532 98.9407,297.198 101.5,297.5C 104.571,296.961 106.238,295.127 106.5,292C 106.693,289.992 106.026,288.492 104.5,287.5C 104.167,286.833 103.833,286.167 103.5,285.5 Z"/></g>
<g><path style="opacity:1" fill="#f4c136" d="M 407.5,286.5 C 411.465,287.822 415.465,289.155 419.5,290.5C 419.557,291.609 419.89,292.609 420.5,293.5C 417.232,292.471 414.232,290.971 411.5,289C 406.475,287.908 401.475,287.742 396.5,288.5C 395.233,290.371 395.233,292.204 396.5,294C 400.312,296.359 404.312,296.859 408.5,295.5C 410.23,296.892 411.564,298.559 412.5,300.5C 409.692,299.071 406.692,298.405 403.5,298.5C 401.031,297.683 398.365,297.183 395.5,297C 393.722,294.865 393.055,292.365 393.5,289.5C 394.267,288.828 394.934,287.995 395.5,287C 399.486,286.501 403.486,286.334 407.5,286.5 Z"/></g>
<g><path style="opacity:1" fill="#683e0a" d="M 94.5,298.5 C 95.1667,298.5 95.8333,298.5 96.5,298.5C 96.6107,299.117 96.944,299.617 97.5,300C 94.8333,300.333 92.1667,300.667 89.5,301C 86.9211,302.467 84.2544,303.634 81.5,304.5C 84.8823,300.645 89.2157,298.645 94.5,298.5 Z"/></g>
<g><path style="opacity:1" fill="#ed9684" d="M 246.5,287.5 C 248.199,287.34 249.866,287.506 251.5,288C 258.675,295.342 262.675,304.176 263.5,314.5C 262.459,323.04 257.626,327.707 249,328.5C 244.702,327.59 240.702,325.923 237,323.5C 234.633,315.842 235.3,308.509 239,301.5C 241.258,296.647 243.758,291.981 246.5,287.5 Z"/></g>
<g><path style="opacity:1" fill="#563629" d="M 76.5,287.5 C 77.2112,289.03 78.2112,290.363 79.5,291.5C 79.1667,292.167 78.8333,292.833 78.5,293.5C 76.2228,294.449 74.2228,295.782 72.5,297.5C 66.423,300.95 63.0896,306.283 62.5,313.5C 62.5,314.167 62.5,314.833 62.5,315.5C 61.8826,315.611 61.3826,315.944 61,316.5C 59.9662,324.422 60.9662,332.089 64,339.5C 65.3712,341.041 66.8712,342.375 68.5,343.5C 68.3433,344.873 68.51,346.207 69,347.5C 71.2696,348.727 73.103,350.394 74.5,352.5C 75.3857,353.325 75.719,354.325 75.5,355.5C 76.8333,355.5 78.1667,355.5 79.5,355.5C 82.0877,358.503 85.4211,360.336 89.5,361C 95.0164,361.817 100.35,361.651 105.5,360.5C 106.57,365.491 108.07,370.491 110,375.5C 117.529,391.864 129.695,403.197 146.5,409.5C 146.5,411.5 146.5,413.5 146.5,415.5C 142.218,415.409 139.218,417.243 137.5,421C 134.177,422.139 131.51,423.973 129.5,426.5C 128.167,426.5 126.833,426.5 125.5,426.5C 119.158,426.666 112.825,426.5 106.5,426C 100.853,424.121 95.186,422.288 89.5,420.5C 87.2512,419.92 85.5846,418.587 84.5,416.5C 84.5,415.833 84.1667,415.5 83.5,415.5C 77.021,414.509 70.3543,414.176 63.5,414.5C 63.5,413.5 63.5,412.5 63.5,411.5C 58.8478,411.002 54.1811,410.669 49.5,410.5C 45.3046,407.182 41.3046,403.516 37.5,399.5C 36.846,397.885 36.346,396.218 36,394.5C 32.9457,391.008 30.4457,387.342 28.5,383.5C 28.334,378.156 28.5006,372.823 29,367.5C 29.1144,363.408 30.281,359.742 32.5,356.5C 33.5,356.5 34.5,356.5 35.5,356.5C 35.3398,354.801 35.5065,353.134 36,351.5C 38.0937,349.079 39.7604,346.412 41,343.5C 41.765,341.934 41.5983,340.601 40.5,339.5C 40.5,339.167 40.5,338.833 40.5,338.5C 40.5822,329.363 41.5822,320.363 43.5,311.5C 45.1927,310.525 46.6927,309.192 48,307.5C 49.2664,303.216 51.7664,299.716 55.5,297C 58.6246,296.375 60.6246,294.541 61.5,291.5C 66.4046,289.885 71.4046,288.552 76.5,287.5 Z"/></g>
<g><path style="opacity:1" fill="#f8c510" d="M 103.5,294.5 C 102.833,295.5 102.167,296.5 101.5,297.5C 98.9407,297.198 96.6074,297.532 94.5,298.5C 89.2157,298.645 84.8823,300.645 81.5,304.5C 78.7232,306.951 76.7232,309.951 75.5,313.5C 74.7784,313.918 74.2784,314.584 74,315.5C 73.1864,320.02 73.353,324.354 74.5,328.5C 75.0991,331.963 76.0991,335.296 77.5,338.5C 78.495,341.657 79.8283,344.657 81.5,347.5C 81.3918,348.442 81.0585,349.275 80.5,350C 78.5273,350.495 76.5273,350.662 74.5,350.5C 72.4707,348.142 70.4707,345.808 68.5,343.5C 65.9184,338.458 64.2517,333.125 63.5,327.5C 63.2319,321.044 63.8986,314.711 65.5,308.5C 65.7497,306.326 66.7497,304.659 68.5,303.5C 71.8333,300.167 75.1667,296.833 78.5,293.5C 84.6203,291.206 90.9536,289.54 97.5,288.5C 102.508,287.508 104.508,289.508 103.5,294.5 Z"/></g>
<g><path style="opacity:1" fill="#573729" d="M 395.5,298.5 C 408.331,298.318 417.664,303.985 423.5,315.5C 423.5,320.833 423.5,326.167 423.5,331.5C 422.391,336.597 419.724,340.597 415.5,343.5C 408.481,346.33 401.147,347.997 393.5,348.5C 392.848,331.466 393.515,314.8 395.5,298.5 Z"/></g>
<g><path style="opacity:1" fill="#71460c" d="M 395.5,298.5 C 398.167,298.5 400.833,298.5 403.5,298.5C 406.692,298.405 409.692,299.071 412.5,300.5C 415.797,303.296 418.964,306.296 422,309.5C 423.128,311.345 423.628,313.345 423.5,315.5C 417.664,303.985 408.331,298.318 395.5,298.5 Z"/></g>
<g><path style="opacity:1" fill="#623908" d="M 72.5,297.5 C 70.7484,299.246 69.4151,301.246 68.5,303.5C 66.7497,304.659 65.7497,306.326 65.5,308.5C 64.6873,310.261 63.6873,311.928 62.5,313.5C 63.0896,306.283 66.423,300.95 72.5,297.5 Z"/></g>
<g><path style="opacity:1" fill="#825906" d="M 81.5,304.5 C 80.1932,307.78 78.5265,310.78 76.5,313.5C 76.1667,313.5 75.8333,313.5 75.5,313.5C 76.7232,309.951 78.7232,306.951 81.5,304.5 Z"/></g>
<g><path style="opacity:1" fill="#613d44" d="M 438.5,293.5 C 445.071,298.065 449.737,304.065 452.5,311.5C 455.175,320.589 456.175,329.923 455.5,339.5C 457.455,343.14 459.455,346.806 461.5,350.5C 458.225,348.727 455.391,346.393 453,343.5C 453.847,340.197 454.347,336.697 454.5,333C 454.439,328.425 453.439,324.092 451.5,320C 451.957,319.586 452.291,319.086 452.5,318.5C 450.241,313.864 448.074,309.197 446,304.5C 444.851,301.864 443.017,299.864 440.5,298.5C 439.544,296.925 438.877,295.258 438.5,293.5 Z"/></g>
<g><path style="opacity:1" fill="#f8c410" d="M 420.5,293.5 C 427.572,297.652 432.239,303.652 434.5,311.5C 435.275,316.797 435.608,322.13 435.5,327.5C 435.425,330.206 435.092,332.873 434.5,335.5C 433.833,336.5 433.167,337.5 432.5,338.5C 431.883,338.389 431.383,338.056 431,337.5C 429.55,339.757 428.383,342.09 427.5,344.5C 426.5,344.5 425.5,344.5 424.5,344.5C 424.649,345.552 424.483,346.552 424,347.5C 422.494,349.174 420.661,350.174 418.5,350.5C 418.5,351.5 418.5,352.5 418.5,353.5C 414.281,352.979 410.614,354.146 407.5,357C 407.833,357.333 408.167,357.667 408.5,358C 403.845,358.499 399.179,358.666 394.5,358.5C 394.5,355.833 394.5,353.167 394.5,350.5C 398.514,350.666 402.514,350.499 406.5,350C 407.056,349.617 407.389,349.117 407.5,348.5C 410.167,346.833 412.833,345.167 415.5,343.5C 419.724,340.597 422.391,336.597 423.5,331.5C 425.006,328.644 425.672,325.477 425.5,322C 425.467,319.39 424.8,317.223 423.5,315.5C 423.628,313.345 423.128,311.345 422,309.5C 418.964,306.296 415.797,303.296 412.5,300.5C 411.564,298.559 410.23,296.892 408.5,295.5C 404.312,296.859 400.312,296.359 396.5,294C 395.233,292.204 395.233,290.371 396.5,288.5C 401.475,287.742 406.475,287.908 411.5,289C 414.232,290.971 417.232,292.471 420.5,293.5 Z"/></g>
<g><path style="opacity:1" fill="#573729" d="M 96.5,298.5 C 99.5,298.5 102.5,298.5 105.5,298.5C 105.5,315.167 105.5,331.833 105.5,348.5C 101.154,348.666 96.8206,348.499 92.5,348C 90.2774,347.434 88.2774,346.6 86.5,345.5C 84.8325,343.521 84.1658,341.188 84.5,338.5C 82.7376,338.643 81.0709,338.309 79.5,337.5C 78.1847,335.231 77.0181,332.898 76,330.5C 75.5314,324.818 75.6981,319.152 76.5,313.5C 78.5265,310.78 80.1932,307.78 81.5,304.5C 84.2544,303.634 86.9211,302.467 89.5,301C 92.1667,300.667 94.8333,300.333 97.5,300C 96.944,299.617 96.6107,299.117 96.5,298.5 Z"/></g>
<g><path style="opacity:0.91" fill="#694351" d="M 43.5,311.5 C 41.5822,320.363 40.5822,329.363 40.5,338.5C 39.3483,333.015 39.1816,327.349 40,321.5C 40.3022,317.755 41.4688,314.422 43.5,311.5 Z"/></g>
<g><path style="opacity:1" fill="#c19726" d="M 65.5,308.5 C 63.8986,314.711 63.2319,321.044 63.5,327.5C 62.5166,323.702 62.1832,319.702 62.5,315.5C 62.5,314.833 62.5,314.167 62.5,313.5C 63.6873,311.928 64.6873,310.261 65.5,308.5 Z"/></g>
<g><path style="opacity:1" fill="#c69b2a" d="M 434.5,311.5 C 435.924,313.515 436.59,315.848 436.5,318.5C 436.81,321.713 436.477,324.713 435.5,327.5C 435.608,322.13 435.275,316.797 434.5,311.5 Z"/></g>
<g><path style="opacity:1" fill="#6b430a" d="M 62.5,315.5 C 62.1832,319.702 62.5166,323.702 63.5,327.5C 64.2517,333.125 65.9184,338.458 68.5,343.5C 66.8712,342.375 65.3712,341.041 64,339.5C 60.9662,332.089 59.9662,324.422 61,316.5C 61.3826,315.944 61.8826,315.611 62.5,315.5 Z"/></g>
<g><path style="opacity:1" fill="#8f620e" d="M 75.5,313.5 C 74.746,318.463 74.4126,323.463 74.5,328.5C 73.353,324.354 73.1864,320.02 74,315.5C 74.2784,314.584 74.7784,313.918 75.5,313.5 Z"/></g>
<g><path style="opacity:1" fill="#5f3810" d="M 419.5,290.5 C 419.833,290.5 420.167,290.5 420.5,290.5C 421.167,291.167 421.833,291.833 422.5,292.5C 423.833,294.5 425.5,296.167 427.5,297.5C 433.01,301.84 436.51,307.507 438,314.5C 438.667,320.167 438.667,325.833 438,331.5C 437.79,333.058 437.29,334.391 436.5,335.5C 437.582,329.677 437.582,324.01 436.5,318.5C 436.59,315.848 435.924,313.515 434.5,311.5C 432.239,303.652 427.572,297.652 420.5,293.5C 419.89,292.609 419.557,291.609 419.5,290.5 Z"/></g>
<g><path style="opacity:1" fill="#653d0e" d="M 75.5,313.5 C 75.8333,313.5 76.1667,313.5 76.5,313.5C 75.6981,319.152 75.5314,324.818 76,330.5C 77.0181,332.898 78.1847,335.231 79.5,337.5C 81.0709,338.309 82.7376,338.643 84.5,338.5C 84.1658,341.188 84.8325,343.521 86.5,345.5C 83.2327,343.573 80.2327,341.239 77.5,338.5C 76.0991,335.296 75.0991,331.963 74.5,328.5C 74.4126,323.463 74.746,318.463 75.5,313.5 Z"/></g>
<g><path style="opacity:1" fill="#73440c" d="M 423.5,315.5 C 424.8,317.223 425.467,319.39 425.5,322C 425.672,325.477 425.006,328.644 423.5,331.5C 423.5,326.167 423.5,320.833 423.5,315.5 Z"/></g>
<g><path style="opacity:0.435" fill="#86607c" d="M 452.5,311.5 C 455.577,316.819 457.244,322.652 457.5,329C 456.938,332.654 456.271,336.154 455.5,339.5C 456.175,329.923 455.175,320.589 452.5,311.5 Z"/></g>
<g><path style="opacity:1" fill="#744a04" d="M 436.5,318.5 C 437.582,324.01 437.582,329.677 436.5,335.5C 435.833,335.5 435.167,335.5 434.5,335.5C 435.092,332.873 435.425,330.206 435.5,327.5C 436.477,324.713 436.81,321.713 436.5,318.5 Z"/></g>
<g><path style="opacity:1" fill="#ec9786" d="M 197.5,323.5 C 199.527,323.338 201.527,323.505 203.5,324C 214.443,338.483 229.11,344.317 247.5,341.5C 252.002,346.476 251.002,349.976 244.5,352C 229.493,354.266 216.159,350.766 204.5,341.5C 201.46,338.297 198.627,334.964 196,331.5C 195.109,328.502 195.609,325.836 197.5,323.5 Z"/></g>
<g><path style="opacity:1" fill="#563629" d="M 422.5,288.5 C 427.696,289.725 432.696,291.392 437.5,293.5C 437.833,293.5 438.167,293.5 438.5,293.5C 438.877,295.258 439.544,296.925 440.5,298.5C 443.017,299.864 444.851,301.864 446,304.5C 448.074,309.197 450.241,313.864 452.5,318.5C 452.291,319.086 451.957,319.586 451.5,320C 453.439,324.092 454.439,328.425 454.5,333C 454.347,336.697 453.847,340.197 453,343.5C 455.391,346.393 458.225,348.727 461.5,350.5C 464.201,353.235 465.868,356.569 466.5,360.5C 467.637,367.834 467.637,375.168 466.5,382.5C 464.28,387.837 462.28,393.17 460.5,398.5C 459.581,401.089 457.914,403.089 455.5,404.5C 452.99,405.783 450.323,406.783 447.5,407.5C 447.5,408.5 447.5,409.5 447.5,410.5C 444.194,410.819 441.527,412.153 439.5,414.5C 429.224,414.882 419.058,414.882 409,414.5C 407.266,415.249 405.433,415.749 403.5,416C 406.194,420.125 404.861,421.958 399.5,421.5C 399.567,422.959 399.234,424.292 398.5,425.5C 395.304,424.208 392.304,424.708 389.5,427C 383.167,427.667 376.833,427.667 370.5,427C 371.938,426.781 373.271,426.281 374.5,425.5C 372.366,425.846 370.533,424.846 369,422.5C 368.481,423.516 367.647,424.182 366.5,424.5C 363.978,423.238 361.311,422.571 358.5,422.5C 355.329,417.815 351.662,413.815 347.5,410.5C 372.943,403.06 388.276,386.393 393.5,360.5C 398.895,360.733 404.228,360.4 409.5,359.5C 417.305,359.068 423.305,355.568 427.5,349C 428.793,348.51 430.127,348.343 431.5,348.5C 432.858,344.288 433.858,339.955 434.5,335.5C 435.167,335.5 435.833,335.5 436.5,335.5C 437.29,334.391 437.79,333.058 438,331.5C 438.667,325.833 438.667,320.167 438,314.5C 436.51,307.507 433.01,301.84 427.5,297.5C 428.335,296.057 429.668,295.057 431.5,294.5C 431.023,293.522 430.357,292.689 429.5,292C 427.153,291.666 424.819,291.833 422.5,292.5C 421.833,291.833 421.167,291.167 420.5,290.5C 420.833,289.5 421.5,288.833 422.5,288.5 Z"/></g>
<g><path style="opacity:1" fill="#6c4206" d="M 415.5,343.5 C 412.833,345.167 410.167,346.833 407.5,348.5C 402.87,349.229 398.203,349.563 393.5,349.5C 393.5,349.167 393.5,348.833 393.5,348.5C 401.147,347.997 408.481,346.33 415.5,343.5 Z"/></g>
<g><path style="opacity:1" fill="#734a08" d="M 68.5,343.5 C 70.4707,345.808 72.4707,348.142 74.5,350.5C 76.4727,351.806 78.1394,353.473 79.5,355.5C 78.1667,355.5 76.8333,355.5 75.5,355.5C 75.719,354.325 75.3857,353.325 74.5,352.5C 73.103,350.394 71.2696,348.727 69,347.5C 68.51,346.207 68.3433,344.873 68.5,343.5 Z"/></g>
<g><path style="opacity:1" fill="#6f460d" d="M 434.5,335.5 C 433.858,339.955 432.858,344.288 431.5,348.5C 430.127,348.343 428.793,348.51 427.5,349C 423.305,355.568 417.305,359.068 409.5,359.5C 417.251,355.938 424.085,350.938 430,344.5C 430.655,342.372 431.489,340.372 432.5,338.5C 433.167,337.5 433.833,336.5 434.5,335.5 Z"/></g>
<g><path style="opacity:1" fill="#e9ba22" d="M 77.5,338.5 C 80.2327,341.239 83.2327,343.573 86.5,345.5C 88.2774,346.6 90.2774,347.434 92.5,348C 96.8206,348.499 101.154,348.666 105.5,348.5C 106.787,352.268 106.787,355.935 105.5,359.5C 98.7109,359.799 92.0442,359.132 85.5,357.5C 84.8333,357.5 84.5,357.167 84.5,356.5C 82.8828,355.962 81.2161,355.629 79.5,355.5C 78.1394,353.473 76.4727,351.806 74.5,350.5C 76.5273,350.662 78.5273,350.495 80.5,350C 81.0585,349.275 81.3918,348.442 81.5,347.5C 79.8283,344.657 78.495,341.657 77.5,338.5 Z"/></g>
<g><path style="opacity:1" fill="#ebbc26" d="M 432.5,338.5 C 431.489,340.372 430.655,342.372 430,344.5C 424.085,350.938 417.251,355.938 409.5,359.5C 404.228,360.4 398.895,360.733 393.5,360.5C 392.213,356.732 392.213,353.065 393.5,349.5C 398.203,349.563 402.87,349.229 407.5,348.5C 407.389,349.117 407.056,349.617 406.5,350C 402.514,350.499 398.514,350.666 394.5,350.5C 394.5,353.167 394.5,355.833 394.5,358.5C 399.179,358.666 403.845,358.499 408.5,358C 408.167,357.667 407.833,357.333 407.5,357C 410.614,354.146 414.281,352.979 418.5,353.5C 418.5,352.5 418.5,351.5 418.5,350.5C 420.661,350.174 422.494,349.174 424,347.5C 424.483,346.552 424.649,345.552 424.5,344.5C 425.5,344.5 426.5,344.5 427.5,344.5C 428.383,342.09 429.55,339.757 431,337.5C 431.383,338.056 431.883,338.389 432.5,338.5 Z"/></g>
<g><path style="opacity:1" fill="#fcc608" d="M 84.5,356.5 C 82.3305,354.057 81.9972,351.724 83.5,349.5C 90.3335,350.151 97.3335,350.485 104.5,350.5C 104.5,353.167 104.5,355.833 104.5,358.5C 97.8043,358.07 91.1376,357.403 84.5,356.5 Z"/></g>
<g><path style="opacity:1" fill="#643a05" d="M 79.5,355.5 C 81.2161,355.629 82.8828,355.962 84.5,356.5C 84.5,357.167 84.8333,357.5 85.5,357.5C 87.2774,358.6 89.2774,359.434 91.5,360C 96.1548,360.499 100.821,360.666 105.5,360.5C 100.35,361.651 95.0164,361.817 89.5,361C 85.4211,360.336 82.0877,358.503 79.5,355.5 Z"/></g>
<g><path style="opacity:1" fill="#b98e25" d="M 85.5,357.5 C 92.0442,359.132 98.7109,359.799 105.5,359.5C 105.5,359.833 105.5,360.167 105.5,360.5C 100.821,360.666 96.1548,360.499 91.5,360C 89.2774,359.434 87.2774,358.6 85.5,357.5 Z"/></g>
<g><path style="opacity:0.529" fill="#714b5e" d="M 40.5,339.5 C 41.5983,340.601 41.765,341.934 41,343.5C 39.7604,346.412 38.0937,349.079 36,351.5C 35.5065,353.134 35.3398,354.801 35.5,356.5C 34.5,356.5 33.5,356.5 32.5,356.5C 30.281,359.742 29.1144,363.408 29,367.5C 28.5006,372.823 28.334,378.156 28.5,383.5C 24.8148,368.016 28.6482,354.35 40,342.5C 40.4828,341.552 40.6495,340.552 40.5,339.5 Z"/></g>
<g><path style="opacity:0.831" fill="#6c475a" d="M 466.5,360.5 C 469.89,369.356 470.056,378.356 467,387.5C 465.828,391.858 463.661,395.525 460.5,398.5C 462.28,393.17 464.28,387.837 466.5,382.5C 467.637,375.168 467.637,367.834 466.5,360.5 Z"/></g>
<g><path style="opacity:0.91" fill="#66414f" d="M 28.5,383.5 C 30.4457,387.342 32.9457,391.008 36,394.5C 36.346,396.218 36.846,397.885 37.5,399.5C 41.3046,403.516 45.3046,407.182 49.5,410.5C 49.5,410.833 49.5,411.167 49.5,411.5C 37.9454,405.608 30.9454,396.275 28.5,383.5 Z"/></g>
<g><path style="opacity:0.78" fill="#6e495b" d="M 455.5,404.5 C 451.517,409.784 446.183,413.117 439.5,414.5C 441.527,412.153 444.194,410.819 447.5,410.5C 447.5,409.5 447.5,408.5 447.5,407.5C 450.323,406.783 452.99,405.783 455.5,404.5 Z"/></g>
<g><path style="opacity:0.925" fill="#784e5f" d="M 146.5,409.5 C 147.167,409.5 147.833,409.5 148.5,409.5C 149.167,409.5 149.5,409.833 149.5,410.5C 149.5,411.167 149.5,411.833 149.5,412.5C 148.833,413.833 147.833,414.833 146.5,415.5C 146.5,413.5 146.5,411.5 146.5,409.5 Z"/></g>
<g><path style="opacity:1" fill="#fcc7c9" d="M 345.5,410.5 C 330.833,411.167 316.167,411.833 301.5,412.5C 266.094,413.022 231.094,413.022 196.5,412.5C 180.989,411.737 165.322,411.07 149.5,410.5C 149.5,409.833 149.167,409.5 148.5,409.5C 147.697,408.577 147.53,407.577 148,406.5C 151.939,408.381 156.106,409.547 160.5,410C 222.162,411.782 283.828,411.948 345.5,410.5 Z"/></g>
<g><path style="opacity:0.894" fill="#5a3838" d="M 49.5,410.5 C 54.1811,410.669 58.8478,411.002 63.5,411.5C 63.5,412.5 63.5,413.5 63.5,414.5C 70.3543,414.176 77.021,414.509 83.5,415.5C 75.5,415.5 67.5,415.5 59.5,415.5C 55.6733,415.248 52.3399,413.915 49.5,411.5C 49.5,411.167 49.5,410.833 49.5,410.5 Z"/></g>
<g><path style="opacity:0.541" fill="#79556c" d="M 59.5,415.5 C 67.5,415.5 75.5,415.5 83.5,415.5C 84.1667,415.5 84.5,415.833 84.5,416.5C 79.6523,416.576 74.819,416.909 70,417.5C 66.24,417.514 62.74,416.847 59.5,415.5 Z"/></g>
<g><path style="opacity:1" fill="#69444f" d="M 439.5,414.5 C 437.123,415.887 434.457,416.721 431.5,417C 424.822,417.22 418.155,417.22 411.5,417C 407.793,420.85 403.46,423.683 398.5,425.5C 399.234,424.292 399.567,422.959 399.5,421.5C 404.861,421.958 406.194,420.125 403.5,416C 405.433,415.749 407.266,415.249 409,414.5C 419.058,414.882 429.224,414.882 439.5,414.5 Z"/></g>
<g><path style="opacity:0.888" fill="#68444f" d="M 346.5,410.5 C 346.833,410.5 347.167,410.5 347.5,410.5C 351.662,413.815 355.329,417.815 358.5,422.5C 353.619,420.291 349.619,416.957 346.5,412.5C 346.5,411.833 346.5,411.167 346.5,410.5 Z"/></g>
<g><path style="opacity:1" fill="#573536" d="M 89.5,420.5 C 95.186,422.288 100.853,424.121 106.5,426C 112.825,426.5 119.158,426.666 125.5,426.5C 118.687,427.491 111.687,427.825 104.5,427.5C 98.6152,426.881 93.6152,424.547 89.5,420.5 Z"/></g>
<g><path style="opacity:0.718" fill="#6f4a5b" d="M 146.5,415.5 C 141.989,420.924 136.322,424.591 129.5,426.5C 131.51,423.973 134.177,422.139 137.5,421C 139.218,417.243 142.218,415.409 146.5,415.5 Z"/></g>
<g><path style="opacity:1" fill="#f7c3df" d="M 149.5,410.5 C 165.322,411.07 180.989,411.737 196.5,412.5C 197.278,413.156 197.944,413.989 198.5,415C 197.047,417.405 195.713,419.905 194.5,422.5C 199.062,423.142 203.396,424.476 207.5,426.5C 236.828,427.667 266.161,427.833 295.5,427C 297.44,425.793 299.273,425.626 301,426.5C 303.74,423.909 304.073,420.909 302,417.5C 298.166,415.394 298,413.727 301.5,412.5C 316.167,411.833 330.833,411.167 345.5,410.5C 345.833,410.5 346.167,410.5 346.5,410.5C 346.5,411.167 346.5,411.833 346.5,412.5C 332.156,412.878 317.822,413.545 303.5,414.5C 305.406,417.64 306.74,420.973 307.5,424.5C 309.321,429.452 310.988,434.452 312.5,439.5C 310.36,435.81 308.026,432.144 305.5,428.5C 304.017,430.385 302.017,431.385 299.5,431.5C 296.059,430.442 292.559,429.442 289,428.5C 288,429.167 287,429.833 286,430.5C 259.794,429.579 233.461,429.579 207,430.5C 202.855,428.761 198.855,426.761 195,424.5C 193.871,426.141 192.371,427.141 190.5,427.5C 191.547,424.404 192.88,421.404 194.5,418.5C 194.376,417.893 194.043,417.56 193.5,417.5C 194.028,416.279 194.695,415.113 195.5,414C 181.104,413.963 166.77,413.13 152.5,411.5C 151.416,411.685 150.416,412.018 149.5,412.5C 149.5,411.833 149.5,411.167 149.5,410.5 Z"/></g>
<g><path style="opacity:1" fill="#fbc8dc" d="M 196.5,412.5 C 231.094,413.022 266.094,413.022 301.5,412.5C 298,413.727 298.166,415.394 302,417.5C 304.073,420.909 303.74,423.909 301,426.5C 299.273,425.626 297.44,425.793 295.5,427C 266.161,427.833 236.828,427.667 207.5,426.5C 203.396,424.476 199.062,423.142 194.5,422.5C 195.713,419.905 197.047,417.405 198.5,415C 197.944,413.989 197.278,413.156 196.5,412.5 Z"/></g>
<g><path style="opacity:1" fill="#fbc8de" d="M 312.5,439.5 C 314.074,439.937 315.241,440.937 316,442.5C 318.318,448.745 320.818,454.745 323.5,460.5C 323.224,465.412 325.058,469.412 329,472.5C 330.466,476.029 331.466,479.695 332,483.5C 333.512,484.257 334.846,485.257 336,486.5C 336.816,491.444 338.649,495.777 341.5,499.5C 279.833,499.5 218.167,499.5 156.5,499.5C 156.853,495.457 158.853,493.79 162.5,494.5C 161.358,492.883 160.691,491.05 160.5,489C 160.944,485.534 161.944,482.201 163.5,479C 163.43,478.235 163.097,477.735 162.5,477.5C 162.833,476.833 163.167,476.167 163.5,475.5C 166.763,473.031 169.597,470.031 172,466.5C 174.487,456.66 178.82,447.66 185,439.5C 185.494,437.866 185.66,436.199 185.5,434.5C 186.5,434.5 187.5,434.5 188.5,434.5C 188.41,431.848 189.076,429.515 190.5,427.5C 192.371,427.141 193.871,426.141 195,424.5C 198.855,426.761 202.855,428.761 207,430.5C 233.461,429.579 259.794,429.579 286,430.5C 287,429.833 288,429.167 289,428.5C 292.559,429.442 296.059,430.442 299.5,431.5C 302.017,431.385 304.017,430.385 305.5,428.5C 308.026,432.144 310.36,435.81 312.5,439.5 Z"/></g>
<g><path style="opacity:0.627" fill="#674350" d="M 358.5,422.5 C 361.311,422.571 363.978,423.238 366.5,424.5C 367.647,424.182 368.481,423.516 369,422.5C 370.533,424.846 372.366,425.846 374.5,425.5C 373.271,426.281 371.938,426.781 370.5,427C 376.833,427.667 383.167,427.667 389.5,427C 392.304,424.708 395.304,424.208 398.5,425.5C 384.608,431.479 371.274,430.479 358.5,422.5 Z"/></g>
<g><path style="opacity:0.64" fill="#754f62" d="M 125.5,426.5 C 126.833,426.5 128.167,426.5 129.5,426.5C 121.271,429.916 112.937,430.249 104.5,427.5C 111.687,427.825 118.687,427.491 125.5,426.5 Z"/></g>
<g><path style="opacity:0.878" fill="#ecbcea" d="M 193.5,417.5 C 194.043,417.56 194.376,417.893 194.5,418.5C 192.88,421.404 191.547,424.404 190.5,427.5C 189.076,429.515 188.41,431.848 188.5,434.5C 187.5,434.5 186.5,434.5 185.5,434.5C 185.66,436.199 185.494,437.866 185,439.5C 178.82,447.66 174.487,456.66 172,466.5C 169.597,470.031 166.763,473.031 163.5,475.5C 172.974,455.884 182.974,436.551 193.5,417.5 Z"/></g>
<g><path style="opacity:1" fill="#f8c5e7" d="M 323.5,460.5 C 326.363,466.555 329.53,472.555 333,478.5C 333.759,480.063 334.926,481.063 336.5,481.5C 339.678,487.196 342.344,493.196 344.5,499.5C 343.5,499.5 342.5,499.5 341.5,499.5C 338.649,495.777 336.816,491.444 336,486.5C 334.846,485.257 333.512,484.257 332,483.5C 331.466,479.695 330.466,476.029 329,472.5C 325.058,469.412 323.224,465.412 323.5,460.5 Z"/></g>
<g><path style="opacity:0.929" fill="#efbded" d="M 307.5,424.5 C 310.559,428.937 313.392,433.603 316,438.5C 322.829,452.824 329.662,467.158 336.5,481.5C 334.926,481.063 333.759,480.063 333,478.5C 329.53,472.555 326.363,466.555 323.5,460.5C 320.818,454.745 318.318,448.745 316,442.5C 315.241,440.937 314.074,439.937 312.5,439.5C 310.988,434.452 309.321,429.452 307.5,424.5 Z"/></g>
<g><path style="opacity:1" fill="#f2c1e7" d="M 162.5,477.5 C 163.097,477.735 163.43,478.235 163.5,479C 161.944,482.201 160.944,485.534 160.5,489C 160.691,491.05 161.358,492.883 162.5,494.5C 158.853,493.79 156.853,495.457 156.5,499.5C 155.167,499.5 153.833,499.5 152.5,499.5C 155.831,492.171 159.164,484.838 162.5,477.5 Z"/></g>
</svg>
