<svg width="259" height="302" viewBox="0 0 259 302" fill="none" xmlns="http://www.w3.org/2000/svg"><path d="M109.966 213.74C146.737 219.077 215.817 225.406 244.253 227.979C247.795 228.3 248.246 232.194 244.888 233.365L231.094 238.179V265.392L251.612 271.137C253.763 271.739 253.794 274.778 251.655 275.424L172.337 299.382C166.769 301.064 160.879 301.262 155.197 300.017C114.53 291.109 43.1433 277.565 25.7054 273.206C13.7009 266.476 13.7243 250.274 16.0567 238.968C16.937 234.701 20.5165 231.658 24.7889 230.802L109.966 213.74Z" fill="#FF5353"/><line x1="150.593" y1="252.788" x2="31.2506" y2="238.074" stroke="#ED2727" stroke-width="3.73794" stroke-linecap="round" stroke-linejoin="round"/><path d="M160.071 254.41C169.281 252.596 213.139 241.48 238.905 235.573L240.72 270.414C218.907 277.298 174.444 290.088 165.513 292.181C156.582 294.274 150.861 256.224 160.071 254.41Z" fill="white"/><path d="M139.571 174.801C104.708 179.86 37.6286 186.592 11.142 189.237C8.38261 189.513 8.18771 192.551 10.8673 193.265L22.9803 196.492L26.1343 223.173L6.91899 228.553C4.9044 229.117 4.87547 231.963 6.87817 232.568L81.1601 255.005C86.3748 256.58 91.8906 256.765 97.2118 255.6C135.296 247.257 202.151 234.573 218.481 230.49C229.724 224.188 229.702 209.015 227.517 198.427C226.693 194.431 223.341 191.581 219.34 190.78L139.571 174.801Z" fill="#F7BE00"/><line x1="1.86897" y1="-1.86897" x2="114.243" y2="-1.86897" transform="matrix(0.992485 -0.12237 -0.12237 -0.992485 100.441 212.463)" stroke="#F7A300" stroke-width="3.73794" stroke-linecap="round" stroke-linejoin="round"/><rect x="83.9989" y="142.345" width="9.06101" height="10.7488" fill="#00BDF7"/><path d="M100.022 147.835C136.455 154.239 207.023 163.527 207.891 163.728L201.686 174.028L201.132 192.578L217.044 197.551C218.712 198.072 218.665 200.449 216.978 200.904L154.386 217.787C149.992 218.972 145.381 218.989 140.967 217.883C109.372 209.966 53.8592 197.705 40.3236 193.888C31.002 188.29 31.4984 175.425 33.6401 166.629C34.4128 163.456 37.1026 161.214 40.2978 160.534L100.022 147.835Z" fill="#00BDF7"/><line x1="138.147" y1="181.074" x2="45.7201" y2="166.864" stroke="#00ADE3" stroke-width="3.4934" stroke-linecap="round" stroke-linejoin="round"/><path d="M145.947 178.915C153.192 177.712 187.751 170.044 208.04 166.026L208.543 196.731C191.323 201.605 156.251 210.568 149.218 211.996C142.185 213.425 138.702 180.118 145.947 178.915Z" fill="white"/><path d="M92.6471 213.166C84.022 211.467 42.949 201.057 18.8186 195.525L17.119 227.877C37.5474 234.323 79.1872 246.301 87.551 248.261C95.9148 250.221 101.272 214.865 92.6471 213.166Z" fill="white"/><path d="M111.84 21.6043C124.067 20.076 132.366 0.316406 148.849 0.316406C165.333 0.316406 178.896 15.174 191.752 65.2718C204.96 116.742 191.424 148.458 170.137 154.572C148.849 160.685 79.2219 171.602 63.1523 113.088C43.0652 39.9447 55.0113 20.2486 73.6314 17.4559C86.7326 15.491 99.6136 23.1327 111.84 21.6043Z" fill="#51CF00"/><path d="M169.75 23.9473C169.325 21.1565 168.181 18.4771 166.344 16.2047C165.423 15.0665 163.654 15.1608 162.849 16.3911L159.653 21.2778C159.137 17.5161 157.334 13.9818 154.418 11.3676C153.328 10.3905 151.596 10.7655 150.998 12.1082L142.672 30.7903C133.444 47.7092 118.711 42.9452 104.091 36.4603L89.1837 27.8422C87.911 27.1065 86.2889 27.8195 85.9801 29.2504C85.19 32.9116 85.7181 36.6562 87.3319 39.9048L82.1277 37.6246C80.8611 37.0696 79.419 37.9056 79.2797 39.2756C78.8953 43.055 79.9537 46.765 82.1066 49.7572C77.3365 56.0901 75.3833 64.4539 77.501 72.7323L80.4258 84.1655C84.1254 98.6277 98.8485 107.352 113.311 103.653C126.396 100.305 134.785 87.9332 133.522 74.8952L137.93 73.1323L148.397 68.8297L149.727 72.8134C153.509 84.1418 165.758 90.2596 177.086 86.4779C188.415 82.6963 194.532 70.4472 190.751 59.1188L183.591 37.6713C181.332 30.904 176.051 25.9961 169.75 23.9473Z" fill="#89E219"/><rect x="80.4628" y="52.4521" width="37.7766" height="49.6002" rx="18.8883" transform="rotate(-17.0525 80.4628 52.4521)" fill="white"/><rect x="107.55" y="64.8867" width="13.6367" height="20.9291" rx="6.81833" transform="rotate(-14.6074 107.55 64.8867)" fill="#4B4B4B"/><rect x="143.348" y="36.3154" width="32.1911" height="47.2593" rx="16.0955" transform="rotate(-17.0525 143.348 36.3154)" fill="white"/><path d="M27.7161 52.3315L37.3345 50.3326L42.8368 80.2547L26.1909 80.7837L27.7161 52.3315Z" fill="#CAE4EA"/><circle cx="142.669" cy="79.5357" r="9.6431" fill="#F49000"/><path d="M154.004 75.5666C153.693 72.835 150.954 68.1094 143.062 68.1094C134.027 68.1094 131.355 76.1691 131.254 80.0493C131.242 80.4938 131.607 80.8385 132.052 80.853L147.974 81.3734L153.73 76.2397C153.922 76.0684 154.033 75.8223 154.004 75.5666Z" fill="#FFC200"/><rect x="150.541" y="51.9707" width="13.6367" height="20.9291" rx="6.81833" transform="rotate(-17.0525 150.541 51.9707)" fill="#4B4B4B"/><path d="M140.159 71.7867C141.213 71.3313 144.112 71.0061 146.286 71.7867" stroke="#FFDE00" stroke-width="4.71273" stroke-linecap="round" stroke-linejoin="round"/><path d="M148.624 103.692L132.668 115.893L202.396 124.001L226.72 67.9712L212.073 68.203L190.547 101.394L148.624 103.692Z" fill="white"/><path d="M36.7352 50.0587L26.8542 50.2178C26.4909 50.2237 26.1691 50.4539 26.0463 50.7959L17.036 75.8823C16.9327 76.1699 16.6867 76.3825 16.3873 76.4431L12.6667 77.1962C12.3608 77.2581 12.1112 77.4786 12.0119 77.7744L9.94601 83.932C9.87196 84.1528 9.88909 84.3939 9.99361 84.6019L14.4882 93.5476C14.5435 93.6576 14.6214 93.7546 14.7168 93.8324L83.569 149.962C83.9757 150.294 84.5808 150.194 84.8601 149.75L90.5903 140.641C90.7165 140.441 90.7558 140.197 90.699 139.967L75.5891 78.7054C75.4954 78.3256 75.1607 78.0544 74.7697 78.0416L29.3884 76.554C28.7922 76.5344 28.3906 75.9361 28.5984 75.3769L37.5679 51.2361C37.782 50.66 37.3498 50.0488 36.7352 50.0587Z" fill="white"/><path d="M187.33 112.085L131.534 114.263C129.721 114.334 128.527 116.181 129.207 117.863L147.89 164.093C148.292 165.089 149.26 165.738 150.334 165.73C169.411 165.576 199.83 164.756 205.131 164.578C205.621 167.6 211.513 167.814 216.135 165.361C221.356 162.59 222.746 159.32 221.613 157.422L246.368 121.656C246.827 120.993 246.955 120.156 246.716 119.387L230.294 66.5555C229.615 64.3727 226.665 64.0403 225.523 66.0207C217.494 79.9527 205.343 101.014 204.032 103.199C202.171 106.299 204.744 104.645 206.188 106.992C207.632 109.338 195.847 114.972 191.202 116.551C188.16 117.585 187.864 115.296 188.277 113.288C188.403 112.679 187.952 112.06 187.33 112.085Z" fill="#F7BE00"/><path d="M26.537 43.8504C28.1068 43.9345 29.1832 48.2605 29.518 50.1734L26.842 50.2237C26.467 50.2307 26.1404 50.4707 26.0266 50.828C22.9427 60.5143 16.6364 78.31 15.793 78.5593C14.5024 78.9408 14.4613 77.6726 12.9396 78.7617C9.52904 81.2027 13.9652 90.7331 17.2355 90.9084C19.4356 91.0263 20.0261 88.4811 20.065 86.5798C20.0757 86.0548 20.4983 85.6099 21.023 85.63L67.3498 87.4022C68.8662 87.4602 70.1717 88.4905 70.5805 89.9519L86.9315 148.404C87.5757 150.707 85.768 152.962 83.3803 152.834L23.4902 149.623C18.4909 128.001 8.42837 84.3141 8.17302 82.5512C7.85384 80.3476 9.51058 75.954 12.4539 76.1118C22.001 53.0093 24.5748 43.7452 26.537 43.8504Z" fill="#A777FF"/><rect x="96.0848" y="155.388" width="22.067" height="31.3095" rx="11.0335" transform="rotate(-52.866 96.0848 155.388)" fill="#F79100"/><path d="M124.841 90.9782C112.444 84.3323 95.3502 85.2364 88.353 86.5192L91.8475 94.3694L100.128 98.7717L116.333 98.3716C118.058 97.521 122.174 94.8515 124.841 90.9782Z" fill="#89E219"/><path d="M187.391 61.776C174.765 65.195 163.713 77.2955 159.8 82.6297L167.174 85.708L175.585 83.3992L186.289 72.7841C186.912 71.1081 188.06 66.0981 187.391 61.776Z" fill="#89E219"/><path d="M46.4591 151.401C46.576 149.221 25.4943 132.567 18.4085 132.187C16.8823 132.105 13.7505 133.424 13.4326 139.354C13.0353 146.767 22.1121 158.951 30.7241 159.413C39.336 159.875 46.3422 153.581 46.4591 151.401Z" fill="#51CF00"/><path opacity="0.6" d="M67.0252 218.73C67.7321 218.883 68.4299 218.435 68.5837 217.728C68.7375 217.021 68.289 216.323 67.582 216.169L67.0252 218.73ZM18.2223 208.114L67.0252 218.73L67.582 216.169L18.7792 205.554L18.2223 208.114Z" fill="#A5CFD9"/><path opacity="0.6" d="M80.1076 228.302C80.8136 228.46 81.5143 228.016 81.6728 227.31C81.8312 226.605 81.3874 225.904 80.6814 225.745L80.1076 228.302ZM17.4903 214.247L80.1076 228.302L80.6814 225.745L18.0641 211.691L17.4903 214.247Z" fill="#A5CFD9"/><path opacity="0.6" d="M239.844 253.595L239.977 256.155C239.96 256.16 239.944 256.164 239.926 256.168L177.309 270.222C176.603 270.381 175.902 269.937 175.744 269.231C175.586 268.525 176.029 267.824 176.735 267.666L239.353 253.611C239.519 253.574 239.685 253.57 239.844 253.595Z" fill="#A5CFD9"/><path opacity="0.6" d="M239.487 246.646L239.625 249.297L195.367 258.878C194.66 259.031 193.962 258.582 193.809 257.875C193.656 257.168 194.105 256.47 194.812 256.317L239.487 246.646Z" fill="#A5CFD9"/><path opacity="0.6" d="M208.417 189.217L208.46 191.891L180.897 197.991L180.331 195.432L208.417 189.217Z" fill="#A5CFD9"/><path opacity="0.6" d="M208.324 183.52L208.368 186.185L160.412 195.996L159.887 193.429L208.324 183.52Z" fill="#A5CFD9"/><path d="M236.189 142.453C236.189 138.195 227.892 130.99 221.123 130.99C216.866 130.99 217.846 160.793 222.649 160.793C227.452 160.793 236.189 146.711 236.189 142.453Z" fill="#51CF00"/><line x1="186.985" y1="114.789" x2="199.785" y2="148.034" stroke="#EEAD00" stroke-width="1.7467" stroke-linecap="round" stroke-linejoin="round"/><line x1="206.672" y1="104.974" x2="213.862" y2="122.291" stroke="#EEAD00" stroke-width="1.7467" stroke-linecap="round" stroke-linejoin="round"/><path d="M21.4411 87.4702L29.9563 129.391" stroke="#925DF4" stroke-width="1.7467" stroke-linecap="round" stroke-linejoin="round"/></svg>