<?xml version="1.0" encoding="UTF-8"?>
<!DOCTYPE svg PUBLIC "-//W3C//DTD SVG 1.1//EN" "http://www.w3.org/Graphics/SVG/1.1/DTD/svg11.dtd">
<svg xmlns="http://www.w3.org/2000/svg" version="1.1" width="488px" height="511px" style="shape-rendering:geometricPrecision; text-rendering:geometricPrecision; image-rendering:optimizeQuality; fill-rule:evenodd; clip-rule:evenodd" xmlns:xlink="http://www.w3.org/1999/xlink">
<g><path style="opacity:1" fill="#d53937" d="M 258.5,48.5 C 254.066,46.2722 249.566,44.2722 245,42.5C 240.878,43.5724 236.711,44.4058 232.5,45C 230.18,47.1617 227.513,48.6617 224.5,49.5C 228.609,43.5262 234.443,40.5262 242,40.5C 248.997,40.4166 254.497,43.0832 258.5,48.5 Z"/></g>
<g><path style="opacity:1" fill="#db201f" d="M 258.5,48.5 C 258.343,49.8734 258.51,51.2068 259,52.5C 263.08,57.3866 264.58,63.0533 263.5,69.5C 261.09,78.2416 255.424,83.5749 246.5,85.5C 243.167,85.5 239.833,85.5 236.5,85.5C 229.329,83.6614 224.329,79.3281 221.5,72.5C 220.504,67.5374 220.337,62.5374 221,57.5C 222.845,55.1332 224.011,52.4665 224.5,49.5C 227.513,48.6617 230.18,47.1617 232.5,45C 236.711,44.4058 240.878,43.5724 245,42.5C 249.566,44.2722 254.066,46.2722 258.5,48.5 Z"/></g>
<g><path style="opacity:0.753" fill="#d74f4d" d="M 258.5,48.5 C 262.554,52.4429 264.887,57.2762 265.5,63C 264.883,65.277 264.216,67.4437 263.5,69.5C 264.58,63.0533 263.08,57.3866 259,52.5C 258.51,51.2068 258.343,49.8734 258.5,48.5 Z"/></g>
<g><path style="opacity:0.999" fill="#df504d" d="M 224.5,49.5 C 224.011,52.4665 222.845,55.1332 221,57.5C 220.337,62.5374 220.504,67.5374 221.5,72.5C 217.732,66.4207 217.565,60.0874 221,53.5C 221.949,51.9069 223.115,50.5736 224.5,49.5 Z"/></g>
<g><path style="opacity:1" fill="#884048" d="M 236.5,85.5 C 239.833,85.5 243.167,85.5 246.5,85.5C 246.5,86.1667 246.5,86.8333 246.5,87.5C 243.5,86.1667 240.5,86.1667 237.5,87.5C 237.167,86.8333 236.833,86.1667 236.5,85.5 Z"/></g>
<g><path style="opacity:1" fill="#39283b" d="M 246.5,87.5 C 246.5,102.833 246.5,118.167 246.5,133.5C 245.753,118.319 245.086,102.986 244.5,87.5C 242.5,87.8333 240.5,88.1667 238.5,88.5C 238.829,103.676 238.496,118.676 237.5,133.5C 237.5,118.167 237.5,102.833 237.5,87.5C 240.5,86.1667 243.5,86.1667 246.5,87.5 Z"/></g>
<g><path style="opacity:0.632" fill="#b3a6bb" d="M 237.5,87.5 C 237.5,102.833 237.5,118.167 237.5,133.5C 240.5,134.833 243.5,134.833 246.5,133.5C 246.5,118.167 246.5,102.833 246.5,87.5C 247.496,102.991 247.83,118.658 247.5,134.5C 281.671,134.168 315.671,134.502 349.5,135.5C 315.5,135.5 281.5,135.5 247.5,135.5C 210.833,135.5 174.167,135.5 137.5,135.5C 136.5,135.5 135.5,135.5 134.5,135.5C 168.329,134.502 202.329,134.168 236.5,134.5C 236.17,118.658 236.504,102.991 237.5,87.5 Z"/></g>
<g><path style="opacity:1" fill="#303047" d="M 246.5,133.5 C 243.5,134.833 240.5,134.833 237.5,133.5C 238.496,118.676 238.829,103.676 238.5,88.5C 240.5,88.1667 242.5,87.8333 244.5,87.5C 245.086,102.986 245.753,118.319 246.5,133.5 Z"/></g>
<g><path style="opacity:1" fill="#91bfe9" d="M 247.5,135.5 C 281.5,135.5 315.5,135.5 349.5,135.5C 352.781,135.42 355.781,136.087 358.5,137.5C 321.349,136.865 284.349,136.198 247.5,135.5 Z"/></g>
<g><path style="opacity:1" fill="#7bc6f8" d="M 137.5,135.5 C 174.167,135.5 210.833,135.5 247.5,135.5C 284.349,136.198 321.349,136.865 358.5,137.5C 379.278,143.944 392.611,157.611 398.5,178.5C 398.892,182.582 399.558,186.582 400.5,190.5C 400.5,229.5 400.5,268.5 400.5,307.5C 399.803,319.023 398.969,330.69 398,342.5C 394.218,349.73 390.718,357.063 387.5,364.5C 378.643,375.993 366.976,382.993 352.5,385.5C 334.848,386.345 317.181,386.678 299.5,386.5C 260.996,386.168 222.663,386.501 184.5,387.5C 168.658,387.83 152.991,387.496 137.5,386.5C 138.239,386.631 138.906,386.464 139.5,386C 138.099,385.59 136.766,385.09 135.5,384.5C 130.072,379.572 125.572,373.905 122,367.5C 113.935,349.677 109.102,331.01 107.5,311.5C 103.75,276.182 103.584,240.849 107,205.5C 109.223,185.939 114.557,167.272 123,149.5C 126.683,143.587 131.517,138.921 137.5,135.5 Z M 312.5,239.5 C 312.833,239.5 313.167,239.5 313.5,239.5C 316.175,240.103 318.508,241.436 320.5,243.5C 323.523,248.694 322.857,253.36 318.5,257.5C 312.025,259.923 307.025,258.256 303.5,252.5C 303.5,250.5 303.5,248.5 303.5,246.5C 305.67,242.984 308.67,240.651 312.5,239.5 Z M 165.5,237.5 C 175.659,236.158 179.826,240.491 178,250.5C 175.103,255.155 170.937,256.655 165.5,255C 157.649,249.19 157.649,243.356 165.5,237.5 Z"/></g>
<g><path style="opacity:1" fill="#3f9af0" d="M 134.5,135.5 C 135.5,135.5 136.5,135.5 137.5,135.5C 131.517,138.921 126.683,143.587 123,149.5C 114.557,167.272 109.223,185.939 107,205.5C 103.584,240.849 103.75,276.182 107.5,311.5C 109.102,331.01 113.935,349.677 122,367.5C 125.572,373.905 130.072,379.572 135.5,384.5C 127.526,384.31 120.526,381.643 114.5,376.5C 116.167,375.167 117.833,373.833 119.5,372.5C 116.855,368.165 115.522,368.498 115.5,373.5C 113.266,373.38 111.099,373.713 109,374.5C 107.594,373.586 106.094,372.92 104.5,372.5C 101.606,371.118 99.1057,369.118 97,366.5C 89.488,357.138 84.988,346.472 83.5,334.5C 83.5,325.5 83.5,316.5 83.5,307.5C 84.3037,309.189 85.3037,310.855 86.5,312.5C 88.0709,311.691 89.7376,311.357 91.5,311.5C 91.5,313.5 91.5,315.5 91.5,317.5C 89.5165,317.617 87.8498,316.95 86.5,315.5C 85.432,317.187 85.5986,318.854 87,320.5C 87.6667,319.167 88.3333,319.167 89,320.5C 89.7677,326.573 90.101,332.573 90,338.5C 90.7504,337.874 91.5838,337.374 92.5,337C 91.4002,329.448 91.4002,322.448 92.5,316C 93.7932,315.51 95.1266,315.343 96.5,315.5C 96.5,314.5 96.5,313.5 96.5,312.5C 95.448,312.649 94.448,312.483 93.5,312C 94.1115,310.141 94.1115,308.141 93.5,306C 94.0289,291.803 95.0289,277.636 96.5,263.5C 96.1874,258.332 95.8541,253.165 95.5,248C 96.1667,242.667 96.8333,237.333 97.5,232C 97.6182,228.973 97.1182,226.139 96,223.5C 95.6667,228.833 95.3333,234.167 95,239.5C 94.2294,229.643 94.3961,219.809 95.5,210C 95.0163,202.418 94.183,194.918 93,187.5C 91.6971,225.795 91.0304,264.128 91,302.5C 89.6218,304.213 87.9552,305.547 86,306.5C 85.8333,305.833 85.6667,305.167 85.5,304.5C 87.3077,267.258 88.141,229.925 88,192.5C 89.3848,191.449 90.3848,190.116 91,188.5C 91.203,184.579 91.703,180.745 92.5,177C 90.7726,171.234 89.4393,171.234 88.5,177C 89.5188,179.549 89.5188,182.049 88.5,184.5C 87.8333,184.167 87.1667,183.833 86.5,183.5C 85.4528,184.922 85.4528,186.422 86.5,188C 86.1639,189.03 85.4972,189.53 84.5,189.5C 84.5,186.833 84.5,184.167 84.5,181.5C 88.9795,161.511 100.646,147.345 119.5,139C 124.302,136.897 129.302,135.731 134.5,135.5 Z"/></g>
<g><path style="opacity:1" fill="#b9f3fd" d="M 342.5,159.5 C 354.954,161.434 365.454,167.101 374,176.5C 379.237,183.628 381.404,191.461 380.5,200C 378.105,202.145 375.938,201.978 374,199.5C 371.587,190.175 366.754,182.341 359.5,176C 353.281,172.315 346.781,169.148 340,166.5C 339.162,163.519 339.995,161.186 342.5,159.5 Z"/></g>
<g><path style="opacity:0.435" fill="#9292c7" d="M 84.5,181.5 C 84.5,184.167 84.5,186.833 84.5,189.5C 83.8333,189.833 83.1667,190.167 82.5,190.5C 73.8333,190.5 65.1667,190.5 56.5,190.5C 65.0093,189.833 73.6759,189.167 82.5,188.5C 83.0671,186.018 83.7337,183.684 84.5,181.5 Z"/></g>
<g><path style="opacity:0.443" fill="#9e98c1" d="M 398.5,178.5 C 399.911,181.796 400.911,185.296 401.5,189C 409.167,189.333 416.833,189.667 424.5,190C 425.416,190.278 426.082,190.778 426.5,191.5C 418.2,190.629 409.867,190.295 401.5,190.5C 401.167,190.5 400.833,190.5 400.5,190.5C 399.558,186.582 398.892,182.582 398.5,178.5 Z"/></g>
<g><path style="opacity:1" fill="#376dc8" d="M 55.5,190.5 C 55.8333,190.5 56.1667,190.5 56.5,190.5C 65.1667,190.5 73.8333,190.5 82.5,190.5C 82.5,229.167 82.5,267.833 82.5,306.5C 74.16,306.666 65.8267,306.5 57.5,306C 53.4836,304.062 50.9836,300.895 50,296.5C 49.5,264.168 49.3334,231.835 49.5,199.5C 49.3505,198.448 49.5172,197.448 50,196.5C 52.0396,194.63 53.8729,192.63 55.5,190.5 Z"/></g>
<g><path style="opacity:1" fill="#3c97f1" d="M 83.5,307.5 C 83.1667,307.5 82.8333,307.5 82.5,307.5C 82.5,307.167 82.5,306.833 82.5,306.5C 82.5,267.833 82.5,229.167 82.5,190.5C 83.1667,190.167 83.8333,189.833 84.5,189.5C 85.4972,189.53 86.1639,189.03 86.5,188C 85.4528,186.422 85.4528,184.922 86.5,183.5C 87.1667,183.833 87.8333,184.167 88.5,184.5C 89.5188,182.049 89.5188,179.549 88.5,177C 89.4393,171.234 90.7726,171.234 92.5,177C 91.703,180.745 91.203,184.579 91,188.5C 90.3848,190.116 89.3848,191.449 88,192.5C 88.141,229.925 87.3077,267.258 85.5,304.5C 85.6667,305.167 85.8333,305.833 86,306.5C 87.9552,305.547 89.6218,304.213 91,302.5C 91.0304,264.128 91.6971,225.795 93,187.5C 94.183,194.918 95.0163,202.418 95.5,210C 94.3961,219.809 94.2294,229.643 95,239.5C 95.3333,234.167 95.6667,228.833 96,223.5C 97.1182,226.139 97.6182,228.973 97.5,232C 96.8333,237.333 96.1667,242.667 95.5,248C 95.8541,253.165 96.1874,258.332 96.5,263.5C 95.0289,277.636 94.0289,291.803 93.5,306C 94.1115,308.141 94.1115,310.141 93.5,312C 94.448,312.483 95.448,312.649 96.5,312.5C 96.5,313.5 96.5,314.5 96.5,315.5C 95.1266,315.343 93.7932,315.51 92.5,316C 91.4002,322.448 91.4002,329.448 92.5,337C 91.5838,337.374 90.7504,337.874 90,338.5C 90.101,332.573 89.7677,326.573 89,320.5C 88.3333,319.167 87.6667,319.167 87,320.5C 85.5986,318.854 85.432,317.187 86.5,315.5C 87.8498,316.95 89.5165,317.617 91.5,317.5C 91.5,315.5 91.5,313.5 91.5,311.5C 89.7376,311.357 88.0709,311.691 86.5,312.5C 85.3037,310.855 84.3037,309.189 83.5,307.5 Z"/></g>
<g><path style="opacity:1" fill="#516ab1" d="M 49.5,199.5 C 49.3334,231.835 49.5,264.168 50,296.5C 50.9836,300.895 53.4836,304.062 57.5,306C 65.8267,306.5 74.16,306.666 82.5,306.5C 82.5,306.833 82.5,307.167 82.5,307.5C 82.1667,307.5 81.8333,307.5 81.5,307.5C 72.8269,307.666 64.1603,307.5 55.5,307C 51.9212,305.59 49.5878,303.09 48.5,299.5C 48.1684,265.996 48.5017,232.662 49.5,199.5 Z"/></g>
<g><path style="opacity:1" fill="#6d7ebc" d="M 400.5,190.5 C 400.833,190.5 401.167,190.5 401.5,190.5C 401.5,229.167 401.5,267.833 401.5,306.5C 409.875,306.74 418.208,306.407 426.5,305.5C 426.629,302.298 428.129,299.965 431,298.5C 431.5,264.502 431.667,230.502 431.5,196.5C 432.222,196.918 432.722,197.584 433,198.5C 433.667,231.833 433.667,265.167 433,298.5C 431.585,302.251 429.085,305.084 425.5,307C 417.507,307.5 409.507,307.666 401.5,307.5C 401.167,307.5 400.833,307.5 400.5,307.5C 400.5,268.5 400.5,229.5 400.5,190.5 Z"/></g>
<g><path style="opacity:1" fill="#baf4fe" d="M 381.5,298.5 C 378.036,302.682 375.036,302.349 372.5,297.5C 372.333,269.831 372.5,242.165 373,214.5C 375.667,211.833 378.333,211.833 381,214.5C 381.5,242.498 381.667,270.498 381.5,298.5 Z"/></g>
<g><path style="opacity:0.49" fill="#958ec2" d="M 55.5,190.5 C 53.8729,192.63 52.0396,194.63 50,196.5C 49.5172,197.448 49.3505,198.448 49.5,199.5C 48.5017,232.662 48.1684,265.996 48.5,299.5C 47.3358,266.002 47.1691,232.336 48,198.5C 49.3202,194.681 51.8202,192.015 55.5,190.5 Z"/></g>
<g><path style="opacity:1" fill="#83ccf1" d="M 381.5,298.5 C 381.667,270.498 381.5,242.498 381,214.5C 378.333,211.833 375.667,211.833 373,214.5C 372.5,242.165 372.333,269.831 372.5,297.5C 371.681,294.695 371.181,291.695 371,288.5C 370.113,263.144 370.447,237.811 372,212.5C 376.146,208.292 379.813,208.626 383,213.5C 383.167,227.667 383.333,241.833 383.5,256C 383.499,270.516 382.833,284.683 381.5,298.5 Z"/></g>
<g><path style="opacity:1" fill="#376ec6" d="M 303.5,202.5 C 330.775,200.21 348.942,211.876 358,237.5C 361.769,262.802 352.269,280.968 329.5,292C 298.103,299.558 277.603,288.058 268,257.5C 265.263,229.619 277.096,211.286 303.5,202.5 Z M 312.5,239.5 C 312.833,239.5 313.167,239.5 313.5,239.5C 316.175,240.103 318.508,241.436 320.5,243.5C 323.523,248.694 322.857,253.36 318.5,257.5C 312.025,259.923 307.025,258.256 303.5,252.5C 303.5,250.5 303.5,248.5 303.5,246.5C 305.67,242.984 308.67,240.651 312.5,239.5 Z"/></g>
<g><path style="opacity:1" fill="#303049" d="M 327.5,279.5 C 319.598,281.327 311.598,281.827 303.5,281C 298.178,277.99 292.845,275.157 287.5,272.5C 277.745,260.033 275.912,246.367 282,231.5C 295.317,213.569 312.15,209.403 332.5,219C 348.957,233.428 351.79,250.261 341,269.5C 337.448,274.233 332.948,277.566 327.5,279.5 Z M 312.5,239.5 C 312.833,239.5 313.167,239.5 313.5,239.5C 316.175,240.103 318.508,241.436 320.5,243.5C 323.523,248.694 322.857,253.36 318.5,257.5C 312.025,259.923 307.025,258.256 303.5,252.5C 303.5,250.5 303.5,248.5 303.5,246.5C 305.67,242.984 308.67,240.651 312.5,239.5 Z"/></g>
<g><path style="opacity:1" fill="#636172" d="M 312.5,239.5 C 308.67,240.651 305.67,242.984 303.5,246.5C 303.579,245.07 303.246,243.736 302.5,242.5C 303.689,241.571 305.022,241.238 306.5,241.5C 306.343,240.127 306.51,238.793 307,237.5C 308.401,239.192 310.234,239.859 312.5,239.5 Z"/></g>
<g><path style="opacity:0.839" fill="#878594" d="M 313.5,239.5 C 317.222,238.68 319.555,240.013 320.5,243.5C 318.508,241.436 316.175,240.103 313.5,239.5 Z"/></g>
<g><path style="opacity:1" fill="#605f6e" d="M 303.5,252.5 C 307.025,258.256 312.025,259.923 318.5,257.5C 318.389,258.117 318.056,258.617 317.5,259C 313.514,259.499 309.514,259.666 305.5,259.5C 305.576,257.077 304.576,255.244 302.5,254C 302.57,253.235 302.903,252.735 303.5,252.5 Z"/></g>
<g><path style="opacity:1" fill="#386ec5" d="M 159.5,200.5 C 186.363,198.329 204.53,209.662 214,234.5C 218.297,262.076 207.464,280.909 181.5,291C 153.521,295.768 134.688,284.935 125,258.5C 120.515,229.517 132.015,210.183 159.5,200.5 Z M 165.5,237.5 C 157.649,243.356 157.649,249.19 165.5,255C 170.937,256.655 175.103,255.155 178,250.5C 179.826,240.491 175.659,236.158 165.5,237.5 Z"/></g>
<g><path style="opacity:1" fill="#2c3256" d="M 148.5,219.5 C 148.78,222.388 147.447,223.888 144.5,224C 143.12,225.925 141.62,227.759 140,229.5C 137.527,236.697 136.694,244.03 137.5,251.5C 138.845,250.653 139.845,249.487 140.5,248C 141.167,247.333 141.833,247.333 142.5,248C 140.982,251.736 139.648,255.57 138.5,259.5C 140.264,261.13 141.264,263.13 141.5,265.5C 138.463,262.94 136.629,259.607 136,255.5C 132.67,241.503 136.17,229.67 146.5,220C 147.094,219.536 147.761,219.369 148.5,219.5 Z"/></g>
<g><path style="opacity:1" fill="#313149" d="M 141.5,265.5 C 141.264,263.13 140.264,261.13 138.5,259.5C 139.648,255.57 140.982,251.736 142.5,248C 141.833,247.333 141.167,247.333 140.5,248C 139.845,249.487 138.845,250.653 137.5,251.5C 136.694,244.03 137.527,236.697 140,229.5C 141.62,227.759 143.12,225.925 144.5,224C 147.447,223.888 148.78,222.388 148.5,219.5C 158.302,211.257 169.302,209.424 181.5,214C 199.641,222.115 206.808,235.949 203,255.5C 195.458,275.854 180.958,284.187 159.5,280.5C 155.708,278.06 151.708,275.893 147.5,274C 144.619,271.721 142.619,268.888 141.5,265.5 Z M 165.5,237.5 C 157.649,243.356 157.649,249.19 165.5,255C 170.937,256.655 175.103,255.155 178,250.5C 179.826,240.491 175.659,236.158 165.5,237.5 Z"/></g>
<g><path style="opacity:1" fill="#2a375f" d="M 287.5,272.5 C 292.845,275.157 298.178,277.99 303.5,281C 311.598,281.827 319.598,281.327 327.5,279.5C 312.461,286.73 299.127,284.396 287.5,272.5 Z"/></g>
<g><path style="opacity:1" fill="#396dc4" d="M 401.5,190.5 C 409.867,190.295 418.2,190.629 426.5,191.5C 429.167,192.167 430.833,193.833 431.5,196.5C 431.667,230.502 431.5,264.502 431,298.5C 428.129,299.965 426.629,302.298 426.5,305.5C 418.208,306.407 409.875,306.74 401.5,306.5C 401.5,267.833 401.5,229.167 401.5,190.5 Z"/></g>
<g><path style="opacity:1" fill="#366ecd" d="M 402.5,226.5 C 403.315,227.429 404.148,228.429 405,229.5C 405.989,254.98 405.656,280.313 404,305.5C 402.518,279.256 402.018,252.922 402.5,226.5 Z"/></g>
<g><path style="opacity:1" fill="#366ec9" d="M 429.5,223.5 C 430.663,245.996 430.83,268.663 430,291.5C 424.453,289.777 420.786,291.777 419,297.5C 418.503,300.146 418.336,302.813 418.5,305.5C 415.482,305.665 412.482,305.498 409.5,305C 408.874,304.25 408.374,303.416 408,302.5C 407.333,279.167 407.333,255.833 408,232.5C 411.693,230.203 414.86,230.537 417.5,233.5C 421.019,232.068 424.686,231.234 428.5,231C 429.435,228.619 429.768,226.119 429.5,223.5 Z"/></g>
<g><path style="opacity:1" fill="#7ac2fa" d="M 405.5,222.5 C 405.5,222.167 405.5,221.833 405.5,221.5C 406.289,221.217 406.956,220.717 407.5,220C 412.833,219.333 418.167,219.333 423.5,220C 427.424,223.182 427.424,226.182 423.5,229C 418.167,229.667 412.833,229.667 407.5,229C 405.771,227.211 405.104,225.044 405.5,222.5 Z"/></g>
<g><path style="opacity:1" fill="#376dc9" d="M 405.5,221.5 C 405.5,221.833 405.5,222.167 405.5,222.5C 404.542,222.953 403.708,223.619 403,224.5C 402.5,213.839 402.333,203.172 402.5,192.5C 410.507,192.334 418.507,192.5 426.5,193C 427.155,194.487 428.155,195.653 429.5,196.5C 430.833,204.833 430.833,213.167 429.5,221.5C 428.3,220.469 426.966,219.635 425.5,219C 419.116,218.794 412.783,218.294 406.5,217.5C 405.571,218.689 405.238,220.022 405.5,221.5 Z"/></g>
<g><path style="opacity:1" fill="#a3bbdd" d="M 400.5,307.5 C 400.833,307.5 401.167,307.5 401.5,307.5C 403.824,325.897 400.657,343.23 392,359.5C 390.951,361.618 389.451,363.284 387.5,364.5C 390.718,357.063 394.218,349.73 398,342.5C 398.969,330.69 399.803,319.023 400.5,307.5 Z"/></g>
<g><path style="opacity:1" fill="#63a9e6" d="M 204.5,317.5 C 229.59,317.019 254.59,317.519 279.5,319C 280.494,340.425 280.827,361.925 280.5,383.5C 278.897,383.312 277.563,383.812 276.5,385C 252.5,385.667 228.5,385.667 204.5,385C 203.953,384.075 203.287,383.242 202.5,382.5C 201.334,362.175 201.167,341.842 202,321.5C 202.662,320.016 203.496,318.683 204.5,317.5 Z"/></g>
<g><path style="opacity:0.56" fill="#a19dc3" d="M 81.5,307.5 C 81.8333,307.5 82.1667,307.5 82.5,307.5C 82.8333,307.5 83.1667,307.5 83.5,307.5C 83.5,316.5 83.5,325.5 83.5,334.5C 82.8081,325.599 82.1414,316.599 81.5,307.5 Z"/></g>
<g><path style="opacity:1" fill="#7bc6f9" d="M 206.5,321.5 C 229.502,321.333 252.502,321.5 275.5,322C 276.493,341.424 276.826,360.924 276.5,380.5C 253.167,380.5 229.833,380.5 206.5,380.5C 206.5,360.833 206.5,341.167 206.5,321.5 Z"/></g>
<g><path style="opacity:1" fill="#5f98de" d="M 135.5,384.5 C 136.766,385.09 138.099,385.59 139.5,386C 138.906,386.464 138.239,386.631 137.5,386.5C 124.668,385.911 113.668,381.245 104.5,372.5C 106.094,372.92 107.594,373.586 109,374.5C 111.099,373.713 113.266,373.38 115.5,373.5C 115.522,368.498 116.855,368.165 119.5,372.5C 117.833,373.833 116.167,375.167 114.5,376.5C 120.526,381.643 127.526,384.31 135.5,384.5 Z"/></g>
<g><path style="opacity:0.196" fill="#b6b8cd" d="M 352.5,385.5 C 349.695,386.319 346.695,386.819 343.5,387C 328.837,387.5 314.17,387.667 299.5,387.5C 299.5,387.167 299.5,386.833 299.5,386.5C 317.181,386.678 334.848,386.345 352.5,385.5 Z"/></g>
<g><path style="opacity:1" fill="#31344f" d="M 299.5,386.5 C 299.5,386.833 299.5,387.167 299.5,387.5C 299.5,390.833 299.5,394.167 299.5,397.5C 261.167,397.5 222.833,397.5 184.5,397.5C 184.5,394.167 184.5,390.833 184.5,387.5C 222.663,386.501 260.996,386.168 299.5,386.5 Z"/></g>
<g><path style="opacity:1" fill="#496ab4" d="M 184.5,397.5 C 222.833,397.5 261.167,397.5 299.5,397.5C 307.918,397.198 316.252,397.531 324.5,398.5C 324.5,399.167 324.5,399.833 324.5,400.5C 313.576,399.358 302.576,399.191 291.5,400C 290.333,400.5 289.5,401.333 289,402.5C 267.55,401.172 245.883,400.506 224,400.5C 202.5,400.833 181,401.167 159.5,401.5C 158.864,408.963 158.198,416.296 157.5,423.5C 157.5,416.5 157.5,409.5 157.5,402.5C 157.137,400.089 158.137,398.589 160.5,398C 168.493,397.5 176.493,397.334 184.5,397.5 Z"/></g>
<g><path style="opacity:1" fill="#376dc9" d="M 324.5,400.5 C 325.167,408.167 325.833,415.833 326.5,423.5C 326.5,423.833 326.5,424.167 326.5,424.5C 326.966,428.162 326.299,431.495 324.5,434.5C 317.313,434.825 310.313,434.491 303.5,433.5C 303.833,432.5 304.5,431.833 305.5,431.5C 306.117,431.389 306.617,431.056 307,430.5C 307.184,422.921 307.684,415.421 308.5,408C 307.088,404.452 304.421,402.619 300.5,402.5C 298.159,402.662 296.325,403.662 295,405.5C 294.816,414.88 295.316,424.213 296.5,433.5C 251.837,434.667 207.17,434.833 162.5,434C 160.922,432.906 159.255,432.072 157.5,431.5C 157.5,428.833 157.5,426.167 157.5,423.5C 158.198,416.296 158.864,408.963 159.5,401.5C 181,401.167 202.5,400.833 224,400.5C 245.883,400.506 267.55,401.172 289,402.5C 289.5,401.333 290.333,400.5 291.5,400C 302.576,399.191 313.576,399.358 324.5,400.5 Z"/></g>
<g><path style="opacity:0.941" fill="#847cb0" d="M 324.5,398.5 C 326.13,400.026 326.963,402.026 327,404.5C 327.499,408.486 327.666,412.486 327.5,416.5C 326.532,418.607 326.198,420.941 326.5,423.5C 325.833,415.833 325.167,408.167 324.5,400.5C 324.5,399.833 324.5,399.167 324.5,398.5 Z"/></g>
<g><path style="opacity:0.707" fill="#a8b4d1" d="M 156.5,423.5 C 156.5,423.833 156.5,424.167 156.5,424.5C 145.819,424.47 135.152,424.804 124.5,425.5C 125.952,424.698 127.618,424.198 129.5,424C 138.494,423.5 147.494,423.334 156.5,423.5 Z"/></g>
<g><path style="opacity:0.743" fill="#afadcc" d="M 327.5,416.5 C 327.5,418.833 327.5,421.167 327.5,423.5C 333.509,423.334 339.509,423.501 345.5,424C 347.058,424.21 348.391,424.71 349.5,425.5C 341.862,424.687 334.196,424.354 326.5,424.5C 326.5,424.167 326.5,423.833 326.5,423.5C 326.198,420.941 326.532,418.607 327.5,416.5 Z"/></g>
<g><path style="opacity:1" fill="#7ac3f9" d="M 305.5,431.5 C 304.5,431.833 303.833,432.5 303.5,433.5C 300.192,434.026 298.026,432.693 297,429.5C 296.333,422.167 296.333,414.833 297,407.5C 300,404.833 303,404.833 306,407.5C 306.77,415.548 306.603,423.548 305.5,431.5 Z"/></g>
<g><path style="opacity:1" fill="#7cc6f8" d="M 156.5,424.5 C 156.79,428.142 155.457,430.975 152.5,433C 153.328,433.915 154.328,434.581 155.5,435C 155.167,435.333 154.833,435.667 154.5,436C 156,436.5 157.5,437 159,437.5C 213.64,436.839 268.14,436.173 322.5,435.5C 323.492,435.672 324.158,435.338 324.5,434.5C 326.299,431.495 326.966,428.162 326.5,424.5C 334.196,424.354 341.862,424.687 349.5,425.5C 368.758,429.583 382.591,440.583 391,458.5C 391.781,459.944 391.614,461.277 390.5,462.5C 352.871,489.491 310.871,504.824 264.5,508.5C 246.489,508.622 228.489,508.288 210.5,507.5C 164.687,502.131 123.687,485.465 87.5,457.5C 87.5,456.167 87.5,454.833 87.5,453.5C 90.1667,454.5 92.8333,455.5 95.5,456.5C 95.5,455.5 95.5,454.5 95.5,453.5C 94.1667,453.5 92.8333,453.5 91.5,453.5C 91.1741,450.393 92.3408,448.06 95,446.5C 96,447.167 97,447.833 98,448.5C 98.9025,447.299 100.069,446.465 101.5,446C 100.128,445.369 98.7948,444.702 97.5,444C 99.045,437.819 102.878,435.319 109,436.5C 109.49,435.207 109.657,433.873 109.5,432.5C 111.857,432.663 114.19,432.497 116.5,432C 116.727,430.865 117.06,429.698 117.5,428.5C 120.016,427.67 122.35,426.67 124.5,425.5C 135.152,424.804 145.819,424.47 156.5,424.5 Z"/></g>
<g><path style="opacity:1" fill="#3977c6" d="M 305.5,431.5 C 306.603,423.548 306.77,415.548 306,407.5C 303,404.833 300,404.833 297,407.5C 296.333,414.833 296.333,422.167 297,429.5C 298.026,432.693 300.192,434.026 303.5,433.5C 310.313,434.491 317.313,434.825 324.5,434.5C 324.158,435.338 323.492,435.672 322.5,435.5C 268.166,435.667 213.832,435.5 159.5,435C 158.177,434.184 157.511,433.017 157.5,431.5C 159.255,432.072 160.922,432.906 162.5,434C 207.17,434.833 251.837,434.667 296.5,433.5C 295.316,424.213 294.816,414.88 295,405.5C 296.325,403.662 298.159,402.662 300.5,402.5C 304.421,402.619 307.088,404.452 308.5,408C 307.684,415.421 307.184,422.921 307,430.5C 306.617,431.056 306.117,431.389 305.5,431.5 Z"/></g>
<g><path style="opacity:1" fill="#84bdf6" d="M 157.5,402.5 C 157.5,409.5 157.5,416.5 157.5,423.5C 157.5,426.167 157.5,428.833 157.5,431.5C 157.511,433.017 158.177,434.184 159.5,435C 213.832,435.5 268.166,435.667 322.5,435.5C 268.14,436.173 213.64,436.839 159,437.5C 157.5,437 156,436.5 154.5,436C 154.833,435.667 155.167,435.333 155.5,435C 154.328,434.581 153.328,433.915 152.5,433C 155.457,430.975 156.79,428.142 156.5,424.5C 156.5,424.167 156.5,423.833 156.5,423.5C 156.175,416.313 156.509,409.313 157.5,402.5 Z"/></g>
<g><path style="opacity:1" fill="#90c0e8" d="M 124.5,425.5 C 122.35,426.67 120.016,427.67 117.5,428.5C 117.06,429.698 116.727,430.865 116.5,432C 114.19,432.497 111.857,432.663 109.5,432.5C 109.657,433.873 109.49,435.207 109,436.5C 102.878,435.319 99.045,437.819 97.5,444C 98.7948,444.702 100.128,445.369 101.5,446C 100.069,446.465 98.9025,447.299 98,448.5C 97,447.833 96,447.167 95,446.5C 92.3408,448.06 91.1741,450.393 91.5,453.5C 92.8333,453.5 94.1667,453.5 95.5,453.5C 95.5,454.5 95.5,455.5 95.5,456.5C 92.8333,455.5 90.1667,454.5 87.5,453.5C 87.5,454.833 87.5,456.167 87.5,457.5C 86.3054,457.134 85.6387,456.301 85.5,455C 91.9347,442.567 101.601,433.567 114.5,428C 117.72,426.648 121.053,425.814 124.5,425.5 Z"/></g>
<g><path style="opacity:0.839" fill="#a9d5f2" d="M 210.5,507.5 C 228.489,508.288 246.489,508.622 264.5,508.5C 257.174,509.166 249.674,509.5 242,509.5C 231.287,509.702 220.787,509.035 210.5,507.5 Z"/></g>
</svg>
