<?xml version="1.0" encoding="UTF-8"?>
<svg version="1.1" xmlns="http://www.w3.org/2000/svg" width="1920" height="1827">
<path d="M0 0 C1.55062134 0.00598206 1.55062134 0.00598206 3.13256836 0.01208496 C16.35521159 0.07180276 29.51753463 0.40615314 42.6875 1.625 C43.90477783 1.73408691 45.12205566 1.84317383 46.3762207 1.95556641 C61.22382825 3.53657604 78.74586376 6.87748858 89.22265625 18.37890625 C94.97184734 26.2131373 96.88445168 33.55759872 97 43.125 C97.04350586 44.25615234 97.04350586 44.25615234 97.08789062 45.41015625 C97.22641349 58.43130529 92.14139021 71.44371633 88.42407227 83.78320312 C77.42252428 120.3036343 69.33074569 157.24578528 66.6875 195.375 C66.63110352 196.12813477 66.57470703 196.88126953 66.51660156 197.65722656 C63.481285 239.73856804 66.11955166 282.35053238 70.36621094 324.24121094 C71.17905132 332.31925853 71.94005216 340.24282045 71.6875 348.375 C74.77550545 347.69304705 74.77550545 347.69304705 75.97094727 345.38818359 C76.39432373 344.52531738 76.8177002 343.66245117 77.25390625 342.7734375 C77.97453247 341.33641479 77.97453247 341.33641479 78.7097168 339.87036133 C79.21801025 338.84064209 79.72630371 337.81092285 80.25 336.75 C85.13529854 327.12546512 90.36759181 318.11648106 96.6875 309.375 C97.79351563 307.83005859 97.79351563 307.83005859 98.921875 306.25390625 C109.27213541 292.1415831 120.98805936 277.44999343 134.4765625 266.21875 C136.20900314 264.77402919 137.90495136 263.2855287 139.5859375 261.78125 C155.41080895 247.67487366 173.03975929 236.37208017 191.6875 226.375 C192.55036621 225.9099707 193.41323242 225.44494141 194.30224609 224.96582031 C235.91098487 202.76724361 280.47321442 192.66154572 326.46337891 184.45458984 C375.31597879 175.73126816 423.2560861 164.83870082 468.6875 144.375 C469.56293457 143.98666992 470.43836914 143.59833984 471.34033203 143.19824219 C498.44061655 131.1034018 523.64084718 115.04636491 547.21020508 97.08007812 C556.38853799 90.14931145 564.8081313 84.80535368 576.6875 86.375 C582.33659473 88.61150167 585.78126105 92.02752033 588.6875 97.375 C592.11511356 107.65784067 589.02853986 118.58260588 585.8125 128.5 C585.4032793 129.80317318 584.99501531 131.10664713 584.58764648 132.41040039 C583.32578501 136.41147602 582.01528489 140.3953733 580.6875 144.375 C580.27612793 145.60814941 579.86475586 146.84129883 579.44091797 148.11181641 C572.3245944 169.1603768 563.99134803 189.64650737 553.72802734 209.36328125 C552.60975806 211.52530351 551.51766494 213.69954293 550.42578125 215.875 C538.01423285 240.34290123 521.99176821 262.963191 503.6875 283.375 C503.21135254 283.91286133 502.73520508 284.45072266 502.24462891 285.00488281 C484.77114822 304.70612888 464.54625271 320.04760936 443.18359375 335.27441406 C441.71652318 336.29578473 441.71652318 336.29578473 440.6875 337.375 C450.79863721 338.82606397 460.88568846 339.59589859 471.08120728 340.13665771 C526.41874589 343.11444091 580.21958134 355.02660801 630.6875 378.375 C631.68700684 378.83100586 632.68651367 379.28701172 633.71630859 379.75683594 C677.81679565 399.94675255 717.68392227 428.21331029 754.99609375 458.98779297 C756.52905409 460.24505057 758.07625452 461.48489556 759.625 462.72265625 C765.51344415 467.43854684 771.08154983 472.42222362 776.56689453 477.59570312 C779.44494788 480.3090308 782.35255894 482.95700725 785.359375 485.52734375 C790.52376039 490.01973234 795.33279243 494.87053036 800.16040039 499.7175293 C801.74709946 501.30958966 803.33907742 502.8962299 804.93164062 504.48242188 C810.39466247 509.9415542 815.68287673 515.4886749 820.6875 521.375 C821.70858144 522.53203142 822.73199648 523.6870079 823.7578125 524.83984375 C831.86004368 534.02149698 839.37245017 543.5583466 846.6875 553.375 C847.17492676 554.02500977 847.66235352 554.67501953 848.16455078 555.34472656 C898.98083818 623.18057462 931.56788731 707.46616489 963.6875 820.375 C963.8527417 821.03467773 964.0179834 821.69435547 964.18823242 822.37402344 C971.51273564 851.73095641 976.7730564 881.66807681 980 911.75 C980.0753598 912.44981995 980.1507196 913.14963989 980.22836304 913.8706665 C980.68545339 918.19524236 981.0906095 922.52277227 981.46578979 926.85519409 C981.62045546 928.61301779 981.78189654 930.37025279 981.94851685 932.12698364 C983.80038235 951.84019934 984.03116904 971.46588771 984.00317383 991.2487793 C983.99857212 994.7681161 984.00537295 998.28710476 984.02368164 1001.80639648 C984.28237975 1052.06147078 979.53818621 1101.91743596 970.6875 1151.375 C970.56115173 1152.08406494 970.43480347 1152.79312988 970.30462646 1153.52368164 C962.84111774 1195.19765469 951.99329524 1236.20094615 938.6875 1276.375 C938.29078094 1277.57292175 938.29078094 1277.57292175 937.88604736 1278.79504395 C916.21169844 1343.98933087 887.25110341 1406.61493958 851.6875 1465.375 C851.12708008 1466.30650879 850.56666016 1467.23801758 849.98925781 1468.19775391 C841.09366562 1482.95794776 831.50530033 1497.21461206 821.6875 1511.375 C820.95901855 1512.4280835 820.95901855 1512.4280835 820.21582031 1513.50244141 C812.41574639 1524.73490758 804.03405249 1535.54657175 795.6875 1546.375 C795.15415039 1547.06722656 794.62080078 1547.75945312 794.07128906 1548.47265625 C788.3239128 1555.91178513 782.39657376 1563.16594237 776.28515625 1570.30859375 C773.96097258 1573.03270986 771.72826416 1575.82169993 769.5 1578.625 C763.60423049 1585.87320409 757.07700225 1592.54172517 750.64160156 1599.30761719 C747.81233512 1602.30089907 745.03088309 1605.3368546 742.25 1608.375 C735.838646 1615.34864116 729.30371368 1622.07451463 722.10546875 1628.23828125 C719.46410994 1630.57240608 716.90215477 1632.97905063 714.33862305 1635.39794922 C707.66736045 1641.69015338 700.8626527 1647.65789972 693.6875 1653.375 C692.4620452 1654.37838344 691.23819515 1655.38372877 690.015625 1656.390625 C616.47713751 1716.87214928 525.01420261 1763.16967575 370.69140625 1781.58984375 C369.76617535 1781.58958946 368.84094444 1781.58933517 367.88767624 1781.58907318 C348.36355079 1781.56231211 328.94926423 1780.56366841 309.47225571 1779.29600525 C304.8725703 1779.00027495 300.27185727 1778.72156616 295.67114258 1778.44238281 C294.73522435 1778.38553188 293.79930613 1778.32868095 292.83502674 1778.27010727 C290.93473819 1778.15468168 289.03444706 1778.03929866 287.13415337 1777.92395782 C284.2821552 1777.75029298 281.43025849 1777.57504272 278.5783844 1777.39935303 C259.18266069 1776.20662324 239.78105439 1775.13482093 220.375 1774.125 C219.56672131 1774.08289398 218.75844261 1774.04078796 217.92567062 1773.99740601 C193.18743774 1772.71216816 168.46158134 1771.601755 143.6875 1771.375 C142.29410714 1771.35978589 140.90071521 1771.34448645 139.50732422 1771.32910156 C59.58304307 1770.5129181 -15.89392549 1781.08770783 -93.32842255 1800.5059166 C-121.84035288 1807.6553958 -150.35598508 1814.24001706 -179.3125 1819.375 C-180.3441629 1819.55974884 -180.3441629 1819.55974884 -181.39666748 1819.74822998 C-188.5306898 1821.02038632 -195.66462264 1822.0984521 -202.86035156 1822.95410156 C-205.98789891 1823.33542346 -209.10622763 1823.76430263 -212.22650146 1824.2003479 C-260.44033134 1830.77333645 -313.17866083 1830.82090797 -361.32073975 1823.66601562 C-363.3130782 1823.37491552 -365.30716734 1823.10416521 -367.30322266 1822.83984375 C-463.15059778 1809.99517752 -552.10834726 1767.49177795 -631.3125 1713.375 C-632.0554834 1712.86775391 -632.7984668 1712.36050781 -633.56396484 1711.83789062 C-652.46905045 1698.88103769 -670.70865594 1685.05113588 -688.3125 1670.375 C-688.90579102 1669.88080566 -689.49908203 1669.38661133 -690.11035156 1668.87744141 C-704.72660735 1656.64891005 -718.3277733 1643.45131537 -731.8125 1630 C-732.42700012 1629.38817871 -733.04150024 1628.77635742 -733.67462158 1628.14599609 C-740.10808313 1621.73380254 -746.45540112 1615.32606281 -752.3125 1608.375 C-753.26113008 1607.29131072 -754.21160688 1606.2092348 -755.1640625 1605.12890625 C-762.34985764 1596.89074975 -769.08294859 1588.36714827 -775.6328125 1579.61669922 C-777.32021944 1577.36469769 -779.01940442 1575.12190663 -780.71875 1572.87890625 C-793.32493013 1556.12349605 -804.85781465 1538.55222391 -815.3125 1520.375 C-815.80508301 1519.52373535 -816.29766602 1518.6724707 -816.80517578 1517.79541016 C-861.52553471 1440.21873262 -887.08285388 1355.42843063 -907.3125 1265.375 C-907.53679688 1264.37962219 -907.76109375 1263.38424438 -907.9921875 1262.35870361 C-917.73349022 1219.08093686 -925.69228933 1175.38566096 -931.3125 1131.375 C-931.46412598 1130.22999023 -931.61575195 1129.08498047 -931.77197266 1127.90527344 C-936.66314873 1090.2360813 -936.5234717 1051.97758781 -936.67450333 1014.05267715 C-936.68725936 1011.48592155 -936.70722268 1008.91932108 -936.7293396 1006.35263062 C-936.91677121 983.05797768 -935.53506742 960.44503398 -932.3125 937.375 C-932.14931274 936.17902191 -931.98612549 934.98304382 -931.81799316 933.75082397 C-930.784627 926.21810388 -929.66338111 918.70112311 -928.5 911.1875 C-928.24379883 909.51806839 -928.24379883 909.51806839 -927.98242188 907.81491089 C-926.78176466 899.99797064 -925.55473776 892.18543153 -924.3125 884.375 C-924.15783264 883.39829346 -924.00316528 882.42158691 -923.84381104 881.4152832 C-917.49768079 841.44282625 -907.99586119 803.0366624 -890.3125 766.375 C-889.88275879 765.46927246 -889.45301758 764.56354492 -889.01025391 763.63037109 C-872.42704996 728.7979352 -851.01328347 696.74450328 -827.3125 666.375 C-826.39045012 665.18503132 -825.46856862 663.99493214 -824.546875 662.8046875 C-820.74713687 657.91802501 -816.91042817 653.07177823 -812.9375 648.32421875 C-806.48345576 640.60947978 -800.37199931 632.81452484 -794.64086914 624.54638672 C-776.65211838 598.65289745 -754.52805568 572.63693368 -729.65234375 553.22265625 C-727.43024435 551.46797676 -725.38098523 549.61889264 -723.3125 547.6875 C-696.67350237 523.84015576 -663.93440835 507.14783664 -632.37304688 490.95605469 C-628.91277925 489.16850737 -625.47570255 487.34079346 -622.04199219 485.50292969 C-592.20359942 469.57082247 -561.52384756 456.6134288 -529.3125 446.375 C-529.08553895 444.21466977 -529.08553895 444.21466977 -530.96484375 442.59765625 C-531.71894531 441.88480469 -532.47304688 441.17195313 -533.25 440.4375 C-544.43819914 429.46039896 -555.99455071 416.30367275 -556.6875 399.875 C-556.27532818 390.51045627 -552.99660623 382.9611706 -546.3125 376.375 C-532.88304195 365.51987895 -516.49566589 364.32365888 -500 362.375 C-497.88908904 362.11582237 -495.77833146 361.85539263 -493.66772461 361.59375 C-485.22611644 360.55165716 -476.78054245 359.54413457 -468.33233643 358.55706787 C-449.13590795 356.31089795 -430.22813796 353.30035648 -411.3125 349.375 C-410.3380896 349.17417816 -410.3380896 349.17417816 -409.34399414 348.96929932 C-372.63955267 341.37887215 -336.60847278 330.75642608 -300.58862305 320.4777832 C-282.48654046 315.31243612 -264.3819196 310.21857142 -246.125 305.625 C-244.93863449 305.32328384 -244.93863449 305.32328384 -243.728302 305.01547241 C-226.15707258 300.56538801 -208.47577647 297.26491197 -190.30078125 297.171875 C-189.37804413 297.16481537 -188.45530701 297.15775574 -187.50460815 297.15048218 C-148.61554204 296.92041772 -148.61554204 296.92041772 -132.3125 300.375 C-130.85674561 300.68099121 -130.85674561 300.68099121 -129.37158203 300.99316406 C-97.9037751 307.83334231 -65.70546474 320.48788209 -41.22265625 341.94921875 C-39.1998637 343.45907413 -37.74407249 343.84373471 -35.3125 344.375 C-36.67276555 336.99048328 -38.47272148 329.78957051 -40.47265625 322.5546875 C-41.10404561 320.24241353 -41.73488286 317.92998875 -42.36523438 315.61743164 C-42.85769653 313.81485397 -42.85769653 313.81485397 -43.36010742 311.9758606 C-56.69433858 263.02340245 -67.3804599 213.93001862 -72.3125 163.375 C-72.42964355 162.2190332 -72.54678711 161.06306641 -72.66748047 159.87207031 C-83.07125703 53.36089575 -83.07125703 53.36089575 -57.25 18.69140625 C-42.23522984 0.74027982 -21.76044528 -0.16869233 0 0 Z " fill="#E2390C" transform="translate(936.3125,-0.37499999999999994)"/>
<path d="M0 0 C1.55062134 0.00598206 1.55062134 0.00598206 3.13256836 0.01208496 C16.35521159 0.07180276 29.51753463 0.40615314 42.6875 1.625 C43.90477783 1.73408691 45.12205566 1.84317383 46.3762207 1.95556641 C61.22382825 3.53657604 78.74586376 6.87748858 89.22265625 18.37890625 C94.97184734 26.2131373 96.88445168 33.55759872 97 43.125 C97.02900391 43.87910156 97.05800781 44.63320313 97.08789062 45.41015625 C97.22641349 58.43130529 92.14139021 71.44371633 88.42407227 83.78320312 C77.42252428 120.3036343 69.33074569 157.24578528 66.6875 195.375 C66.63110352 196.12813477 66.57470703 196.88126953 66.51660156 197.65722656 C63.481285 239.73856804 66.11955166 282.35053238 70.36621094 324.24121094 C71.17905132 332.31925853 71.94005216 340.24282045 71.6875 348.375 C74.77550545 347.69304705 74.77550545 347.69304705 75.97094727 345.38818359 C76.39432373 344.52531738 76.8177002 343.66245117 77.25390625 342.7734375 C77.97453247 341.33641479 77.97453247 341.33641479 78.7097168 339.87036133 C79.21801025 338.84064209 79.72630371 337.81092285 80.25 336.75 C85.13529854 327.12546512 90.36759181 318.11648106 96.6875 309.375 C97.42484375 308.34503906 98.1621875 307.31507813 98.921875 306.25390625 C109.27213541 292.1415831 120.98805936 277.44999343 134.4765625 266.21875 C136.20900314 264.77402919 137.90495136 263.2855287 139.5859375 261.78125 C155.41080895 247.67487366 173.03975929 236.37208017 191.6875 226.375 C192.55036621 225.9099707 193.41323242 225.44494141 194.30224609 224.96582031 C235.91098487 202.76724361 280.47321442 192.66154572 326.46337891 184.45458984 C375.31597879 175.73126816 423.2560861 164.83870082 468.6875 144.375 C469.56293457 143.98666992 470.43836914 143.59833984 471.34033203 143.19824219 C498.44061655 131.1034018 523.64084718 115.04636491 547.21020508 97.08007812 C556.38853799 90.14931145 564.8081313 84.80535368 576.6875 86.375 C582.33659473 88.61150167 585.78126105 92.02752033 588.6875 97.375 C592.11511356 107.65784067 589.02853986 118.58260588 585.8125 128.5 C585.4032793 129.80317318 584.99501531 131.10664713 584.58764648 132.41040039 C583.32578501 136.41147602 582.01528489 140.3953733 580.6875 144.375 C580.27612793 145.60814941 579.86475586 146.84129883 579.44091797 148.11181641 C572.3245944 169.1603768 563.99134803 189.64650737 553.72802734 209.36328125 C552.60975806 211.52530351 551.51766494 213.69954293 550.42578125 215.875 C538.01423285 240.34290123 521.99176821 262.963191 503.6875 283.375 C503.21135254 283.91286133 502.73520508 284.45072266 502.24462891 285.00488281 C490.03753618 298.76830762 476.71759425 310.85055852 461.89648438 321.74414062 C459.64039353 323.40977799 457.4058238 325.10169077 455.171875 326.796875 C453.65711817 327.92824663 452.14151652 329.05848819 450.625 330.1875 C449.96653076 330.69031494 449.30806152 331.19312988 448.62963867 331.71118164 C442.12406949 336.48193238 434.98804215 339.84608232 427.75924683 343.35873413 C424.53248604 344.94157563 421.33990078 346.58935861 418.14453125 348.234375 C396.37175648 359.36967813 374.29448051 369.409613 351.0703125 377.19140625 C347.68148092 378.32234798 347.68148092 378.32234798 344.49609375 379.8125 C339.39212418 382.04619874 333.98954519 383.35541359 328.625 384.8125 C326.37101146 385.43329506 324.11710449 386.05438633 321.86328125 386.67578125 C320.78900879 386.97049316 319.71473633 387.26520508 318.60791016 387.56884766 C315.1676356 388.51850378 311.73961181 389.50398293 308.3125 390.5 C294.51284327 394.44847597 280.58202148 397.92289035 266.66796875 401.44140625 C265.95237289 401.6224012 265.23677704 401.80339615 264.49949646 401.98987579 C257.77535856 403.69032663 251.0507814 405.38903406 244.32543945 407.0847168 C240.60720267 408.02231493 236.88951543 408.9620669 233.17214394 409.90308952 C231.78000336 410.2550627 230.38766562 410.60625725 228.99510765 410.95657539 C219.83998093 413.25991681 210.75290806 415.7416284 201.6875 418.375 C199.62907865 418.96024211 197.57051017 419.54496731 195.51171875 420.12890625 C157.86426957 430.50706404 157.86426957 430.50706404 126.6875 452.375 C126.6875 453.035 126.6875 453.695 126.6875 454.375 C127.23777359 454.38086624 127.78804718 454.38673248 128.35499573 454.39277649 C134.2142565 454.45797271 140.07302981 454.5426673 145.93188477 454.63745117 C148.10271677 454.67019494 150.27362363 454.6983738 152.44458008 454.72143555 C179.2866105 455.01394086 204.20512349 459.08936803 230 466.25 C231.15653076 466.56541748 232.31306152 466.88083496 233.50463867 467.20581055 C241.6491099 469.52425026 249.0795491 472.68128931 256.6875 476.375 C258.13648625 477.03104128 259.58792391 477.68172688 261.04296875 478.32421875 C277.95970419 485.93664194 293.20724299 495.81746855 307.6875 507.375 C308.25855469 507.82891113 308.82960938 508.28282227 309.41796875 508.75048828 C324.89190691 521.1900557 339.70838732 535.46346682 351.37158203 551.56738281 C352.81568703 553.55108474 354.29541258 555.50535255 355.77734375 557.4609375 C380.73448254 590.75582545 400.28249855 630.62632405 412.6875 670.375 C412.90760742 671.06609863 413.12771484 671.75719727 413.35449219 672.46923828 C417.54294421 685.83315832 418.74424439 698.97795547 412.43359375 711.953125 C407.74414608 719.67090809 401.18141147 723.62102966 392.52734375 725.859375 C377.48744958 728.59013983 363.18192609 724.09709708 348.6875 720.375 C347.54933838 720.08786133 347.54933838 720.08786133 346.38818359 719.79492188 C342.13560596 718.71992084 337.91081432 717.5591489 333.6875 716.375 C332.29958325 716.00091569 330.91155563 715.6272426 329.5234375 715.25390625 C316.89593721 711.80084535 304.45073265 707.78485437 292 703.75 C291.12183624 703.46641632 290.24367249 703.18283264 289.33889771 702.89065552 C272.26992383 697.36984669 272.26992383 697.36984669 264.7722168 694.24316406 C262.66161961 693.36422231 260.53400613 692.55702021 258.390625 691.76171875 C225.90146042 679.48722085 195.70982524 661.63775733 167.4375 641.625 C166.7249707 641.1211377 166.01244141 640.61727539 165.27832031 640.09814453 C157.63847561 634.66877054 150.14525539 629.05086571 142.6875 623.375 C142.09952637 622.92882324 141.51155273 622.48264648 140.90576172 622.02294922 C125.58319433 610.38440144 110.90435794 597.97322657 96.40185547 585.33496094 C93.33583121 582.66321787 90.26031887 580.00741567 87.140625 577.3984375 C67.33869119 560.74100512 50.05479012 542.53744215 35.9765625 520.84765625 C33.65247649 517.27816107 31.18263844 513.82675513 28.6875 510.375 C25.61114369 510.6810526 24.07843589 510.9798605 21.87109375 513.2109375 C19.78202991 516.24872609 17.7022709 519.28750421 15.6875 522.375 C15.28208984 522.99068848 14.87667969 523.60637695 14.45898438 524.24072266 C-5.33988905 554.48733241 -22.88180513 586.26603121 -39.9453125 618.10546875 C-43.03997735 623.87729233 -46.1693051 629.62949315 -49.3125 635.375 C-53.65490866 643.31737047 -57.96212793 651.27805705 -62.25 659.25 C-62.8370874 660.34094971 -63.4241748 661.43189941 -64.02905273 662.5559082 C-67.5102534 669.02467792 -67.5102534 669.02467792 -70.98925781 675.49462891 C-77.34671622 687.31617738 -83.79790239 699.07259698 -90.44213867 710.7355957 C-93.73651727 716.53447265 -96.94159583 722.37275966 -100.08569336 728.25439453 C-113.50497232 753.35034833 -127.98505294 778.74062266 -145.3125 801.375 C-146.33134283 802.73391512 -147.34951111 804.09333612 -148.3671875 805.453125 C-176.1318328 842.37527497 -176.1318328 842.37527497 -197.3125 845.375 C-207.11025351 846.38022406 -214.03343293 844.75767519 -222.3125 839.375 C-225.1875 836.9375 -225.1875 836.9375 -227.3125 834.375 C-227.78945313 833.89804687 -228.26640625 833.42109375 -228.7578125 832.9296875 C-233.65280064 827.83791592 -235.91052931 821.93522102 -238.3125 815.375 C-238.74369141 814.21097656 -238.74369141 814.21097656 -239.18359375 813.0234375 C-242.69959592 803.0037422 -244.76519766 792.78495764 -245.9375 782.25 C-246.06229736 781.15091309 -246.18709473 780.05182617 -246.31567383 778.91943359 C-247.97391943 763.85987865 -248.40025526 748.95218781 -248.4375 733.8125 C-248.44026947 733.07759338 -248.44303894 732.34268677 -248.44589233 731.58551025 C-248.4854081 717.21340618 -248.35927979 702.76910954 -245.5625 688.625 C-245.388396 687.71161865 -245.21429199 686.7982373 -245.03491211 685.85717773 C-241.22694322 666.31429907 -236.30109489 647.65659215 -228.3125 629.375 C-227.75467358 628.05100642 -227.19741897 626.72677184 -226.640625 625.40234375 C-210.04927216 586.45869049 -184.63985217 547.70467332 -154.0859375 518.1484375 C-152.31943361 516.38193361 -150.72763526 514.54034458 -149.125 512.625 C-144.49795482 507.24961722 -139.18890437 502.59642679 -133.93505859 497.84912109 C-132.45188098 496.50162991 -130.98482141 495.13645228 -129.51953125 493.76953125 C-121.62595928 486.4356217 -113.29023969 479.36015979 -104.3125 473.375 C-104.3125 472.385 -104.3125 471.395 -104.3125 470.375 C-120.61765235 469.9940385 -136.23991194 470.55618867 -152.3125 473.375 C-153.17649414 473.52485352 -154.04048828 473.67470703 -154.93066406 473.82910156 C-161.07850303 474.91320196 -167.19747842 476.12015125 -173.3125 477.375 C-174.21548828 477.55788574 -175.11847656 477.74077148 -176.04882812 477.92919922 C-195.46938124 481.89041885 -214.57708366 486.92190903 -233.5 492.8125 C-247.6280718 497.20318828 -261.96162601 500.79890428 -276.3125 504.375 C-277.4670166 504.66294434 -278.6215332 504.95088867 -279.81103516 505.24755859 C-317.10822167 514.49673638 -317.10822167 514.49673638 -331.09765625 515.19921875 C-333.48659546 515.29959838 -333.48659546 515.29959838 -336.3125 516.375 C-354.96200101 517.30818201 -373.99706435 517.20401094 -392.3125 513.375 C-393.87218506 513.05305664 -393.87218506 513.05305664 -395.46337891 512.72460938 C-443.30326534 502.65597405 -482.84308054 479.78195051 -521.3125 450.375 C-522.12348145 449.7552832 -522.93446289 449.13556641 -523.77001953 448.49707031 C-524.55876465 447.88959961 -525.34750977 447.28212891 -526.16015625 446.65625 C-527.21408569 445.84510742 -527.21408569 445.84510742 -528.28930664 445.01757812 C-541.26935096 434.47941737 -554.47989353 419.21402185 -556.59375 402.09765625 C-556.97189877 393.13237918 -554.21922004 385.31344883 -548.4453125 378.4765625 C-535.343772 365.56698596 -517.28486775 364.41688853 -500 362.375 C-497.88908904 362.11582237 -495.77833146 361.85539263 -493.66772461 361.59375 C-485.22611644 360.55165716 -476.78054245 359.54413457 -468.33233643 358.55706787 C-449.13590795 356.31089795 -430.22813796 353.30035648 -411.3125 349.375 C-410.66289307 349.24111877 -410.01328613 349.10723755 -409.34399414 348.96929932 C-372.63955267 341.37887215 -336.60847278 330.75642608 -300.58862305 320.4777832 C-282.48654046 315.31243612 -264.3819196 310.21857142 -246.125 305.625 C-245.33408966 305.4238559 -244.54317932 305.22271179 -243.728302 305.01547241 C-226.15707258 300.56538801 -208.47577647 297.26491197 -190.30078125 297.171875 C-189.37804413 297.16481537 -188.45530701 297.15775574 -187.50460815 297.15048218 C-148.61554204 296.92041772 -148.61554204 296.92041772 -132.3125 300.375 C-131.34199707 300.57899414 -130.37149414 300.78298828 -129.37158203 300.99316406 C-97.9037751 307.83334231 -65.70546474 320.48788209 -41.22265625 341.94921875 C-39.1998637 343.45907413 -37.74407249 343.84373471 -35.3125 344.375 C-36.67276555 336.99048328 -38.47272148 329.78957051 -40.47265625 322.5546875 C-41.10404561 320.24241353 -41.73488286 317.92998875 -42.36523438 315.61743164 C-42.85769653 313.81485397 -42.85769653 313.81485397 -43.36010742 311.9758606 C-56.69433858 263.02340245 -67.3804599 213.93001862 -72.3125 163.375 C-72.42964355 162.2190332 -72.54678711 161.06306641 -72.66748047 159.87207031 C-83.07125703 53.36089575 -83.07125703 53.36089575 -57.25 18.69140625 C-42.23522984 0.74027982 -21.76044528 -0.16869233 0 0 Z " fill="#265E32" transform="translate(936.3125,-0.37499999999999994)"/>
</svg>
