<svg width="32" height="24" viewBox="0 0 32 24" fill="none" xmlns="http://www.w3.org/2000/svg">
<g clip-path="url(#clip0_270_67495)">
<rect width="32" height="24" fill="white"/>
<path fill-rule="evenodd" clip-rule="evenodd" d="M0 0H32V24H0V0Z" fill="#F7FCFF"/>
<path fill-rule="evenodd" clip-rule="evenodd" d="M0 14.6667V16.6667H32V14.6667H0Z" fill="#E31D1C"/>
<path fill-rule="evenodd" clip-rule="evenodd" d="M0 18.3333V20.3333H32V18.3333H0Z" fill="#E31D1C"/>
<path fill-rule="evenodd" clip-rule="evenodd" d="M0 7.33334V9.33334H32V7.33334H0Z" fill="#E31D1C"/>
<path fill-rule="evenodd" clip-rule="evenodd" d="M0 22V24H32V22H0Z" fill="#E31D1C"/>
<path fill-rule="evenodd" clip-rule="evenodd" d="M0 11V13H32V11H0Z" fill="#E31D1C"/>
<path fill-rule="evenodd" clip-rule="evenodd" d="M0 0V2H32V0H0Z" fill="#E31D1C"/>
<path fill-rule="evenodd" clip-rule="evenodd" d="M0 3.66666V5.66666H32V3.66666H0Z" fill="#E31D1C"/>
<rect width="20" height="13" fill="#2E42A5"/>
<path fill-rule="evenodd" clip-rule="evenodd" d="M1.72197 2.93868L0.996087 3.44756L1.24115 2.54195L0.596436 1.96804H1.43852L1.72095 1.22897L2.05212 1.96804H2.76998L2.20594 2.54195L2.4243 3.44756L1.72197 2.93868ZM5.72197 2.93868L4.99609 3.44756L5.24115 2.54195L4.59644 1.96804H5.43852L5.72095 1.22897L6.05212 1.96804H6.76998L6.20594 2.54195L6.4243 3.44756L5.72197 2.93868ZM8.99609 3.44756L9.72197 2.93868L10.4243 3.44756L10.2059 2.54195L10.77 1.96804H10.0521L9.72095 1.22897L9.43852 1.96804H8.59644L9.24115 2.54195L8.99609 3.44756ZM13.722 2.93868L12.9961 3.44756L13.2412 2.54195L12.5964 1.96804H13.4385L13.721 1.22897L14.0521 1.96804H14.77L14.2059 2.54195L14.4243 3.44756L13.722 2.93868ZM0.996087 7.44756L1.72197 6.93867L2.4243 7.44756L2.20594 6.54195L2.76998 5.96804H2.05212L1.72095 5.22897L1.43852 5.96804H0.596436L1.24115 6.54195L0.996087 7.44756ZM5.72197 6.93867L4.99609 7.44756L5.24115 6.54195L4.59644 5.96804H5.43852L5.72095 5.22897L6.05212 5.96804H6.76998L6.20594 6.54195L6.4243 7.44756L5.72197 6.93867ZM8.99609 7.44756L9.72197 6.93867L10.4243 7.44756L10.2059 6.54195L10.77 5.96804H10.0521L9.72095 5.22897L9.43852 5.96804H8.59644L9.24115 6.54195L8.99609 7.44756ZM13.722 6.93867L12.9961 7.44756L13.2412 6.54195L12.5964 5.96804H13.4385L13.721 5.22897L14.0521 5.96804H14.77L14.2059 6.54195L14.4243 7.44756L13.722 6.93867ZM0.996087 11.4476L1.72197 10.9387L2.4243 11.4476L2.20594 10.542L2.76998 9.96804H2.05212L1.72095 9.22897L1.43852 9.96804H0.596436L1.24115 10.542L0.996087 11.4476ZM5.72197 10.9387L4.99609 11.4476L5.24115 10.542L4.59644 9.96804H5.43852L5.72095 9.22897L6.05212 9.96804H6.76998L6.20594 10.542L6.4243 11.4476L5.72197 10.9387ZM8.99609 11.4476L9.72197 10.9387L10.4243 11.4476L10.2059 10.542L10.77 9.96804H10.0521L9.72095 9.22897L9.43852 9.96804H8.59644L9.24115 10.542L8.99609 11.4476ZM13.722 10.9387L12.9961 11.4476L13.2412 10.542L12.5964 9.96804H13.4385L13.721 9.22897L14.0521 9.96804H14.77L14.2059 10.542L14.4243 11.4476L13.722 10.9387ZM16.9961 3.44756L17.722 2.93868L18.4243 3.44756L18.2059 2.54195L18.77 1.96804H18.0521L17.721 1.22897L17.4385 1.96804H16.5964L17.2412 2.54195L16.9961 3.44756ZM17.722 6.93867L16.9961 7.44756L17.2412 6.54195L16.5964 5.96804H17.4385L17.721 5.22897L18.0521 5.96804H18.77L18.2059 6.54195L18.4243 7.44756L17.722 6.93867ZM16.9961 11.4476L17.722 10.9387L18.4243 11.4476L18.2059 10.542L18.77 9.96804H18.0521L17.721 9.22897L17.4385 9.96804H16.5964L17.2412 10.542L16.9961 11.4476ZM3.72197 4.93867L2.99609 5.44756L3.24115 4.54195L2.59644 3.96804H3.43852L3.72095 3.22897L4.05212 3.96804H4.76998L4.20594 4.54195L4.4243 5.44756L3.72197 4.93867ZM6.99609 5.44756L7.72197 4.93867L8.4243 5.44756L8.20594 4.54195L8.76998 3.96804H8.05212L7.72095 3.22897L7.43852 3.96804H6.59644L7.24115 4.54195L6.99609 5.44756ZM11.722 4.93867L10.9961 5.44756L11.2412 4.54195L10.5964 3.96804H11.4385L11.721 3.22897L12.0521 3.96804H12.77L12.2059 4.54195L12.4243 5.44756L11.722 4.93867ZM2.99609 9.44756L3.72197 8.93867L4.4243 9.44756L4.20594 8.54195L4.76998 7.96804H4.05212L3.72095 7.22897L3.43852 7.96804H2.59644L3.24115 8.54195L2.99609 9.44756ZM7.72197 8.93867L6.99609 9.44756L7.24115 8.54195L6.59644 7.96804H7.43852L7.72095 7.22897L8.05212 7.96804H8.76998L8.20594 8.54195L8.4243 9.44756L7.72197 8.93867ZM10.9961 9.44756L11.722 8.93867L12.4243 9.44756L12.2059 8.54195L12.77 7.96804H12.0521L11.721 7.22897L11.4385 7.96804H10.5964L11.2412 8.54195L10.9961 9.44756ZM15.722 4.93867L14.9961 5.44756L15.2412 4.54195L14.5964 3.96804H15.4385L15.721 3.22897L16.0521 3.96804H16.77L16.2059 4.54195L16.4243 5.44756L15.722 4.93867ZM14.9961 9.44756L15.722 8.93867L16.4243 9.44756L16.2059 8.54195L16.77 7.96804H16.0521L15.721 7.22897L15.4385 7.96804H14.5964L15.2412 8.54195L14.9961 9.44756Z" fill="#F7FCFF"/>
</g>
<defs>
<clipPath id="clip0_270_67495">
<rect width="32" height="24" fill="white"/>
</clipPath>
</defs>
</svg>
