<?xml version="1.0" encoding="UTF-8"?>
<!DOCTYPE svg PUBLIC "-//W3C//DTD SVG 1.1//EN" "http://www.w3.org/Graphics/SVG/1.1/DTD/svg11.dtd">
<svg xmlns="http://www.w3.org/2000/svg" version="1.1" width="500px" height="500px" style="shape-rendering:geometricPrecision; text-rendering:geometricPrecision; image-rendering:optimizeQuality; fill-rule:evenodd; clip-rule:evenodd" xmlns:xlink="http://www.w3.org/1999/xlink">
<g><path style="opacity:0.987" fill="#7a4a41" d="M 219.5,102.5 C 210.321,101.561 201.321,99.7274 192.5,97C 184.167,96.3333 175.833,96.3333 167.5,97C 165.162,97.8366 162.828,98.6699 160.5,99.5C 159.558,99.3918 158.725,99.0585 158,98.5C 155.07,100.066 151.903,100.9 148.5,101C 140.102,104.771 131.435,107.938 122.5,110.5C 130.347,104.923 139.013,100.756 148.5,98C 172.834,91.1714 196.5,92.6714 219.5,102.5 Z"/></g>
<g><path style="opacity:1" fill="#743a24" d="M 341.5,96.5 C 348.926,99.8173 356.26,103.317 363.5,107C 366.451,107.096 369.118,107.929 371.5,109.5C 372.183,109.137 372.85,108.804 373.5,108.5C 374.072,110.255 374.906,111.922 376,113.5C 376.333,113.167 376.667,112.833 377,112.5C 379.836,114.254 382.502,116.254 385,118.5C 385.383,117.944 385.883,117.611 386.5,117.5C 387.31,119.798 388.144,122.132 389,124.5C 391.669,125.747 393.502,127.747 394.5,130.5C 397.022,131.515 399.356,132.849 401.5,134.5C 405.544,140.375 409.377,146.375 413,152.5C 413.671,153.252 414.504,153.586 415.5,153.5C 417.679,157.203 419.345,161.203 420.5,165.5C 421.301,174.714 423.634,183.381 427.5,191.5C 428.959,191.433 430.292,191.766 431.5,192.5C 431.931,199.031 435.098,203.698 441,206.5C 441.216,208.384 441.883,210.051 443,211.5C 443.278,210.584 443.778,209.918 444.5,209.5C 444.5,210.833 444.5,212.167 444.5,213.5C 445.5,213.5 446.5,213.5 447.5,213.5C 447.201,215.604 447.534,217.604 448.5,219.5C 451.241,221.953 454.075,224.286 457,226.5C 457.383,225.944 457.883,225.611 458.5,225.5C 459.036,228.555 459.869,231.555 461,234.5C 463.308,235.641 465.141,237.308 466.5,239.5C 467.014,243.817 468.347,247.817 470.5,251.5C 471.325,252.386 472.325,252.719 473.5,252.5C 472.873,257.52 473.706,262.187 476,266.5C 477.184,276.814 477.518,287.147 477,297.5C 475.671,302.161 474.337,306.828 473,311.5C 470.382,318.023 467.382,324.356 464,330.5C 463.506,332.134 463.34,333.801 463.5,335.5C 461.833,335.5 460.167,335.5 458.5,335.5C 455.865,351.701 457.199,367.367 462.5,382.5C 460.493,388.757 455.659,392.757 448,394.5C 428.427,392.043 408.927,389.21 389.5,386C 388.328,385.581 387.328,384.915 386.5,384C 388.25,382.246 388.917,380.079 388.5,377.5C 389.323,374.539 389.99,371.539 390.5,368.5C 391.612,366.401 392.279,364.067 392.5,361.5C 418.086,362.082 431.753,349.582 433.5,324C 433.484,314.307 430.151,305.973 423.5,299C 412.092,298.426 400.759,297.259 389.5,295.5C 364.951,289.6 345.618,276.267 331.5,255.5C 328.226,247.619 324.393,239.952 320,232.5C 317.914,225.65 316.58,218.65 316,211.5C 315.329,210.748 314.496,210.414 313.5,210.5C 311.665,198.153 307.832,186.486 302,175.5C 289.202,162.675 274.702,160.175 258.5,168C 255.354,170.312 252.354,172.812 249.5,175.5C 235.781,162.172 220.448,160.005 203.5,169C 197.138,174.227 192.638,180.727 190,188.5C 187.732,197.449 185.899,206.449 184.5,215.5C 182.266,223.872 179.6,232.205 176.5,240.5C 173.074,248.36 168.407,255.36 162.5,261.5C 159.308,263.511 155.974,265.344 152.5,267C 150.572,272.057 146.572,275.557 140.5,277.5C 140.123,279.824 139.123,280.491 137.5,279.5C 136.281,280.646 134.948,281.646 133.5,282.5C 132.147,283.524 131.48,284.857 131.5,286.5C 125.042,288.41 118.542,290.41 112,292.5C 108.314,291.291 104.814,291.791 101.5,294C 97.4762,295.182 93.4762,295.348 89.5,294.5C 85.7938,296.536 81.9605,296.869 78,295.5C 76.6898,296.13 75.8565,297.13 75.5,298.5C 63.5259,313.603 62.3592,329.603 72,346.5C 80.6826,357.923 92.1826,362.923 106.5,361.5C 107.351,366.225 108.518,370.892 110,375.5C 112.141,379.444 113.975,383.444 115.5,387.5C 114.167,387.5 112.833,387.5 111.5,387.5C 90.9705,388.131 70.6372,390.131 50.5,393.5C 46.2947,393.048 42.2947,392.048 38.5,390.5C 38.5,390.167 38.5,389.833 38.5,389.5C 35.3873,384.096 35.8873,379.096 40,374.5C 41.4784,363.873 41.8117,353.206 41,342.5C 39.9854,339.442 38.8187,336.442 37.5,333.5C 36.4231,332.295 35.0898,331.628 33.5,331.5C 28.0953,323.304 24.4286,314.304 22.5,304.5C 22.4878,296.441 21.8211,288.441 20.5,280.5C 20.301,273.649 21.801,267.316 25,261.5C 25.4983,258.183 25.665,254.85 25.5,251.5C 29.2104,248.44 32.7104,245.107 36,241.5C 35.4749,234.706 38.1416,229.706 44,226.5C 44.4709,224.754 45.1376,223.087 46,221.5C 48.8278,218.094 51.8278,214.761 55,211.5C 55.49,210.207 55.6567,208.873 55.5,207.5C 57.8432,204.793 60.1765,202.126 62.5,199.5C 67.3887,197.089 70.222,193.089 71,187.5C 71.3333,187.833 71.6667,188.167 72,188.5C 75.0589,181.325 77.7256,173.991 80,166.5C 81.298,165.44 82.4647,164.274 83.5,163C 84.3942,159.224 84.7275,155.39 84.5,151.5C 86.9927,145.02 90.6593,139.354 95.5,134.5C 98.5174,133.745 100.851,131.912 102.5,129C 103.5,128.667 104.5,128.333 105.5,128C 108.035,124.968 110.368,121.801 112.5,118.5C 116.745,116.916 120.079,114.249 122.5,110.5C 131.435,107.938 140.102,104.771 148.5,101C 151.903,100.9 155.07,100.066 158,98.5C 158.725,99.0585 159.558,99.3918 160.5,99.5C 162.828,98.6699 165.162,97.8366 167.5,97C 175.833,96.3333 184.167,96.3333 192.5,97C 201.321,99.7274 210.321,101.561 219.5,102.5C 225.204,104.185 230.537,106.685 235.5,110C 240.398,113.745 245.398,117.245 250.5,120.5C 254.11,119.297 257.777,118.297 261.5,117.5C 261.244,115.088 262.244,113.421 264.5,112.5C 266.92,113.117 269.254,113.617 271.5,114C 272.833,112.16 272.666,111.66 271,112.5C 270.5,112 270,111.5 269.5,111C 274.194,108.6 278.194,105.433 281.5,101.5C 290.028,100.603 298.361,98.7696 306.5,96C 318.174,95.5148 329.841,95.6815 341.5,96.5 Z"/></g>
<g><path style="opacity:0.98" fill="#855a55" d="M 341.5,96.5 C 329.841,95.6815 318.174,95.5148 306.5,96C 298.361,98.7696 290.028,100.603 281.5,101.5C 293.689,96.435 306.522,93.7684 320,93.5C 327.408,93.818 334.575,94.818 341.5,96.5 Z"/></g>
<g><path style="opacity:1" fill="#7c483e" d="M 341.5,96.5 C 353.224,97.9599 363.891,101.96 373.5,108.5C 372.85,108.804 372.183,109.137 371.5,109.5C 369.118,107.929 366.451,107.096 363.5,107C 356.26,103.317 348.926,99.8173 341.5,96.5 Z"/></g>
<g><path style="opacity:1" fill="#774539" d="M 281.5,101.5 C 278.194,105.433 274.194,108.6 269.5,111C 270,111.5 270.5,112 271,112.5C 272.666,111.66 272.833,112.16 271.5,114C 269.254,113.617 266.92,113.117 264.5,112.5C 262.244,113.421 261.244,115.088 261.5,117.5C 257.777,118.297 254.11,119.297 250.5,120.5C 259.354,111.899 269.687,105.566 281.5,101.5 Z"/></g>
<g><path style="opacity:0.984" fill="#7c4d45" d="M 373.5,108.5 C 378.665,110.338 382.999,113.338 386.5,117.5C 385.883,117.611 385.383,117.944 385,118.5C 382.502,116.254 379.836,114.254 377,112.5C 376.667,112.833 376.333,113.167 376,113.5C 374.906,111.922 374.072,110.255 373.5,108.5 Z"/></g>
<g><path style="opacity:1" fill="#75473f" d="M 122.5,110.5 C 120.079,114.249 116.745,116.916 112.5,118.5C 110.368,121.801 108.035,124.968 105.5,128C 104.5,128.333 103.5,128.667 102.5,129C 100.851,131.912 98.5174,133.745 95.5,134.5C 102.639,124.358 111.639,116.358 122.5,110.5 Z"/></g>
<g><path style="opacity:0.506" fill="#724337" d="M 386.5,117.5 C 399.135,127.132 408.801,139.132 415.5,153.5C 414.504,153.586 413.671,153.252 413,152.5C 409.377,146.375 405.544,140.375 401.5,134.5C 399.356,132.849 397.022,131.515 394.5,130.5C 393.502,127.747 391.669,125.747 389,124.5C 388.144,122.132 387.31,119.798 386.5,117.5 Z"/></g>
<g><path style="opacity:1" fill="#77463c" d="M 84.5,151.5 C 84.7275,155.39 84.3942,159.224 83.5,163C 82.4647,164.274 81.298,165.44 80,166.5C 77.7256,173.991 75.0589,181.325 72,188.5C 71.6667,188.167 71.3333,187.833 71,187.5C 70.222,193.089 67.3887,197.089 62.5,199.5C 65.8438,193.975 69.0105,188.308 72,182.5C 75.313,171.707 79.4797,161.374 84.5,151.5 Z"/></g>
<g><path style="opacity:1" fill="#76473c" d="M 420.5,165.5 C 423.951,174.504 427.618,183.504 431.5,192.5C 430.292,191.766 428.959,191.433 427.5,191.5C 423.634,183.381 421.301,174.714 420.5,165.5 Z"/></g>
<g><path style="opacity:1" fill="#794d44" d="M 431.5,192.5 C 436.21,197.877 440.543,203.543 444.5,209.5C 443.778,209.918 443.278,210.584 443,211.5C 441.883,210.051 441.216,208.384 441,206.5C 435.098,203.698 431.931,199.031 431.5,192.5 Z"/></g>
<g><path style="opacity:1" fill="#fdfcfb" d="M 176.5,240.5 C 179.6,232.205 182.266,223.872 184.5,215.5C 197.26,206.442 210.26,206.275 223.5,215C 227.302,218.129 231.136,221.296 235,224.5C 236.333,229.167 237.667,233.833 239,238.5C 239.667,250.833 239.667,263.167 239,275.5C 236.979,282.594 233.646,288.928 229,294.5C 227.601,295.227 226.101,295.727 224.5,296C 223.743,297.512 222.743,298.846 221.5,300C 206.727,305.995 193.06,304.162 180.5,294.5C 179.614,293.675 179.281,292.675 179.5,291.5C 178.325,291.719 177.325,291.386 176.5,290.5C 174.861,285.888 172.694,281.554 170,277.5C 168.99,272.442 169.49,267.609 171.5,263C 170.941,262.275 170.608,261.442 170.5,260.5C 172.541,253.776 174.541,247.11 176.5,240.5 Z"/></g>
<g><path style="opacity:1" fill="#fdfcfb" d="M 316.5,225.5 C 317.807,228.725 318.807,232.059 319.5,235.5C 319.5,238.167 319.5,240.833 319.5,243.5C 320.5,243.5 321.5,243.5 322.5,243.5C 322.46,246.425 323.293,249.091 325,251.5C 326.862,253.933 328.695,256.266 330.5,258.5C 330.034,266.873 328.534,275.207 326,283.5C 316.316,299.847 302.149,305.681 283.5,301C 274.209,298.042 267.375,292.208 263,283.5C 262,279.167 261,274.833 260,270.5C 259.253,258.817 259.42,247.15 260.5,235.5C 263.993,224.158 270.993,215.825 281.5,210.5C 290.555,207.67 299.555,207.837 308.5,211C 307.833,211.333 307.167,211.667 306.5,212C 308.788,212.946 310.955,214.113 313,215.5C 313.195,219.29 314.362,222.624 316.5,225.5 Z"/></g>
<g><path style="opacity:1" fill="#75443b" d="M 444.5,209.5 C 449.51,214.512 454.177,219.845 458.5,225.5C 457.883,225.611 457.383,225.944 457,226.5C 454.075,224.286 451.241,221.953 448.5,219.5C 447.534,217.604 447.201,215.604 447.5,213.5C 446.5,213.5 445.5,213.5 444.5,213.5C 444.5,212.167 444.5,210.833 444.5,209.5 Z"/></g>
<g><path style="opacity:1" fill="#3f3f3f" d="M 212.5,235.5 C 220.933,234.797 227.099,238.131 231,245.5C 231.667,254.167 231.667,262.833 231,271.5C 227.728,280.71 221.228,284.543 211.5,283C 207.281,280.448 204.114,276.948 202,272.5C 201.5,266.175 201.334,259.842 201.5,253.5C 211.769,251.56 215.436,245.56 212.5,235.5 Z"/></g>
<g><path style="opacity:1" fill="#754237" d="M 55.5,207.5 C 55.6567,208.873 55.49,210.207 55,211.5C 51.8278,214.761 48.8278,218.094 46,221.5C 45.1376,223.087 44.4709,224.754 44,226.5C 38.1416,229.706 35.4749,234.706 36,241.5C 32.7104,245.107 29.2104,248.44 25.5,251.5C 27.9345,243.964 31.4345,236.964 36,230.5C 42.3647,222.642 48.8647,214.975 55.5,207.5 Z"/></g>
<g><path style="opacity:1" fill="#6b4233" d="M 313.5,210.5 C 314.496,210.414 315.329,210.748 316,211.5C 316.58,218.65 317.914,225.65 320,232.5C 324.393,239.952 328.226,247.619 331.5,255.5C 329.204,253.599 327.371,251.266 326,248.5C 323.91,244.019 321.743,239.686 319.5,235.5C 318.807,232.059 317.807,228.725 316.5,225.5C 315.879,220.397 314.879,215.397 313.5,210.5 Z"/></g>
<g><path style="opacity:1" fill="#744339" d="M 458.5,225.5 C 465.574,233.267 470.574,242.267 473.5,252.5C 472.325,252.719 471.325,252.386 470.5,251.5C 468.347,247.817 467.014,243.817 466.5,239.5C 465.141,237.308 463.308,235.641 461,234.5C 459.869,231.555 459.036,228.555 458.5,225.5 Z"/></g>
<g><path style="opacity:1" fill="#fde1d5" d="M 313.5,210.5 C 314.879,215.397 315.879,220.397 316.5,225.5C 314.362,222.624 313.195,219.29 313,215.5C 310.955,214.113 308.788,212.946 306.5,212C 307.167,211.667 307.833,211.333 308.5,211C 299.555,207.837 290.555,207.67 281.5,210.5C 276.876,210.951 273.043,212.951 270,216.5C 269.667,216.167 269.333,215.833 269,215.5C 267.189,219.312 264.522,222.312 261,224.5C 258.114,235.278 256.948,246.278 257.5,257.5C 257.574,264.849 257.908,272.182 258.5,279.5C 258.229,282.749 257.563,285.916 256.5,289C 256.63,290.059 257.13,290.892 258,291.5C 261.662,288.407 264.496,289.074 266.5,293.5C 267.689,294.429 269.022,294.762 270.5,294.5C 270.421,295.93 270.754,297.264 271.5,298.5C 273.679,299.757 275.679,301.257 277.5,303C 289.162,303.5 300.829,303.667 312.5,303.5C 313.025,299.477 315.359,297.31 319.5,297C 319.167,296.667 318.833,296.333 318.5,296C 320.587,295.208 322.421,294.041 324,292.5C 325.816,288.707 327.816,285.04 330,281.5C 331.194,276.07 332.027,270.57 332.5,265C 332.518,262.59 331.851,260.423 330.5,258.5C 328.695,256.266 326.862,253.933 325,251.5C 323.293,249.091 322.46,246.425 322.5,243.5C 321.5,243.5 320.5,243.5 319.5,243.5C 319.5,240.833 319.5,238.167 319.5,235.5C 321.743,239.686 323.91,244.019 326,248.5C 327.371,251.266 329.204,253.599 331.5,255.5C 345.618,276.267 364.951,289.6 389.5,295.5C 391.297,296.393 392.63,297.726 393.5,299.5C 392.994,322.388 391.994,345.388 390.5,368.5C 389.99,371.539 389.323,374.539 388.5,377.5C 386.503,380.825 384.503,384.159 382.5,387.5C 381.325,387.281 380.325,387.614 379.5,388.5C 374.705,395.778 368.039,400.611 359.5,403C 358.643,403.689 357.977,404.522 357.5,405.5C 353.002,406.102 348.668,407.269 344.5,409C 333.494,409.38 322.494,409.88 311.5,410.5C 306.174,410.178 301.007,409.845 296,409.5C 293.667,410.167 291.333,410.833 289,411.5C 243.9,410.671 198.733,409.837 153.5,409C 148.73,406.596 143.73,404.93 138.5,404C 134.884,401.89 132.218,399.056 130.5,395.5C 126.189,396.464 123.189,394.964 121.5,391C 120.552,390.517 119.552,390.351 118.5,390.5C 117.5,389.5 116.5,388.5 115.5,387.5C 113.975,383.444 112.141,379.444 110,375.5C 108.518,370.892 107.351,366.225 106.5,361.5C 106.082,360.778 105.416,360.278 104.5,360C 105.444,357.281 105.777,354.448 105.5,351.5C 105.5,351.167 105.5,350.833 105.5,350.5C 106.167,333.995 106.833,317.328 107.5,300.5C 108.167,299.167 108.833,297.833 109.5,296.5C 113.407,295.534 117.074,294.2 120.5,292.5C 136.242,286.535 149.742,277.201 161,264.5C 161.513,263.473 162.013,262.473 162.5,261.5C 168.407,255.36 173.074,248.36 176.5,240.5C 174.541,247.11 172.541,253.776 170.5,260.5C 170.608,261.442 170.941,262.275 171.5,263C 169.49,267.609 168.99,272.442 170,277.5C 172.694,281.554 174.861,285.888 176.5,290.5C 177.325,291.386 178.325,291.719 179.5,291.5C 179.281,292.675 179.614,293.675 180.5,294.5C 193.06,304.162 206.727,305.995 221.5,300C 222.743,298.846 223.743,297.512 224.5,296C 226.101,295.727 227.601,295.227 229,294.5C 233.646,288.928 236.979,282.594 239,275.5C 239.667,263.167 239.667,250.833 239,238.5C 237.667,233.833 236.333,229.167 235,224.5C 231.136,221.296 227.302,218.129 223.5,215C 210.26,206.275 197.26,206.442 184.5,215.5C 185.899,206.449 187.732,197.449 190,188.5C 192.638,180.727 197.138,174.227 203.5,169C 220.448,160.005 235.781,162.172 249.5,175.5C 252.354,172.812 255.354,170.312 258.5,168C 274.702,160.175 289.202,162.675 302,175.5C 307.832,186.486 311.665,198.153 313.5,210.5 Z"/></g>
<g><path style="opacity:1" fill="#3f3f3f" d="M 278.5,235.5 C 286.956,234.808 293.122,238.141 297,245.5C 297.667,254.167 297.667,262.833 297,271.5C 293.183,281.825 286.017,285.325 275.5,282C 272.238,279.408 269.738,276.241 268,272.5C 267.5,266.175 267.334,259.842 267.5,253.5C 277.281,251.275 280.948,245.275 278.5,235.5 Z"/></g>
<g><path style="opacity:1" fill="#73402d" d="M 162.5,261.5 C 162.013,262.473 161.513,263.473 161,264.5C 149.742,277.201 136.242,286.535 120.5,292.5C 105.719,295.992 90.7189,297.992 75.5,298.5C 75.8565,297.13 76.6898,296.13 78,295.5C 81.9605,296.869 85.7938,296.536 89.5,294.5C 93.4762,295.348 97.4762,295.182 101.5,294C 104.814,291.791 108.314,291.291 112,292.5C 118.542,290.41 125.042,288.41 131.5,286.5C 131.48,284.857 132.147,283.524 133.5,282.5C 134.948,281.646 136.281,280.646 137.5,279.5C 139.123,280.491 140.123,279.824 140.5,277.5C 146.572,275.557 150.572,272.057 152.5,267C 155.974,265.344 159.308,263.511 162.5,261.5 Z"/></g>
<g><path style="opacity:0.19" fill="#a98088" d="M 477.5,265.5 C 478.953,271.267 479.62,277.267 479.5,283.5C 479.499,287.349 479.165,291.016 478.5,294.5C 478.578,284.815 478.245,275.148 477.5,265.5 Z"/></g>
<g><path style="opacity:1" fill="#f9e6dd" d="M 281.5,210.5 C 270.993,215.825 263.993,224.158 260.5,235.5C 259.42,247.15 259.253,258.817 260,270.5C 261,274.833 262,279.167 263,283.5C 267.375,292.208 274.209,298.042 283.5,301C 302.149,305.681 316.316,299.847 326,283.5C 328.534,275.207 330.034,266.873 330.5,258.5C 331.851,260.423 332.518,262.59 332.5,265C 332.027,270.57 331.194,276.07 330,281.5C 327.816,285.04 325.816,288.707 324,292.5C 322.421,294.041 320.587,295.208 318.5,296C 318.833,296.333 319.167,296.667 319.5,297C 315.359,297.31 313.025,299.477 312.5,303.5C 300.829,303.667 289.162,303.5 277.5,303C 275.679,301.257 273.679,299.757 271.5,298.5C 270.754,297.264 270.421,295.93 270.5,294.5C 269.022,294.762 267.689,294.429 266.5,293.5C 264.496,289.074 261.662,288.407 258,291.5C 257.13,290.892 256.63,290.059 256.5,289C 257.563,285.916 258.229,282.749 258.5,279.5C 257.908,272.182 257.574,264.849 257.5,257.5C 256.948,246.278 258.114,235.278 261,224.5C 264.522,222.312 267.189,219.312 269,215.5C 269.333,215.833 269.667,216.167 270,216.5C 273.043,212.951 276.876,210.951 281.5,210.5 Z"/></g>
<g><path style="opacity:1" fill="#f8ab93" d="M 255.5,294.5 C 255.5,294.833 255.5,295.167 255.5,295.5C 257.101,300.265 258.935,304.931 261,309.5C 262.078,321.69 256.578,327.356 244.5,326.5C 244.719,325.325 244.386,324.325 243.5,323.5C 241.478,322.055 239.645,320.388 238,318.5C 237.908,313.47 238.575,308.803 240,304.5C 242.351,301.114 244.518,297.614 246.5,294C 249.123,291.805 251.123,292.305 252.5,295.5C 253.417,294.873 254.417,294.539 255.5,294.5 Z"/></g>
<g><path style="opacity:0.839" fill="#885a56" d="M 25.5,251.5 C 25.665,254.85 25.4983,258.183 25,261.5C 21.801,267.316 20.301,273.649 20.5,280.5C 21.8211,288.441 22.4878,296.441 22.5,304.5C 21.0749,301.097 20.2415,297.43 20,293.5C 18.2548,278.893 20.0881,264.893 25.5,251.5 Z"/></g>
<g><path style="opacity:1" fill="#875b46" d="M 104.5,299.5 C 105.497,316.325 105.83,333.325 105.5,350.5C 105.5,350.833 105.5,351.167 105.5,351.5C 102.615,351.806 99.9479,351.473 97.5,350.5C 99.8333,350.5 102.167,350.5 104.5,350.5C 104.5,333.5 104.5,316.5 104.5,299.5 Z"/></g>
<g><path style="opacity:1" fill="#efb39e" d="M 255.5,294.5 C 254.417,294.539 253.417,294.873 252.5,295.5C 251.123,292.305 249.123,291.805 246.5,294C 244.518,297.614 242.351,301.114 240,304.5C 238.575,308.803 237.908,313.47 238,318.5C 239.645,320.388 241.478,322.055 243.5,323.5C 244.386,324.325 244.719,325.325 244.5,326.5C 256.578,327.356 262.078,321.69 261,309.5C 258.935,304.931 257.101,300.265 255.5,295.5C 258.251,298.187 260.585,301.187 262.5,304.5C 266.579,313.702 264.579,321.202 256.5,327C 241.089,330.595 233.922,324.429 235,308.5C 238.512,300.969 242.678,293.802 247.5,287C 251.793,287.45 254.459,289.95 255.5,294.5 Z"/></g>
<g><path style="opacity:1" fill="#f7d8c3" d="M 120.5,292.5 C 117.074,294.2 113.407,295.534 109.5,296.5C 108.833,297.833 108.167,299.167 107.5,300.5C 106.833,317.328 106.167,333.995 105.5,350.5C 105.83,333.325 105.497,316.325 104.5,299.5C 84.1046,300.401 74.938,311.068 77,331.5C 80.19,341.86 87.0233,348.193 97.5,350.5C 99.9479,351.473 102.615,351.806 105.5,351.5C 105.777,354.448 105.444,357.281 104.5,360C 105.416,360.278 106.082,360.778 106.5,361.5C 92.1826,362.923 80.6826,357.923 72,346.5C 62.3592,329.603 63.5259,313.603 75.5,298.5C 90.7189,297.992 105.719,295.992 120.5,292.5 Z"/></g>
<g><path style="opacity:1" fill="#733a24" d="M 104.5,299.5 C 104.5,316.5 104.5,333.5 104.5,350.5C 102.167,350.5 99.8333,350.5 97.5,350.5C 87.0233,348.193 80.19,341.86 77,331.5C 74.938,311.068 84.1046,300.401 104.5,299.5 Z"/></g>
<g><path style="opacity:0.875" fill="#794842" d="M 473.5,252.5 C 475.606,256.491 476.939,260.824 477.5,265.5C 478.245,275.148 478.578,284.815 478.5,294.5C 476.84,309.488 471.84,323.155 463.5,335.5C 463.34,333.801 463.506,332.134 464,330.5C 467.382,324.356 470.382,318.023 473,311.5C 474.337,306.828 475.671,302.161 477,297.5C 477.518,287.147 477.184,276.814 476,266.5C 473.706,262.187 472.873,257.52 473.5,252.5 Z"/></g>
<g><path style="opacity:1" fill="#f7ac94" d="M 215.5,336.5 C 216.833,336.833 218.167,337.167 219.5,337.5C 220.058,338.79 221.058,339.623 222.5,340C 230.671,341.706 238.837,343.206 247,344.5C 247.463,348.858 245.63,350.191 241.5,348.5C 236.611,351.298 231.945,351.132 227.5,348C 222.9,346.683 218.234,345.683 213.5,345C 210.565,342.234 207.232,340.067 203.5,338.5C 200.677,335.882 198.677,332.715 197.5,329C 198,327.167 199.167,326 201,325.5C 205.147,327.662 208.314,330.829 210.5,335C 212.154,335.608 213.821,336.108 215.5,336.5 Z"/></g>
<g><path style="opacity:1" fill="#f5d6c1" d="M 389.5,295.5 C 400.759,297.259 412.092,298.426 423.5,299C 430.151,305.973 433.484,314.307 433.5,324C 431.753,349.582 418.086,362.082 392.5,361.5C 392.279,364.067 391.612,366.401 390.5,368.5C 391.994,345.388 392.994,322.388 393.5,299.5C 392.63,297.726 391.297,296.393 389.5,295.5 Z"/></g>
<g><path style="opacity:1" fill="#733b25" d="M 393.5,299.5 C 410.484,298.827 420.151,306.827 422.5,323.5C 421.488,341.847 411.821,350.847 393.5,350.5C 393.5,333.5 393.5,316.5 393.5,299.5 Z"/></g>
<g><path style="opacity:1" fill="#efb39e" d="M 215.5,336.5 C 213.821,336.108 212.154,335.608 210.5,335C 208.314,330.829 205.147,327.662 201,325.5C 199.167,326 198,327.167 197.5,329C 198.677,332.715 200.677,335.882 203.5,338.5C 207.232,340.067 210.565,342.234 213.5,345C 218.234,345.683 222.9,346.683 227.5,348C 231.945,351.132 236.611,351.298 241.5,348.5C 245.63,350.191 247.463,348.858 247,344.5C 238.837,343.206 230.671,341.706 222.5,340C 221.058,339.623 220.058,338.79 219.5,337.5C 222.348,338.772 225.348,339.605 228.5,340C 234.859,340.169 241.193,340.669 247.5,341.5C 252.044,346.486 251.044,349.986 244.5,352C 224.889,355.269 209.222,349.103 197.5,333.5C 195.387,325.12 198.387,322.62 206.5,326C 209.336,329.667 212.336,333.167 215.5,336.5 Z"/></g>
<g><path style="opacity:1" fill="#7b4b43" d="M 33.5,331.5 C 35.0898,331.628 36.4231,332.295 37.5,333.5C 38.8187,336.442 39.9854,339.442 41,342.5C 41.8117,353.206 41.4784,363.873 40,374.5C 35.8873,379.096 35.3873,384.096 38.5,389.5C 37.2101,388.942 36.3768,387.942 36,386.5C 35.5,384.5 35,382.5 34.5,380.5C 41.4515,363.981 41.1181,347.647 33.5,331.5 Z"/></g>
<g><path style="opacity:0.91" fill="#794b42" d="M 463.5,335.5 C 457.897,350.438 458.231,365.271 464.5,380C 463.287,389.286 458.12,394.786 449,396.5C 429.967,393.138 410.8,390.472 391.5,388.5C 388.713,387.523 385.713,387.19 382.5,387.5C 384.503,384.159 386.503,380.825 388.5,377.5C 388.917,380.079 388.25,382.246 386.5,384C 387.328,384.915 388.328,385.581 389.5,386C 408.927,389.21 428.427,392.043 448,394.5C 455.659,392.757 460.493,388.757 462.5,382.5C 457.199,367.367 455.865,351.701 458.5,335.5C 460.167,335.5 461.833,335.5 463.5,335.5 Z"/></g>
<g><path style="opacity:0.847" fill="#7a4b46" d="M 111.5,387.5 C 91.39,389.877 71.2234,392.877 51,396.5C 45.9081,396.203 41.7414,394.203 38.5,390.5C 42.2947,392.048 46.2947,393.048 50.5,393.5C 70.6372,390.131 90.9705,388.131 111.5,387.5 Z"/></g>
<g><path style="opacity:0.985" fill="#fbdfe0" d="M 382.5,387.5 C 385.713,387.19 388.713,387.523 391.5,388.5C 388.102,388.18 384.768,388.513 381.5,389.5C 369.343,404.245 353.676,412.079 334.5,413C 324.506,413.5 314.506,413.666 304.5,413.5C 268.514,412.199 232.514,412.199 196.5,413.5C 196.145,414.522 195.478,415.189 194.5,415.5C 178.741,414.135 162.741,412.301 146.5,410C 135.597,405.718 126.263,399.218 118.5,390.5C 119.552,390.351 120.552,390.517 121.5,391C 123.189,394.964 126.189,396.464 130.5,395.5C 132.218,399.056 134.884,401.89 138.5,404C 143.73,404.93 148.73,406.596 153.5,409C 198.733,409.837 243.9,410.671 289,411.5C 291.333,410.833 293.667,410.167 296,409.5C 301.007,409.845 306.174,410.178 311.5,410.5C 322.494,409.88 333.494,409.38 344.5,409C 348.668,407.269 353.002,406.102 357.5,405.5C 357.977,404.522 358.643,403.689 359.5,403C 368.039,400.611 374.705,395.778 379.5,388.5C 380.325,387.614 381.325,387.281 382.5,387.5 Z"/></g>
<g><path style="opacity:1" fill="#f7cbe1" d="M 304.5,413.5 C 305.367,416.908 306.533,420.242 308,423.5C 320.44,448.713 332.607,474.047 344.5,499.5C 343.5,499.5 342.5,499.5 341.5,499.5C 340.344,496.233 339.177,492.899 338,489.5C 336.556,487.845 334.722,487.178 332.5,487.5C 333.178,482.995 331.511,479.829 327.5,478C 329.992,473.428 328.992,469.594 324.5,466.5C 322.816,461.692 320.982,457.026 319,452.5C 317.649,450.981 316.149,449.648 314.5,448.5C 316.144,444.449 314.978,441.449 311,439.5C 309.789,434.744 308.289,430.078 306.5,425.5C 303.729,422.608 300.729,419.942 297.5,417.5C 294.733,416.566 291.9,415.9 289,415.5C 258.704,416.775 228.538,416.775 198.5,415.5C 189.023,436.105 178.357,456.438 166.5,476.5C 166.709,477.086 167.043,477.586 167.5,478C 165.331,480.819 163.831,483.986 163,487.5C 162.333,488.833 161.667,488.833 161,487.5C 159.19,491.425 157.69,495.425 156.5,499.5C 155.5,499.5 154.5,499.5 153.5,499.5C 166.625,471.25 180.291,443.25 194.5,415.5C 195.478,415.189 196.145,414.522 196.5,413.5C 232.514,412.199 268.514,412.199 304.5,413.5 Z"/></g>
<g><path style="opacity:1" fill="#fbc8dd" d="M 341.5,499.5 C 279.833,499.5 218.167,499.5 156.5,499.5C 157.69,495.425 159.19,491.425 161,487.5C 161.667,488.833 162.333,488.833 163,487.5C 163.831,483.986 165.331,480.819 167.5,478C 167.043,477.586 166.709,477.086 166.5,476.5C 178.357,456.438 189.023,436.105 198.5,415.5C 228.538,416.775 258.704,416.775 289,415.5C 291.9,415.9 294.733,416.566 297.5,417.5C 300.729,419.942 303.729,422.608 306.5,425.5C 308.289,430.078 309.789,434.744 311,439.5C 314.978,441.449 316.144,444.449 314.5,448.5C 316.149,449.648 317.649,450.981 319,452.5C 320.982,457.026 322.816,461.692 324.5,466.5C 328.992,469.594 329.992,473.428 327.5,478C 331.511,479.829 333.178,482.995 332.5,487.5C 334.722,487.178 336.556,487.845 338,489.5C 339.177,492.899 340.344,496.233 341.5,499.5 Z"/></g>
</svg>
