<?xml version="1.0" encoding="UTF-8"?>
<!DOCTYPE svg PUBLIC "-//W3C//DTD SVG 1.1//EN" "http://www.w3.org/Graphics/SVG/1.1/DTD/svg11.dtd">
<svg xmlns="http://www.w3.org/2000/svg" version="1.1" width="512px" height="512px" style="shape-rendering:geometricPrecision; text-rendering:geometricPrecision; image-rendering:optimizeQuality; fill-rule:evenodd; clip-rule:evenodd" xmlns:xlink="http://www.w3.org/1999/xlink">
<g><path style="opacity:1" fill="#fd5d6f" d="M 215.5,-0.5 C 221.833,-0.5 228.167,-0.5 234.5,-0.5C 239.898,1.74036 245.565,3.40703 251.5,4.5C 245.482,11.6751 238.149,17.1751 229.5,21C 220.865,22.9992 212.198,24.9992 203.5,27C 192.894,30.9412 184.727,37.7746 179,47.5C 175.639,57.2229 170.973,66.2229 165,74.5C 160.068,79.4347 154.568,83.6014 148.5,87C 139.996,94.8982 133.663,104.065 129.5,114.5C 119.671,111.514 110.004,111.848 100.5,115.5C 99.5084,115.328 98.8417,115.662 98.5,116.5C 94.9217,117.292 91.5884,118.625 88.5,120.5C 88.0583,100.201 96.7249,85.3681 114.5,76C 123.33,67.516 129.497,57.3493 133,45.5C 137.983,38.1815 144.483,32.6815 152.5,29C 160.723,26.5396 169.057,24.5396 177.5,23C 181.327,21.254 184.993,19.254 188.5,17C 195.974,8.60954 204.974,2.7762 215.5,-0.5 Z"/></g>
<g><path style="opacity:0.996" fill="#fea1ab" d="M 276.5,-0.5 C 282.833,-0.5 289.167,-0.5 295.5,-0.5C 306.026,2.7762 315.026,8.60954 322.5,17C 331.635,22.7872 341.635,26.1206 352.5,27C 363.396,29.8647 371.896,36.0313 378,45.5C 381.503,57.3493 387.67,67.516 396.5,76C 414.275,85.3681 422.942,100.201 422.5,120.5C 403.248,109.453 384.248,109.953 365.5,122C 356.307,124.393 346.974,125.06 337.5,124C 330.167,121 322.833,118 315.5,115C 307.278,112.111 298.945,111.778 290.5,114C 283.167,117 275.833,120 268.5,123C 260.564,124.53 252.564,124.863 244.5,124C 237.167,121 229.833,118 222.5,115C 214.262,112.174 205.929,111.841 197.5,114C 189.279,117.61 180.946,120.943 172.5,124C 164.103,124.87 155.77,124.537 147.5,123C 141.561,119.862 135.561,117.028 129.5,114.5C 133.663,104.065 139.996,94.8982 148.5,87C 154.568,83.6014 160.068,79.4347 165,74.5C 170.973,66.2229 175.639,57.2229 179,47.5C 184.727,37.7746 192.894,30.9412 203.5,27C 212.198,24.9992 220.865,22.9992 229.5,21C 238.149,17.1751 245.482,11.6751 251.5,4.5C 260.329,4.73434 268.662,3.06768 276.5,-0.5 Z"/></g>
<g><path style="opacity:0.999" fill="#80dfb6" d="M 129.5,114.5 C 135.561,117.028 141.561,119.862 147.5,123C 155.77,124.537 164.103,124.87 172.5,124C 180.946,120.943 189.279,117.61 197.5,114C 205.929,111.841 214.262,112.174 222.5,115C 229.833,118 237.167,121 244.5,124C 252.564,124.863 260.564,124.53 268.5,123C 275.833,120 283.167,117 290.5,114C 298.945,111.778 307.278,112.111 315.5,115C 322.833,118 330.167,121 337.5,124C 346.974,125.06 356.307,124.393 365.5,122C 384.248,109.953 403.248,109.453 422.5,120.5C 431.833,126.804 438,135.471 441,146.5C 442.374,159.12 442.874,171.787 442.5,184.5C 441.668,209.33 441.168,234.33 441,259.5C 439.499,267.842 437.999,276.176 436.5,284.5C 422.58,338.027 391.58,378.36 343.5,405.5C 329.941,411.607 315.941,416.607 301.5,420.5C 299.005,443.049 287.005,457.549 265.5,464C 242.596,467.299 225.763,458.799 215,438.5C 212.476,433.1 211.309,427.433 211.5,421.5C 229.915,425.968 248.582,427.468 267.5,426C 196.169,415.089 145.336,376.923 115,311.5C 106.915,291.572 102.082,270.906 100.5,249.5C 100.5,204.833 100.5,160.167 100.5,115.5C 110.004,111.848 119.671,111.514 129.5,114.5 Z"/></g>
<g><path style="opacity:0.995" fill="#03b762" d="M 98.5,116.5 C 99.1667,160.833 99.8333,205.167 100.5,249.5C 102.082,270.906 106.915,291.572 115,311.5C 145.336,376.923 196.169,415.089 267.5,426C 248.582,427.468 229.915,425.968 211.5,421.5C 204.262,419.2 196.929,416.867 189.5,414.5C 182.673,411.258 175.673,408.258 168.5,405.5C 120.916,378.38 89.5824,338.38 74.5,285.5C 42.702,283.033 25.0354,266.033 21.5,234.5C 24.1537,205.515 39.8204,188.848 68.5,184.5C 68.1264,171.787 68.6264,159.12 70,146.5C 73,135.471 79.1667,126.804 88.5,120.5C 91.5884,118.625 94.9217,117.292 98.5,116.5 Z"/></g>
<g><path style="opacity:1" fill="#3cc989" d="M 98.5,116.5 C 98.8417,115.662 99.5084,115.328 100.5,115.5C 100.5,160.167 100.5,204.833 100.5,249.5C 99.8333,205.167 99.1667,160.833 98.5,116.5 Z"/></g>
<g><path style="opacity:0.987" fill="#02b762" d="M 442.5,184.5 C 471.18,188.848 486.846,205.515 489.5,234.5C 486.073,266.26 468.406,282.927 436.5,284.5C 437.999,276.176 439.499,267.842 441,259.5C 441.168,234.33 441.668,209.33 442.5,184.5 Z"/></g>
<g><path style="opacity:1" fill="#fdfefe" d="M 364.5,247.5 C 361.236,251.247 357.236,254.08 352.5,256C 345.908,257.329 339.241,257.829 332.5,257.5C 311.211,246.799 306.045,230.799 317,209.5C 327.123,197.278 339.623,194.111 354.5,200C 368.492,207.82 373.992,219.654 371,235.5C 369.598,239.975 367.431,243.975 364.5,247.5 Z"/></g>
<g><path style="opacity:1" fill="#fcfefd" d="M 178.5,257.5 C 165.503,260.611 154.503,257.278 145.5,247.5C 134.129,227.647 138.129,211.813 157.5,200C 177.085,194.411 190.918,200.911 199,219.5C 202.33,237.851 195.496,250.517 178.5,257.5 Z"/></g>
<g><path style="opacity:1" fill="#81e0b8" d="M 165.5,210.5 C 180.499,210.33 187.332,217.663 186,232.5C 181.943,242.758 174.443,246.591 163.5,244C 152.812,238.123 149.978,229.623 155,218.5C 157.855,214.789 161.355,212.123 165.5,210.5 Z"/></g>
<g><path style="opacity:1" fill="#81e0b7" d="M 337.5,217.5 C 347.988,216.487 352.488,221.154 351,231.5C 347.82,237.234 342.987,239.067 336.5,237C 329.606,230.024 329.939,223.524 337.5,217.5 Z"/></g>
<g><path style="opacity:1" fill="#5c576e" d="M 296.5,280.5 C 290.537,281.53 284.537,281.697 278.5,281C 271.962,279.137 265.296,277.971 258.5,277.5C 256.36,277.556 254.694,278.223 253.5,279.5C 252.121,278.391 250.455,277.724 248.5,277.5C 238.015,280.431 227.348,281.598 216.5,281C 205.487,274.623 202.987,265.79 209,254.5C 220.885,239.81 236.385,232.477 255.5,232.5C 273.587,232.69 288.754,239.356 301,252.5C 308.114,263.352 306.614,272.686 296.5,280.5 Z"/></g>
<g><path style="opacity:1" fill="#fea1ac" d="M 145.5,247.5 C 154.503,257.278 165.503,260.611 178.5,257.5C 192.3,272.563 191.634,287.063 176.5,301C 159.046,311.909 141.38,312.242 123.5,302C 108.816,290.064 106.649,276.23 117,260.5C 124.818,252.508 134.318,248.175 145.5,247.5 Z"/></g>
<g><path style="opacity:1" fill="#fea1ac" d="M 364.5,247.5 C 381.238,248.439 393.072,256.439 400,271.5C 401.321,290.869 392.487,303.036 373.5,308C 355.572,312.562 340.405,308.062 328,294.5C 319.522,280.918 321.022,268.584 332.5,257.5C 339.241,257.829 345.908,257.329 352.5,256C 357.236,254.08 361.236,251.247 364.5,247.5 Z"/></g>
<g><path style="opacity:1" fill="#fb5d6f" d="M 296.5,280.5 C 297.971,288.632 299.305,296.799 300.5,305C 298.555,321.654 289.222,328.654 272.5,326C 266,323.5 261.5,319 259,312.5C 257.003,301.514 255.169,290.514 253.5,279.5C 254.694,278.223 256.36,277.556 258.5,277.5C 265.296,277.971 271.962,279.137 278.5,281C 284.537,281.697 290.537,281.53 296.5,280.5 Z"/></g>
<g><path style="opacity:1" fill="#6d37ab" d="M 168.5,405.5 C 175.673,408.258 182.673,411.258 189.5,414.5C 175.316,430.395 164.316,448.395 156.5,468.5C 145.854,469.499 135.187,469.832 124.5,469.5C 133.724,444.372 148.391,423.039 168.5,405.5 Z"/></g>
<g><path style="opacity:0.998" fill="#986acb" d="M 343.5,405.5 C 363.083,423.659 377.417,445.326 386.5,470.5C 369.167,470.5 351.833,470.5 334.5,470.5C 334.5,484.167 334.5,497.833 334.5,511.5C 281.833,511.5 229.167,511.5 176.5,511.5C 176.5,497.833 176.5,484.167 176.5,470.5C 169.5,470.5 162.5,470.5 155.5,470.5C 145.167,470.5 134.833,470.5 124.5,470.5C 124.5,470.167 124.5,469.833 124.5,469.5C 135.187,469.832 145.854,469.499 156.5,468.5C 164.316,448.395 175.316,430.395 189.5,414.5C 196.929,416.867 204.262,419.2 211.5,421.5C 211.309,427.433 212.476,433.1 215,438.5C 225.763,458.799 242.596,467.299 265.5,464C 287.005,457.549 299.005,443.049 301.5,420.5C 315.941,416.607 329.941,411.607 343.5,405.5 Z"/></g>
<g><path style="opacity:1" fill="#02b762" d="M 124.5,470.5 C 134.833,470.5 145.167,470.5 155.5,470.5C 151.442,483.851 149.442,497.517 149.5,511.5C 138.833,511.5 128.167,511.5 117.5,511.5C 118.003,497.484 120.336,483.817 124.5,470.5 Z"/></g>
<g><path style="opacity:1" fill="#7fdfb6" d="M 155.5,470.5 C 162.5,470.5 169.5,470.5 176.5,470.5C 176.5,484.167 176.5,497.833 176.5,511.5C 167.5,511.5 158.5,511.5 149.5,511.5C 149.442,497.517 151.442,483.851 155.5,470.5 Z"/></g>
<g><path style="opacity:0.995" fill="#7fe0b7" d="M 386.5,470.5 C 390.665,483.82 392.998,497.487 393.5,511.5C 373.833,511.5 354.167,511.5 334.5,511.5C 334.5,497.833 334.5,484.167 334.5,470.5C 351.833,470.5 369.167,470.5 386.5,470.5 Z"/></g>
</svg>
